<svg id="logo_capiconf" xmlns="http://www.w3.org/2000/svg" width="429.874" height="429.874" viewBox="0 0 429.874 429.874">
  <circle id="Ellipse_1" data-name="Ellipse 1" cx="214.937" cy="214.937" r="214.937" fill="#ff1744"/>
  <path id="Path_1" data-name="Path 1" d="M101.833,158.4l-7.18,2.059.049,9.2,7.292-2.091.02,12.464-7.291,2.09.233,11.318-13.08,3.752L81.7,185.86l-7.069,2.027.178,11.335L61.67,202.988l-.011-11.382-7.291,2.09-.02-12.463,7.18-2.059-.049-9.2-7.292,2.09-.131-12.432,7.292-2.09-.107-11.715,12.969-3.719.162,11.7,7.069-2.026-.051-11.733,13.024-3.734,0,11.747,7.292-2.091Zm-27.385,7.852.049,9.2,7.18-2.059.007-9.219Z" transform="translate(12.718 32.07)" fill="#fff"/>
  <path id="Path_2" data-name="Path 2" d="M173.641,178.875a42.665,42.665,0,0,1-23.931,17.584,41.5,41.5,0,0,1-11.4,1.642,43.569,43.569,0,0,1-11.032-1.295,44.869,44.869,0,0,1-19.123-10.6,45.393,45.393,0,0,1-7-8.654,43.97,43.97,0,0,1-6.288-21.93,43.053,43.053,0,0,1,5.452-21.321,42.817,42.817,0,0,1,6.5-8.851,42.186,42.186,0,0,1,8.654-7,41.554,41.554,0,0,1,10.534-4.647,42.453,42.453,0,0,1,15.038-1.54,40.792,40.792,0,0,1,14.575,3.771l-4.47,16.341a24.532,24.532,0,0,0-9.953-3.411,26.112,26.112,0,0,0-10.61.813,25.633,25.633,0,0,0-9.332,4.845,26.873,26.873,0,0,0-6.507,7.77,26.006,26.006,0,0,0-3.14,9.634,26.238,26.238,0,0,0,5.65,19.7,26.834,26.834,0,0,0,17.388,9.592,25.619,25.619,0,0,0,10.482-.838,26.7,26.7,0,0,0,9.444-4.877,25.2,25.2,0,0,0,6.617-8.222Z" transform="translate(22.32 26.383)" fill="#fff"/>
  <path id="Path_3" data-name="Path 3" d="M203.392,144l-4.58-15.975a15.7,15.7,0,0,0-3.052-5.812,16.093,16.093,0,0,0-10.958-6.074,15.711,15.711,0,0,0-6.545.492,16.116,16.116,0,0,0-5.867,3.067,16.437,16.437,0,0,0-4.091,4.848,17.02,17.02,0,0,0-1.983,6.11,16.327,16.327,0,0,0,.547,6.53l4.58,15.974Zm25.119,27.312-15.973,4.582-4.582-15.975-31.949,9.161,4.582,15.974-15.919,4.564L150.943,141.75a32.159,32.159,0,0,1-1.055-13.13,33.981,33.981,0,0,1,3.87-12.133,33.623,33.623,0,0,1,8.168-9.751,32.573,32.573,0,0,1,11.75-6.08,32.159,32.159,0,0,1,13.13-1.054,33.175,33.175,0,0,1,21.916,12.148,32.149,32.149,0,0,1,6.064,11.694Z" transform="translate(35.203 23.372)" fill="#fff"/>
  <path id="Path_4" data-name="Path 4" d="M221.2,104.739l9.161,31.949,15.974-4.58a16.333,16.333,0,0,0,5.827-3,17.231,17.231,0,0,0,4.075-4.9,16.417,16.417,0,0,0,1.943-6.039,16.11,16.11,0,0,0-.506-6.6,15.725,15.725,0,0,0-3.052-5.811,16.255,16.255,0,0,0-4.863-4.147,16.425,16.425,0,0,0-6.039-1.943,15.713,15.713,0,0,0-6.546.491ZM239.5,168.581l-15.975,4.58L200.642,93.345l31.949-9.161a31.679,31.679,0,0,1,8.8-1.257,31.045,31.045,0,0,1,8.495,1.058,33.941,33.941,0,0,1,14.754,8.178,32.019,32.019,0,0,1,5.414,6.7,31.689,31.689,0,0,1,3.6,8.125,32.428,32.428,0,0,1,1.054,13.131,33.336,33.336,0,0,1-12.164,21.861,32.046,32.046,0,0,1-11.639,6.048l-15.975,4.58Z" transform="translate(47.205 19.51)" fill="#fff"/>
  <path id="Path_5" data-name="Path 5" d="M293.265,152.053l-15.974,4.58L254.4,76.817l15.975-4.581Z" transform="translate(59.853 16.995)" fill="#fff"/>
  <path id="Path_6" data-name="Path 6" d="M148.584,266.163a42.665,42.665,0,0,1-23.931,17.584,41.5,41.5,0,0,1-11.4,1.642,43.623,43.623,0,0,1-11.033-1.293A44.9,44.9,0,0,1,83.1,273.5a45.473,45.473,0,0,1-7-8.656,43.971,43.971,0,0,1-6.288-21.93,43.054,43.054,0,0,1,5.452-21.321,42.834,42.834,0,0,1,6.5-8.851,42.205,42.205,0,0,1,8.655-7,41.557,41.557,0,0,1,10.534-4.647,42.458,42.458,0,0,1,15.039-1.54,40.792,40.792,0,0,1,14.575,3.771l-4.47,16.341a24.549,24.549,0,0,0-9.953-3.411,26.113,26.113,0,0,0-10.61.813A25.643,25.643,0,0,0,96.2,221.91a26.875,26.875,0,0,0-6.507,7.77,26,26,0,0,0-3.14,9.634,26.236,26.236,0,0,0,5.65,19.7,26.835,26.835,0,0,0,17.388,9.592,25.613,25.613,0,0,0,10.481-.838,26.693,26.693,0,0,0,9.445-4.877,25.207,25.207,0,0,0,6.617-8.222Z" transform="translate(16.425 46.919)" fill="#fff"/>
  <path id="Path_7" data-name="Path 7" d="M205.743,215.774a41.533,41.533,0,0,1,1.64,11.4A43.579,43.579,0,0,1,206.09,238.2a42.893,42.893,0,0,1-4.063,10.2,44.631,44.631,0,0,1-6.482,8.906,42.3,42.3,0,0,1-8.67,6.943,42.4,42.4,0,0,1-21.931,6.289,43.633,43.633,0,0,1-11.032-1.295,44.9,44.9,0,0,1-19.123-10.6,45.458,45.458,0,0,1-7-8.654,43.97,43.97,0,0,1-6.289-21.931,43.993,43.993,0,0,1,1.35-11.048A44.57,44.57,0,0,1,126.97,206.8a42.85,42.85,0,0,1,6.5-8.851,43.6,43.6,0,0,1,8.67-6.943,42.4,42.4,0,0,1,21.93-6.289,42.276,42.276,0,0,1,11.033,1.295,43.292,43.292,0,0,1,19.05,10.56,42.278,42.278,0,0,1,6.945,8.67A41.557,41.557,0,0,1,205.743,215.774Zm-15.863,4.548a25.493,25.493,0,0,0-4.829-9.277,26.687,26.687,0,0,0-17.4-9.647,26.38,26.38,0,0,0-19.759,5.666,26.888,26.888,0,0,0-6.507,7.769,26.017,26.017,0,0,0-3.14,9.635,26.237,26.237,0,0,0,5.65,19.7,26.848,26.848,0,0,0,17.388,9.592,26.381,26.381,0,0,0,19.759-5.666,26.015,26.015,0,0,0,6.506-7.769,27.052,27.052,0,0,0,3.157-9.579A25.482,25.482,0,0,0,189.879,220.322Z" transform="translate(28.585 43.457)" fill="#fff"/>
  <path id="Path_8" data-name="Path 8" d="M270.064,241.423l-17.087,4.9-45.846-43.716L222.2,255.148l-15.974,4.582-22.887-79.817,17.089-4.9,45.862,43.773-15.083-52.6,15.974-4.58Z" transform="translate(43.133 38.021)" fill="#fff"/>
  <path id="Path_9" data-name="Path 9" d="M280.374,238.033l-15.974,4.58L241.512,162.8,297.4,146.772l4.581,15.975L262.067,174.19l4.582,15.975,23.933-6.863,4.58,15.974-23.933,6.863Z" transform="translate(56.82 34.531)" fill="#fff"/>
</svg>
