<svg xmlns="http://www.w3.org/2000/svg" width="500" height="97.4" viewBox="0 0 500 97.4">
  <g id="fesp" transform="translate(-0.038 0.001)">
    <path id="Path_10" data-name="Path 10" d="M200.779,17.224h4.567V18.5H200.84v4.445H199.5V12.9h6.333v1.279h-4.872Z" transform="translate(-77.996 -5.045)" fill="#39abe2"/>
    <path id="Path_11" data-name="Path 11" d="M217.647,22.887a22.109,22.109,0,0,0-.609-2.74h-4.689a22.12,22.12,0,0,0-.609,2.74H210.4a34.411,34.411,0,0,1,3.593-9.987h1.4a34.411,34.411,0,0,1,3.593,9.987Zm-.974-3.958a43.8,43.8,0,0,0-1.949-4.628,43.83,43.83,0,0,0-1.949,4.628Z" transform="translate(-82.258 -5.045)" fill="#39abe2"/>
    <path id="Path_12" data-name="Path 12" d="M232.862,15.372a3,3,0,0,0-2.375-1.157c-2.01,0-2.984,1.705-2.984,3.776s.974,3.776,2.984,3.776a2.919,2.919,0,0,0,2.436-1.218l.974.913a4.3,4.3,0,0,1-3.41,1.644,5.084,5.084,0,0,1,0-10.109,4.309,4.309,0,0,1,3.41,1.462Z" transform="translate(-88.339 -5.081)" fill="#39abe2"/>
    <path id="Path_13" data-name="Path 13" d="M244.854,23.026a3.344,3.344,0,0,1-3.654-2.984V13.1h1.34v6.638a2.053,2.053,0,0,0,2.07,2.07h.3a2.12,2.12,0,0,0,2.253-2.01V13.161h1.34v6.82A3.4,3.4,0,0,1,244.854,23.026Z" transform="translate(-94.302 -5.123)" fill="#39abe2"/>
    <path id="Path_14" data-name="Path 14" d="M262.433,22.965H256.1V13.1h1.34v8.708h5.115Z" transform="translate(-100.128 -5.123)" fill="#39abe2"/>
    <path id="Path_15" data-name="Path 15" d="M276.251,17.794a4.706,4.706,0,0,1-4.263,5.115h-.365a12.012,12.012,0,0,1-2.923-.365V13.1a15.877,15.877,0,0,1,2.923-.3,4.626,4.626,0,0,1,4.628,4.628Zm-1.462,0a3.277,3.277,0,0,0-2.862-3.654h-.3a6.134,6.134,0,0,0-1.522.183v7.064a4.425,4.425,0,0,0,1.522.244c2.07-.061,3.167-1.827,3.167-3.836Z" transform="translate(-105.055 -5.006)" fill="#39abe2"/>
    <path id="Path_16" data-name="Path 16" d="M289.347,22.887a22.1,22.1,0,0,0-.609-2.74h-4.689a22.126,22.126,0,0,0-.609,2.74H282.1a34.412,34.412,0,0,1,3.593-9.987h1.4a34.414,34.414,0,0,1,3.593,9.987Zm-.974-3.958a43.83,43.83,0,0,0-1.949-4.628,43.8,43.8,0,0,0-1.949,4.628Z" transform="translate(-110.295 -5.045)" fill="#39abe2"/>
    <path id="Path_17" data-name="Path 17" d="M306.451,17.794a4.706,4.706,0,0,1-4.263,5.115h-.365a12.012,12.012,0,0,1-2.923-.365V13.1a15.877,15.877,0,0,1,2.923-.3,4.626,4.626,0,0,1,4.628,4.628Zm-1.462,0a3.277,3.277,0,0,0-2.862-3.654h-.3a6.135,6.135,0,0,0-1.522.183v7.064a4.425,4.425,0,0,0,1.522.244c1.888,0,3.045-1.766,3.045-3.776h.122Z" transform="translate(-116.865 -5.006)" fill="#39abe2"/>
    <path id="Path_18" data-name="Path 18" d="M319.694,22.887H313.3V12.9h6.333v1.279h-4.872v3.045h4.567V18.5h-4.567v3.167h5.115Z" transform="translate(-122.495 -5.045)" fill="#39abe2"/>
    <path id="Path_19" data-name="Path 19" d="M211.745,66.715H237.2l-.792,11.449H211.623v24.115H199.2V42.6h40.131L238.6,54.049H211.684Z" transform="translate(-77.879 -16.658)" fill="#1a1d56"/>
    <path id="Path_20" data-name="Path 20" d="M322.175,102.34H281.8V42.6h40.131L321.2,54.049H294.284V66.715h25.455l-.67,11.509H294.284V90.891h28.743Z" transform="translate(-110.178 -16.658)" fill="#1a1d56"/>
    <path id="Path_21" data-name="Path 21" d="M394.241,55.867a28.54,28.54,0,0,0-11.022-2.253c-4.263,0-7.125,2.375-7.125,4.75,0,3.288,1.34,5.054,10.474,8.891,9.926,4.019,13.945,9.8,13.945,17.538,0,14.372-11.57,17.66-22.41,17.66a32.886,32.886,0,0,1-16.5-4.445l2.558-11.936a32.029,32.029,0,0,0,13.763,3.715c9.683,0,9.926-3.958,9.926-6.272s-2.314-4.506-10.535-7.612c-11.875-4.445-14.676-10.84-14.676-17.965,0-11.022,10.535-16.138,20.4-16.138a40.914,40.914,0,0,1,14.25,3.045Z" transform="translate(-141.382 -16.346)" fill="#1a1d56"/>
    <path id="Path_22" data-name="Path 22" d="M483.006,62.6c0,13.275-11.144,21.679-24.054,21.679-2.192,0-4.2,0-6.029-.183v17.965H440.5V43.779a79.689,79.689,0,0,1,18.634-1.888C470.218,41.891,483.006,47.25,483.006,62.6Zm-12.788,0c0-5.846-4.994-8.282-11.022-8.282a35.881,35.881,0,0,0-6.211.67v16.5c1.888,0,3.9.183,6.029.183C466.5,71.791,470.218,67.894,470.218,62.6Z" transform="translate(-172.235 -16.376)" fill="#1a1d56"/>
    <path id="Path_23" data-name="Path 23" d="M53.726,81.361A37.233,37.233,0,0,1,46.175,94.15a36.326,36.326,0,0,1-12.118,8.586A39.269,39.269,0,0,1,21.024,88.06a10.711,10.711,0,0,0,2.253-.487,21,21,0,0,0,8.282-4.019,17.766,17.766,0,0,0,4.263-5.481A24.426,24.426,0,0,0,38.2,70.4H.38a48.792,48.792,0,0,0,42.81,54.2,50.872,50.872,0,0,0,12.545-.122V73.932A53.636,53.636,0,0,1,53.726,81.361Z" transform="translate(0 -27.529)" fill="#39abe2"/>
    <path id="Path_24" data-name="Path 24" d="M48.791,0A48.583,48.583,0,0,0,.5,42.749H17.977a31.852,31.852,0,0,1,9.8-17.538H73.333V68.874a31.433,31.433,0,0,1-17.6,10.657V96.765A48.624,48.624,0,0,0,48.791,0Z" transform="translate(-0.18 0)" fill="#1a1d56"/>
    <path id="Path_25" data-name="Path 25" d="M630.53,50.58v6.151a7.153,7.153,0,0,1-5.785,2.74,8.656,8.656,0,0,1,0-17.173,7.072,7.072,0,0,1,5.785,2.74L628.824,46.5a5.018,5.018,0,0,0-4.019-2.01c-3.41,0-5.115,2.74-5.115,6.333s1.705,6.394,5.115,6.394a5.156,5.156,0,0,0,3.654-1.462V50.763Z" transform="translate(-241.323 -16.539)" fill="#013468"/>
    <path id="Path_26" data-name="Path 26" d="M651.047,52.552a7.266,7.266,0,0,0-2.253-.365,2.729,2.729,0,0,0-2.74,2.74v7.551H643.8V54.561a4.627,4.627,0,0,1,4.689-4.567h.061a7.532,7.532,0,0,1,3.289.609Z" transform="translate(-251.732 -19.546)" fill="#013468"/>
    <path id="Path_27" data-name="Path 27" d="M669.77,61.527a12.04,12.04,0,0,1-5.054,1.157,4.844,4.844,0,0,1-5.115-4.567V50.383l2.253-.183v7.308a2.741,2.741,0,0,0,2.5,2.984h.487A7.336,7.336,0,0,0,667.395,60V50.383l2.253-.183Z" transform="translate(-257.91 -19.63)" fill="#013468"/>
    <path id="Path_28" data-name="Path 28" d="M691.3,56.372A5.9,5.9,0,0,1,686,62.7h-.609a10.6,10.6,0,0,1-2.74-.365v5.054l-2.253.183V51.256a12.042,12.042,0,0,1,5.055-1.157,5.785,5.785,0,0,1,5.907,5.663A2.071,2.071,0,0,0,691.3,56.372Zm-2.375,0a3.757,3.757,0,0,0-3.289-4.141h-.3a5.377,5.377,0,0,0-2.74.67v7.186a6.136,6.136,0,0,0,2.74.548,3.8,3.8,0,0,0,3.593-3.958v-.3Z" transform="translate(-266.043 -19.59)" fill="#013468"/>
    <path id="Path_29" data-name="Path 29" d="M706.149,62.656a6.348,6.348,0,1,1,5.907-6.76v.426a5.9,5.9,0,0,1-5.3,6.333Zm0-10.6c-2.436,0-3.593,2.01-3.593,4.263s1.157,4.2,3.593,4.2,3.532-2.01,3.532-4.263-1.157-4.2-3.532-4.2Z" transform="translate(-273.463 -19.542)" fill="#013468"/>
    <path id="Path_30" data-name="Path 30" d="M627.94,94.19H617.1V77.2h10.779l-.183,2.131h-8.282v5.176h7.795l-.183,2.131h-7.673V92.12h8.708Z" transform="translate(-241.291 -30.188)" fill="#013468"/>
    <path id="Path_31" data-name="Path 31" d="M649.157,93.038a12.042,12.042,0,0,1-5.054,1.157,6.362,6.362,0,0,1,0-12.667,10.594,10.594,0,0,1,2.74.365V77.083L649.1,76.9Zm-4.994-.913a5.377,5.377,0,0,0,2.74-.67V84.269a6.135,6.135,0,0,0-2.74-.548,3.8,3.8,0,0,0-3.654,3.9v.3a3.714,3.714,0,0,0,3.288,4.141A.772.772,0,0,0,644.163,92.124Z" transform="translate(-249.598 -30.071)" fill="#013468"/>
    <path id="Path_32" data-name="Path 32" d="M669.97,96.127a12.042,12.042,0,0,1-5.054,1.157,4.844,4.844,0,0,1-5.115-4.567V84.983l2.253-.183v7.308a2.741,2.741,0,0,0,2.5,2.984h.487a9.273,9.273,0,0,0,2.558-.365V85.1l2.253-.183Z" transform="translate(-257.988 -33.16)" fill="#013468"/>
    <path id="Path_33" data-name="Path 33" d="M689.618,95.376a5.439,5.439,0,0,1-4.385,1.888,6.333,6.333,0,0,1,0-12.667,5.7,5.7,0,0,1,4.324,1.766l-1.583,1.583a3.66,3.66,0,0,0-2.74-1.279,4.272,4.272,0,0,0,0,8.465,3.6,3.6,0,0,0,2.74-1.218Z" transform="translate(-265.457 -33.079)" fill="#013468"/>
    <path id="Path_34" data-name="Path 34" d="M709.487,89.064v7a9.66,9.66,0,0,1-4.506,1.1c-3.775,0-5.481-1.583-5.481-4.263,0-3.288,3.532-3.958,5.481-3.958a9.64,9.64,0,0,1,2.314.3,2.55,2.55,0,0,0-2.436-2.74h-.365a8.353,8.353,0,0,0-2.984.548l-.792-1.705a9.274,9.274,0,0,1,3.836-.853A4.692,4.692,0,0,1,709.426,89Zm-4.506,6.151a6,6,0,0,0,2.314-.426V91.134a7.267,7.267,0,0,0-2.253-.365c-1.34,0-3.41.244-3.41,2.131-.061,1.949,1.1,2.314,3.349,2.314Z" transform="translate(-273.512 -33.039)" fill="#013468"/>
    <path id="Path_35" data-name="Path 35" d="M729.418,95.376a5.438,5.438,0,0,1-4.384,1.888,6.333,6.333,0,1,1,0-12.667,5.7,5.7,0,0,1,4.323,1.766l-1.583,1.583a3.659,3.659,0,0,0-2.74-1.279,4.272,4.272,0,0,0,0,8.465,3.6,3.6,0,0,0,2.74-1.218Z" transform="translate(-281.02 -33.079)" fill="#013468"/>
    <path id="Path_36" data-name="Path 36" d="M740.4,79.6a1.431,1.431,0,1,1,1.462,1.462A1.373,1.373,0,0,1,740.4,79.6Zm2.558,14.92H740.7v-12.3h2.253Z" transform="translate(-289.505 -30.579)" fill="#013468"/>
    <path id="Path_37" data-name="Path 37" d="M753.25,97.156a6.348,6.348,0,1,1,5.907-6.76v.426a5.9,5.9,0,0,1-5.3,6.333A2.03,2.03,0,0,1,753.25,97.156Zm0-10.535c-2.436,0-3.593,2.01-3.593,4.263s1.157,4.2,3.593,4.2,3.532-2.01,3.532-4.263-1.157-4.2-3.532-4.2Z" transform="translate(-291.88 -33.033)" fill="#013468"/>
    <path id="Path_38" data-name="Path 38" d="M781.07,89.06v7.917h-2.253V89.669a2.741,2.741,0,0,0-2.5-2.984h-.426a8.376,8.376,0,0,0-2.74.487v9.8H770.9V85.65a12.042,12.042,0,0,1,5.055-1.157,4.871,4.871,0,0,1,5.115,4.567Z" transform="translate(-301.432 -33.035)" fill="#013468"/>
    <path id="Path_39" data-name="Path 39" d="M801.187,89.064v7a9.659,9.659,0,0,1-4.506,1.1c-3.776,0-5.481-1.583-5.481-4.263,0-3.288,3.532-3.958,5.481-3.958a9.64,9.64,0,0,1,2.314.3,2.55,2.55,0,0,0-2.436-2.74h-.365a8.353,8.353,0,0,0-2.984.548l-.792-1.705a9.275,9.275,0,0,1,3.836-.853A4.692,4.692,0,0,1,801.126,89Zm-4.506,6.151a6,6,0,0,0,2.314-.426V91.134a7.268,7.268,0,0,0-2.253-.365c-1.34,0-3.41.244-3.41,2.131-.061,1.949,1.1,2.314,3.349,2.314Z" transform="translate(-309.37 -33.039)" fill="#013468"/>
    <path id="Path_40" data-name="Path 40" d="M814.324,77V89.606c0,1.705.792,2.314,2.253,2.314a2.621,2.621,0,0,0,.974,0v1.949a2.519,2.519,0,0,1-1.157.3,3.77,3.77,0,0,1-4.324-3.288,1.739,1.739,0,0,1,0-.792V77.3Z" transform="translate(-317.513 -30.11)" fill="#013468"/>
    <path id="Path_41" data-name="Path 41" d="M620.693,120.9h7.429l-.243,3.349h-7.186v7H617.1V113.9h11.631l-.244,3.349h-7.856V120.9Z" transform="translate(-241.291 -44.539)" fill="#013468"/>
    <path id="Path_42" data-name="Path 42" d="M651.992,131.156H640.3V113.8h11.631l-.183,3.167h-7.795v3.654h7.43l-.244,3.349h-7.125v3.654H652.3Z" transform="translate(-250.363 -44.5)" fill="#013468"/>
    <path id="Path_43" data-name="Path 43" d="M672.2,117.719a8.208,8.208,0,0,0-3.167-.67c-1.218,0-2.07.67-2.07,1.4s.365,1.462,3.045,2.558c2.679,1.157,4.019,2.74,4.019,5.115,0,4.141-3.349,5.115-6.516,5.115a9.483,9.483,0,0,1-4.811-1.279l.731-3.471a9.221,9.221,0,0,0,4.019,1.1c2.74,0,2.74-1.157,2.74-1.827s-.67-1.279-3.045-2.192c-3.41-1.279-4.263-3.167-4.263-5.176,0-3.228,3.045-4.689,5.907-4.689a13.559,13.559,0,0,1,4.141.853Z" transform="translate(-259.122 -44.461)" fill="#013468"/>
    <path id="Path_44" data-name="Path 44" d="M697.262,119.666a6.475,6.475,0,0,1-6.7,6.272h-2.071v5.176H684.9v-16.99a20.951,20.951,0,0,1,5.481-.548A6.168,6.168,0,0,1,697.2,119,2.987,2.987,0,0,1,697.262,119.666Zm-3.715,0c0-1.705-1.4-2.375-3.227-2.375a9.3,9.3,0,0,0-1.827.183v4.811h1.766c2.253,0,3.289-1.1,3.289-2.619Z" transform="translate(-267.803 -44.398)" fill="#013468"/>
    <path id="Path_45" data-name="Path 45" d="M564.176,44,541.4,103.07H547L569.717,44Z" transform="translate(-211.69 -17.206)" fill="#013468"/>
  </g>
</svg>
