<?xml version="1.0" encoding="utf-8"?>
<!-- Generator: Adobe Illustrator 24.0.2, SVG Export Plug-In . SVG Version: 6.00 Build 0)  -->
<svg version="1.1" id="Layer_1" xmlns="http://www.w3.org/2000/svg" xmlns:xlink="http://www.w3.org/1999/xlink" x="0px" y="0px"
	 viewBox="0 0 774 292" style="enable-background:new 0 0 774 292;" xml:space="preserve">
<style type="text/css">
	.st0{fill:#345D9D;}
</style>
<g>
	<g>
		<path class="st0" d="M222.5,129.4c0-0.2-0.1-0.5-0.1-0.7l-0.1-0.3c-2.3-14.7-11.6-15.3-14.4-15.2c-0.2,0-0.4,0-0.6,0
			c-3.1,0.3-5.9,1.8-7.6,4.1c-2,2.6-2.7,6-2,9.9c1.1,5.6,1.8,11.1,1.9,15.3c0.2,19.4-7.1,37.7-20.4,51.8
			c-13.3,14-31.2,22.2-50.4,23.2c-1,0-2.1,0.1-3.1,0.1c-19.9,0.2-38.6-7.4-52.8-21.3c-14.2-13.9-22.1-32.5-22.3-52.4
			c-0.2-19.3,7-37.7,20.3-51.8c13.3-14.1,31.1-22.3,50.3-23.3c1,0,2-0.1,3-0.1c7.6-0.2,14.5,1.6,20.7,3.2c5,1.3,9.4,2.5,13.1,2.3
			c4.3-0.2,7.3-2.3,9.6-6.8c1.2-2.8,1.3-5.7,0.2-8.4c-1.4-3.4-4.4-6.3-8.2-7.9c-11.4-4.3-23.3-6.4-35.6-6.3c-1.3,0-2.7,0.1-4,0.1
			c-25.4,1.3-49,12.2-66.5,30.7c-17.5,18.6-27,42.9-26.8,68.4c0.2,26.3,10.7,50.9,29.4,69.3c18.7,18.4,43.5,28.4,69.7,28.1
			c1.3,0,2.7-0.1,4.1-0.1c25.4-1.3,49.1-12.2,66.6-30.7c17.6-18.6,27.1-42.9,26.8-68.4C223.4,137.6,223.1,133.4,222.5,129.4z"/>
		<path class="st0" d="M221.6,52.8c-0.9-1.6-2.1-3.1-3.5-4.3c-1.4-1.1-2.9-2-4.5-2.6c-1.7-0.6-3.4-1-5.2-1c-4.4,0-8.2,1.9-10.8,5.3
			l-72,98l-22.8-29.6l0,0l0,0c-2.7-3.4-6.6-5.3-10.8-5.3c-2,0-3.9,0.4-5.6,1.2c-1.6,0.7-3.1,1.7-4.4,2.9c-1.3,1.3-2.4,2.8-3.1,4.4
			c-0.8,1.7-1.2,3.7-1.2,5.7c0,1.8,0.4,3.5,1.1,5.1c0.5,1,1.1,2,1.7,2.9l0.1,0.1l0.1,0.1l34,43.3c1.5,1.8,3,3.2,4.8,4.1
			c2,1,4,1.5,6.2,1.5c2.3,0,4.5-0.6,6.5-1.7c1.8-1,3.3-2.4,4.6-4L220,67.3c0.9-1.1,1.6-2.3,2.1-3.6c0.6-1.5,0.9-3.1,0.9-4.8
			C223.1,56.7,222.6,54.7,221.6,52.8z"/>
	</g>
	<path class="st0" d="M314.4,180.2c-1.1,1.4-2.3,2.5-3.7,3.3c-1.4,0.8-2.8,1.2-4.3,1.2c-1.5,0-2.8-0.3-4.1-1
		c-1.3-0.7-2.5-1.7-3.6-3.2l-40.3-51.6c-0.6-0.8-1.1-1.6-1.5-2.5c-0.4-0.8-0.6-1.8-0.6-2.8c0-1.4,0.3-2.7,0.8-3.9
		c0.6-1.2,1.3-2.3,2.3-3.2c1-0.9,2.1-1.7,3.3-2.2c1.3-0.6,2.6-0.8,4-0.8c3,0,5.5,1.3,7.5,3.8l32.5,42.5l32.2-42.7
		c1.8-2.4,4.2-3.5,7.3-3.5c1.3,0,2.6,0.2,3.9,0.7c1.3,0.5,2.5,1.2,3.5,2c1.1,0.9,1.9,1.9,2.5,3.1c0.6,1.2,0.9,2.4,0.9,3.8
		c0,1.2-0.2,2.2-0.6,3.2c-0.4,0.9-0.9,1.8-1.6,2.6L314.4,180.2z"/>
	<path class="st0" d="M453.1,174.8c0,6.4-3.5,9.6-10.4,9.6c-6.9,0-10.3-3.2-10.3-9.6v-34.9c0-5.4-6-8.1-18-8.1H384v43
		c0,6.4-3.5,9.6-10.4,9.6c-6.9,0-10.3-3.2-10.3-9.6v-74.4c0-6.3,3.4-9.5,10.3-9.5c6.9,0,10.4,3.2,10.4,9.5v13h26.7
		c28.3,0,42.5,8.8,42.5,26.3V174.8z"/>
	<path class="st0" d="M554.3,161.3c0,15.1-10.4,22.7-31.1,22.7h-54.5c-6.3,0-9.4-3-9.4-9.1c0-6.3,3.1-9.4,9.4-9.4h56.8
		c5.1,0,7.6-1.5,7.6-4.5v1.4c0-2.9-3.1-4.3-9.2-4.3h-30c-22.6,0-33.9-7.3-33.9-21.9v-1.9c0-14.2,10.8-21.2,32.5-21.2h14.9
		c6.4,0,9.6,3.1,9.6,9.3c0,6.1-3.2,9.2-9.6,9.2h-18.2c-5.8,0-8.7,1.3-8.7,3.8v0.4c0,2.7,3.7,4,11.1,4h30.6c21.3,0,32,7.4,32,22.2
		V161.3z"/>
	<path class="st0" d="M751,161.3c0,15.1-10.4,22.7-31.1,22.7h-54.4c-6.3,0-9.4-3-9.4-9.1c0-6.3,3.1-9.4,9.4-9.4h56.8
		c5.1,0,7.6-1.5,7.6-4.5v1.4c0-2.9-3.1-4.3-9.2-4.3h-30c-22.6,0-33.9-7.3-33.9-21.9v-1.9c0-14.2,10.8-21.2,32.5-21.2h14.9
		c6.4,0,9.6,3.1,9.6,9.3c0,6.1-3.2,9.2-9.6,9.2h-18.2c-5.8,0-8.7,1.3-8.7,3.8v0.4c0,2.7,3.7,4,11.1,4H719c21.3,0,32,7.4,32,22.2
		V161.3z"/>
	<path class="st0" d="M649.8,180.5c0,19.8-11.1,29.7-33.2,29.7h-16.2c-6,0-9-3.1-9-9.3c0-6.1,3-9.2,9-9.2h20.1
		c5.7,0,8.9-2.6,9.5-7.7h-31.9c-25.2,0-37.7-8.2-37.7-24.5v-37.2c0-6.3,3.5-9.4,10.4-9.4c6.9,0,10.3,3.1,10.3,9.4v37.2
		c0,4,4.9,6,14.6,6h33.4v-43.1c0-6.3,3.4-9.4,10.2-9.4c6.9,0,10.4,3.1,10.4,9.4V180.5z"/>
</g>
</svg>
