<?xml version="1.0" encoding="utf-8"?>
<!-- Generator: Adobe Illustrator 23.0.1, SVG Export Plug-In . SVG Version: 6.00 Build 0)  -->
<svg version="1.1" id="Camada_1" xmlns="http://www.w3.org/2000/svg" xmlns:xlink="http://www.w3.org/1999/xlink" x="0px" y="0px"
	 viewBox="0 0 249.6 101" style="enable-background:new 0 0 249.6 101;" xml:space="preserve">
<style type="text/css">
	.st0{fill:#2D2D2D;}
</style>
<g>
	<g>
		<g>
			<polygon class="st0" points="218.1,3.2 204.9,57 191.9,3.1 165.6,3.1 191.6,97.3 217.9,97.4 244.4,3.3 			"/>
		</g>
		<g>
			<polygon class="st0" points="60.5,56.5 60.5,56.6 47.5,2.8 8.1,2.7 7.9,96.8 34.1,96.9 34.3,43.1 47.2,97 60.4,97 70.3,97 			"/>
		</g>
		<g>
			<polygon class="st0" points="73.7,2.8 63.2,45.7 74.5,92.8 86.8,43.2 86.6,97.1 112.9,97.1 113.1,2.9 			"/>
		</g>
		<g>
			<path class="st0" d="M160.3,3l-15.7,0l-0.1,55c0,6.7-1.1,11.2-3.4,13.9c-1.9,2.2-4.8,3.9-9,3.8c-6,0-11.6-1.9-13.8-2.7l-0.1,24.2
				c4,0.8,10.7,1.2,16.1,1.2c11.8,0,20.5-2.9,26.6-9c6.7-6.7,9.9-16.8,9.9-31l0-17.4L160.3,3z"/>
		</g>
	</g>
</g>
</svg>
