<svg id="Camada_1" data-name="Camada 1" xmlns="http://www.w3.org/2000/svg" viewBox="0 0 1061.79 392.13"><defs><style>.cls-1{fill:#aebe38;}.cls-2{fill:#0a6b91;}.cls-3{fill:#106d90;}</style></defs><title>Sem título-1</title><path class="cls-1" d="M892.41,202.78c40.67-55.35,111-149.47,121.78-163.37,12.55-16.11,29.4-18.83,44.3-7.87,14.35,10.55,16.77,26.31,4.53,42.8-58.14,78.37-86.84,114.15-145.74,192-15.42,20.38-34.67,19.71-50.89-.5Q832,223,798.79,179.28c-12.61-16.55-10.71-34.16,3.66-44.62s31.41-7.19,44.27,9C861.78,162.7,876.42,182.06,892.41,202.78Z" transform="translate(-9.1 -24.94)"/><path class="cls-2" d="M1032,296.4A25.52,25.52,0,0,0,996.37,302c-.12.17-.22.35-.34.52s-.32.37-.46.57-.27.41-.41.61-.27.31-.4.48-.23.35-.35.52-.32.36-.47.55-.28.41-.42.61-.28.3-.41.47-.23.34-.36.51-.33.35-.48.55-.28.4-.43.59-.28.3-.42.47-.23.34-.36.5-.34.35-.5.54-.28.4-.43.59-.29.3-.43.46-.24.33-.37.5-.35.34-.51.53-.29.39-.44.58-.3.29-.44.45-.25.33-.38.49-.35.34-.51.52-.3.39-.46.57-.3.29-.44.45-.26.32-.39.48-.36.33-.53.52-.3.37-.46.56-.31.28-.45.43-.26.33-.4.48-.36.33-.53.51-.32.37-.48.55l-.46.43c-.14.15-.27.32-.41.47s-.36.32-.54.5-.32.36-.48.54-.32.27-.46.42-.28.31-.42.46-.38.32-.55.49-.33.36-.5.54-.32.26-.47.41-.28.31-.42.46-.38.3-.56.47-.33.36-.5.53-.33.26-.48.4-.29.31-.44.45-.38.3-.56.47-.34.35-.51.52-.33.25-.49.39l-.44.44c-.19.16-.39.3-.57.46s-.35.35-.53.51-.33.25-.49.39-.29.29-.45.43-.39.29-.58.45-.35.34-.53.5-.34.24-.5.38-.3.29-.46.42-.39.28-.58.44-.36.33-.54.49l-.51.37c-.16.13-.3.28-.46.42s-.4.27-.6.42l-.55.49-.51.36-.47.41c-.2.14-.41.26-.6.41s-.37.32-.56.48-.35.22-.52.35-.31.27-.47.4-.42.26-.62.4l-.56.47c-.17.12-.35.21-.52.34s-.32.26-.49.39-.42.25-.62.39-.38.31-.57.46-.36.21-.53.33-.32.26-.49.38-.42.25-.63.39-.38.3-.58.44-.36.21-.53.33-.33.25-.5.37-.43.24-.63.37-.39.3-.59.44-.37.2-.54.31-.33.25-.51.37-.42.23-.63.36-.4.28-.6.42-.37.19-.55.31-.33.24-.51.35-.43.22-.64.35-.4.28-.6.42-.37.18-.55.29-.35.24-.52.35-.44.21-.65.34-.4.27-.61.4-.38.18-.56.29-.34.23-.52.34-.44.2-.66.32-.41.27-.61.39l-.57.28c-.18.1-.34.22-.53.33s-.44.2-.66.32-.41.25-.62.38-.38.16-.57.26l-.53.32c-.22.11-.45.19-.67.31s-.41.25-.63.37l-.57.25-.54.31c-.22.11-.45.19-.67.3s-.42.24-.64.36-.39.15-.57.24-.36.21-.55.3l-.68.28c-.22.11-.42.24-.64.35s-.39.15-.58.24-.36.2-.55.29-.46.17-.68.27-.43.23-.65.34l-.58.22-.56.28c-.23.09-.46.16-.69.26s-.43.22-.65.33l-.59.21c-.19.08-.37.19-.56.27l-.69.25c-.23.09-.44.21-.66.31s-.39.13-.59.21-.37.18-.57.26-.46.14-.69.23-.44.21-.67.31l-.59.19-.57.25c-.23.08-.47.14-.7.23s-.44.19-.67.29-.4.11-.6.18-.38.17-.57.24-.47.13-.7.21-.45.19-.68.28-.4.1-.6.17-.38.16-.58.24l-.71.19c-.23.08-.45.19-.68.27l-.6.16-.58.23c-.24.06-.48.11-.71.18s-.46.18-.69.26l-.6.15c-.2.06-.39.14-.59.21s-.47.1-.71.17-.46.17-.69.25-.41.08-.61.14-.39.14-.59.2-.48.09-.72.16-.46.16-.69.23l-.61.13-.6.19c-.23.06-.47.09-.71.15s-.47.15-.7.22-.41.07-.61.12-.4.12-.6.18-.48.08-.72.14-.47.14-.7.2-.41.06-.62.11l-.6.17-.72.12-.7.2c-.21,0-.41.05-.62.1s-.4.11-.61.16-.48.06-.72.11-.47.12-.71.18-.41.05-.61.09-.41.1-.61.15-.49.05-.73.09l-.71.17c-.21,0-.41,0-.62.08l-.61.14c-.24,0-.48,0-.72.08l-.72.16-.62.07c-.21,0-.41.09-.61.13s-.49,0-.73.07-.48.1-.72.14l-.62.06c-.21,0-.41.08-.61.12s-.49,0-.73.06-.48.09-.72.13l-.63,0-.61.11c-.25,0-.48,0-.73,0s-.48.08-.72.12-.42,0-.63,0-.41.07-.61.1-.49,0-.73,0-.49.08-.73.11-.41,0-.62,0l-.62.08c-.25,0-.49,0-.73,0s-.49.07-.73.1h-.62l-.62.08c-.25,0-.49,0-.74,0l-.72.09h-.63c-.21,0-.41,0-.62.06s-.48,0-.73,0-.48.05-.73.06-.41,0-.62,0l-.63.06c-.24,0-.48,0-.73,0l-.73.06c-.21,0-.41,0-.62,0s-.41,0-.62,0-.49,0-.74,0-.48,0-.73,0-.41,0-.62,0-.41,0-.63,0-.48,0-.72,0-.49,0-.74,0-.41,0-.62,0-.41,0-.62,0l-.73-.06c-.25,0-.49,0-.74,0s-.41-.05-.62-.06-.41,0-.62,0-.48-.05-.73-.06-.49,0-.73,0-.41-.05-.62-.06h-.63c-.24,0-.48-.07-.73-.09s-.48,0-.73,0l-.62-.08h-.62c-.24,0-.48-.08-.73-.1s-.48,0-.73,0l-.62-.08c-.21,0-.41,0-.62,0s-.48-.09-.73-.11-.48,0-.73,0-.4-.08-.61-.1-.42,0-.63,0-.47-.1-.72-.12-.49,0-.73,0l-.62-.11-.62,0c-.24,0-.47-.1-.72-.13s-.48,0-.73-.06-.4-.09-.61-.12l-.62-.06c-.24,0-.48-.11-.72-.14s-.48,0-.73-.07-.4-.1-.61-.13l-.62-.07-.71-.16c-.25,0-.49-.05-.73-.08l-.61-.14c-.21,0-.41,0-.62-.08l-.71-.17c-.25,0-.49-.05-.73-.09s-.4-.11-.6-.15l-.62-.09c-.24-.06-.47-.13-.71-.18s-.48-.07-.73-.11-.39-.12-.6-.16-.41-.06-.61-.1l-.71-.2-.72-.12-.6-.17c-.21-.05-.41-.07-.62-.11s-.46-.15-.7-.2-.48-.09-.72-.14-.39-.13-.6-.18-.41-.08-.61-.12-.46-.16-.7-.22l-.72-.15-.59-.19-.61-.13c-.23-.07-.46-.17-.7-.23s-.47-.1-.71-.16-.39-.15-.59-.2-.41-.09-.61-.14-.45-.18-.69-.25-.47-.11-.71-.17-.39-.15-.59-.21l-.6-.15c-.23-.08-.45-.19-.69-.26l-.71-.18-.58-.23-.6-.16c-.23-.08-.45-.19-.69-.27l-.7-.19c-.2-.08-.38-.17-.58-.24s-.4-.11-.6-.17-.44-.2-.68-.28-.46-.13-.7-.21l-.57-.24c-.2-.07-.4-.12-.6-.18s-.44-.21-.67-.29-.47-.15-.7-.23l-.57-.25-.59-.19c-.23-.1-.44-.22-.67-.31s-.46-.15-.69-.23-.38-.18-.57-.26l-.59-.21c-.22-.1-.43-.22-.66-.31l-.69-.25c-.19-.08-.37-.19-.56-.27l-.59-.21c-.22-.11-.43-.23-.65-.33s-.46-.17-.69-.26-.36-.19-.56-.28l-.58-.22c-.22-.11-.42-.24-.65-.34s-.46-.17-.68-.27-.36-.2-.55-.29-.39-.15-.58-.24-.42-.24-.64-.35l-.68-.28c-.19-.09-.36-.21-.55-.3l-.57-.24c-.22-.12-.42-.25-.64-.36s-.45-.19-.67-.3l-.54-.31-.57-.25c-.21-.12-.41-.26-.63-.37s-.45-.2-.67-.31l-.53-.32c-.19-.1-.38-.17-.57-.26s-.41-.27-.62-.38-.44-.21-.66-.32-.35-.23-.53-.33l-.56-.28c-.21-.12-.41-.27-.62-.39l-.66-.33c-.18-.1-.34-.23-.52-.33s-.37-.19-.56-.29-.4-.28-.61-.4-.43-.22-.65-.34-.34-.24-.52-.35-.36-.19-.55-.29-.39-.29-.6-.42-.43-.23-.64-.35-.34-.24-.52-.35-.36-.2-.54-.31-.39-.29-.6-.42-.42-.24-.63-.36-.33-.25-.51-.37l-.54-.31c-.2-.14-.38-.3-.59-.44l-.63-.37c-.17-.12-.32-.26-.5-.37s-.36-.21-.53-.33-.38-.3-.59-.44-.41-.25-.62-.39-.32-.26-.49-.38-.36-.22-.53-.33-.37-.31-.57-.46-.42-.25-.62-.39-.32-.27-.49-.39-.35-.22-.52-.34-.37-.32-.57-.47-.4-.26-.6-.4-.32-.28-.48-.4-.35-.23-.52-.35-.36-.33-.56-.48-.4-.27-.6-.41l-.47-.41-.51-.36-.55-.49c-.2-.15-.4-.27-.6-.42s-.3-.29-.46-.42l-.51-.37c-.18-.16-.35-.33-.54-.49s-.39-.29-.59-.44-.29-.29-.45-.42-.34-.25-.5-.38l-.53-.5c-.19-.16-.39-.29-.58-.45s-.29-.29-.45-.43-.33-.25-.49-.39-.34-.34-.53-.51-.38-.3-.57-.46l-.44-.44c-.16-.14-.33-.25-.48-.39s-.34-.35-.52-.52-.38-.31-.57-.47l-.43-.45c-.15-.14-.32-.26-.48-.4s-.32-.36-.5-.53-.38-.31-.56-.47-.27-.31-.42-.46-.32-.27-.47-.41-.32-.37-.5-.54l-.55-.49c-.14-.15-.27-.31-.42-.46s-.31-.27-.46-.42-.31-.37-.49-.54-.36-.33-.53-.5-.27-.32-.41-.47l-.46-.43c-.17-.18-.31-.37-.48-.55s-.35-.34-.53-.51-.25-.32-.4-.48-.3-.28-.45-.43-.3-.38-.46-.56-.36-.34-.53-.52-.25-.33-.39-.48-.3-.29-.44-.44-.29-.39-.46-.58-.34-.34-.51-.52l-.38-.49c-.14-.16-.29-.3-.44-.45s-.28-.39-.44-.58-.34-.35-.51-.53-.24-.34-.37-.5-.29-.3-.43-.46-.28-.4-.43-.59-.34-.35-.5-.54-.23-.34-.37-.5-.28-.31-.41-.47-.27-.4-.43-.59-.33-.36-.48-.55-.23-.35-.36-.51-.28-.31-.41-.47-.27-.41-.42-.61-.32-.36-.47-.55l-.35-.52c-.13-.17-.27-.31-.4-.48s-.26-.41-.41-.61-.31-.37-.46-.57-.22-.35-.34-.52-.27-.32-.39-.48-.26-.42-.4-.62-.31-.38-.45-.57-.21-.36-.33-.53-.26-.33-.39-.5-.24-.42-.38-.62-.3-.38-.45-.58-.2-.36-.32-.54-.25-.32-.37-.49-.24-.43-.38-.63-.29-.39-.43-.59-.2-.37-.32-.54-.24-.34-.36-.51-.23-.43-.36-.64-.29-.39-.43-.59-.19-.37-.3-.55-.24-.34-.36-.51-.22-.43-.35-.64-.28-.4-.41-.61-.19-.37-.3-.55-.23-.34-.34-.52-.22-.43-.34-.65-.28-.4-.41-.61-.18-.37-.28-.55l-.34-.53c-.11-.21-.21-.44-.33-.65s-.26-.41-.39-.62-.17-.38-.28-.56-.22-.35-.32-.53-.2-.44-.32-.66-.26-.41-.38-.63-.17-.38-.27-.56-.21-.35-.32-.54-.19-.44-.3-.66-.25-.42-.37-.63-.16-.39-.26-.57-.21-.36-.31-.54-.18-.45-.29-.68-.25-.42-.36-.63-.15-.39-.25-.58-.2-.36-.3-.54-.17-.46-.28-.68-.24-.43-.35-.64-.14-.39-.23-.58-.2-.37-.29-.55-.17-.46-.27-.68-.23-.43-.34-.65-.14-.39-.22-.59-.2-.37-.29-.55-.16-.46-.25-.69-.23-.43-.33-.66-.13-.39-.22-.58-.18-.37-.27-.56-.15-.46-.24-.69-.22-.44-.32-.66-.12-.4-.2-.59-.18-.38-.27-.57-.14-.46-.23-.69-.2-.45-.3-.67-.12-.4-.19-.59-.18-.38-.26-.57-.13-.47-.22-.7-.2-.45-.29-.67-.11-.4-.18-.6-.17-.38-.25-.58-.12-.47-.21-.7-.19-.45-.27-.68-.11-.4-.18-.59-.16-.39-.23-.58-.12-.48-.2-.71-.18-.45-.26-.68-.1-.4-.17-.6-.15-.39-.22-.59-.11-.47-.18-.71-.18-.45-.26-.68-.09-.41-.15-.61-.15-.39-.21-.58-.11-.48-.18-.72-.16-.45-.24-.69-.08-.4-.14-.6-.14-.4-.2-.6-.1-.47-.16-.71-.16-.46-.23-.69-.08-.41-.14-.61-.13-.4-.19-.6-.08-.48-.15-.72-.15-.46-.21-.7-.07-.4-.12-.61-.13-.39-.19-.59-.07-.48-.13-.72-.14-.47-.21-.71-.06-.41-.11-.61a5.9,5.9,0,0,0-.17-.6c0-.24-.07-.48-.12-.72s-.13-.47-.19-.71-.06-.41-.1-.62-.11-.4-.16-.6-.06-.48-.11-.72-.13-.47-.18-.71,0-.41-.09-.62-.11-.4-.15-.61,0-.48-.1-.72-.12-.47-.17-.71,0-.42-.08-.62a6,6,0,0,0-.14-.61c0-.24,0-.49-.08-.73s-.11-.47-.16-.71,0-.42-.06-.63-.09-.4-.13-.61,0-.48-.07-.72-.1-.48-.15-.72,0-.42,0-.62-.09-.41-.12-.62,0-.48-.06-.73-.09-.48-.13-.72,0-.41,0-.62-.07-.41-.1-.61,0-.49,0-.74-.09-.48-.12-.72,0-.41,0-.62-.07-.41-.1-.62,0-.48,0-.73-.08-.48-.11-.72,0-.42,0-.63-.07-.41-.09-.62,0-.48,0-.73-.07-.48-.09-.72,0-.42,0-.63-.05-.41-.07-.62,0-.48,0-.73-.06-.48-.08-.73,0-.41,0-.62-.05-.41-.07-.62,0-.49,0-.73,0-.49-.07-.73,0-.42,0-.63,0-.41-.05-.62,0-.48,0-.73,0-.49-.06-.73,0-.42,0-.63,0-.41,0-.62,0-.48,0-.73,0-.49,0-.73,0-.41,0-.62,0-.42,0-.63,0-.48,0-.73,0-.49,0-.73,0-.41,0-.62,0-.42,0-.63,0-.48.06-.73,0-.48,0-.73,0-.41.05-.62,0-.42,0-.62.06-.49.07-.73,0-.49,0-.74.06-.41.07-.62,0-.41,0-.62.07-.48.08-.73,0-.49,0-.73.06-.41.07-.62,0-.42,0-.62.07-.48.09-.73,0-.49,0-.73.07-.41.09-.62,0-.42,0-.63.08-.47.11-.72,0-.49,0-.73.08-.41.1-.62,0-.41,0-.62.09-.48.12-.72,0-.49,0-.73.08-.41.1-.62,0-.41,0-.62.1-.48.13-.72,0-.49.06-.73.09-.41.12-.61,0-.42,0-.63.11-.47.15-.71,0-.49.07-.73.1-.41.13-.61,0-.42.06-.62.12-.48.16-.72,0-.48.08-.73.11-.4.14-.6,0-.42.08-.63.13-.46.17-.71.06-.48.1-.72.11-.4.15-.61,0-.41.09-.62.13-.46.18-.71.07-.48.11-.72.11-.4.16-.6.06-.41.1-.62.14-.46.19-.71.08-.48.12-.72a5.9,5.9,0,0,0,.17-.6c0-.2.07-.41.11-.61s.15-.46.21-.7.08-.48.13-.72.13-.4.19-.6.07-.41.12-.61.15-.46.21-.7.1-.48.15-.72.14-.39.19-.59.09-.41.14-.61.16-.46.23-.7.1-.48.16-.71.14-.39.2-.59.09-.41.14-.61.17-.46.24-.69.11-.48.18-.72.15-.38.21-.58.09-.4.15-.61.18-.45.26-.68.11-.48.18-.71.16-.38.22-.58.11-.41.17-.61.19-.45.26-.68.13-.47.2-.7.16-.38.23-.58.11-.4.18-.6.19-.45.27-.68.14-.47.21-.7.17-.38.25-.58.11-.4.18-.59.2-.44.29-.68.14-.46.22-.69.18-.38.26-.57.12-.4.19-.6.21-.43.3-.66.15-.47.23-.7.19-.37.27-.56a25.52,25.52,0,0,0-47.33-19.13c-.13.31-.21.63-.32.94s-.24.48-.34.74-.17.51-.26.77-.28.59-.4.9-.2.63-.31.94-.22.49-.32.75-.16.52-.25.78-.27.59-.38.9-.19.63-.29.95-.22.49-.31.75-.15.52-.23.78-.26.6-.37.92-.18.63-.28.94-.2.5-.29.76-.14.53-.22.79-.25.61-.36.92-.16.64-.25.95-.2.51-.29.77-.13.52-.2.79-.24.61-.34.92-.15.64-.24,1-.19.51-.27.77-.12.53-.19.79-.23.62-.32.94-.14.64-.22,1-.19.51-.26.77-.11.53-.18.8-.22.61-.3.93-.13.65-.21,1-.17.51-.24.78-.11.53-.17.8-.2.62-.28.94-.12.64-.19,1-.17.51-.23.78-.1.53-.15.8-.2.63-.27.95-.12.65-.18,1-.15.52-.21.79-.09.53-.14.8-.18.63-.25,1-.1.65-.16,1-.15.52-.2.79-.08.54-.12.8-.18.64-.24,1-.09.65-.14,1-.14.52-.19.79-.06.54-.11.81-.16.63-.21,1-.08.65-.13,1-.13.52-.17.8-.06.54-.1.81-.15.63-.2,1-.06.65-.1,1-.13.53-.17.8,0,.54-.08.81-.14.64-.18,1-.05.66-.09,1-.11.53-.15.81,0,.54-.06.81-.13.64-.17,1,0,.66-.07,1-.1.54-.13.81,0,.54-.06.81-.11.65-.15,1,0,.65-.05,1-.1.54-.12.81,0,.54,0,.81-.1.65-.13,1,0,.66,0,1-.08.54-.1.81,0,.55,0,.82-.09.65-.12,1,0,.65,0,1-.07.54-.09.81,0,.55,0,.82-.09.65-.11,1,0,.66,0,1-.06.53-.07.81,0,.54,0,.81-.07.66-.08,1,0,.65,0,1-.05.54-.06.82,0,.54,0,.81-.06.65-.07,1,0,.65,0,1,0,.54,0,.82,0,.54,0,.81-.05.65-.05,1,0,.65.05,1,0,.54,0,.82,0,.54,0,.81,0,.65,0,1,0,.65.07,1,0,.54,0,.81.05.54.06.82,0,.65,0,1,.06.66.08,1,0,.54,0,.81.05.54.07.81,0,.66,0,1,.07.65.11,1,0,.54,0,.82.07.54.09.81,0,.65,0,1,.09.65.12,1,0,.54,0,.82.07.54.1.81,0,.65,0,1,.09.65.13,1,0,.54,0,.81.08.54.12.81,0,.65.05,1,.11.65.15,1,0,.54.06.81.09.54.13.81,0,.65.07,1,.11.65.17,1,0,.54.06.82.11.53.15.8,0,.65.09,1,.13.64.18,1,0,.54.08.81.12.53.17.8,0,.65.1,1,.14.64.2,1,.05.54.1.82.12.52.17.79.07.65.13,1,.15.64.21,1,.06.54.11.81.13.53.19.79.08.65.14,1,.16.64.24,1,.06.53.12.8.14.53.2.79.09.65.16,1,.17.63.25,1,.08.54.14.8.15.53.21.79.1.65.18,1,.18.63.27,1,.08.53.15.8.16.52.23.78.11.65.19,1,.19.63.28,1,.1.53.17.79.17.52.24.78.12.65.21,1,.2.62.3.94.11.53.18.79.18.51.26.77.13.65.22,1,.22.61.32.93.12.53.19.79.19.51.27.77.15.64.24,1,.23.61.34.92.12.53.2.79.2.51.29.77.15.63.25.95.24.61.36.92.13.53.22.79.2.5.29.76.17.63.28.94.25.61.37.92.14.52.23.78.21.5.31.75.18.63.29.95.26.6.38.91.15.52.25.77.22.5.32.75.19.63.31.94.27.6.4.9.16.52.26.77.23.49.34.75.19.62.32.93.28.59.42.89.16.52.27.77.24.49.35.74.21.62.34.92.29.59.43.89.18.51.29.76.24.49.36.73.22.62.35.92.3.59.45.88.18.51.3.76.25.48.37.73.24.61.38.91.31.58.46.87.19.51.31.75.26.48.39.72.24.61.39.91.32.57.47.86.21.5.33.75.27.47.4.71.25.6.4.9.33.57.49.85.21.5.34.75.28.46.42.7.26.6.41.89.34.56.51.85.22.49.35.74.29.46.43.69.27.6.43.89.35.55.52.83.23.49.37.73.29.46.43.69.29.59.45.88.36.55.54.83.24.48.38.72.3.45.44.68.3.59.47.87.37.54.55.82.25.48.39.72.31.44.46.67.31.58.48.86.38.54.57.81.25.48.4.71.32.44.47.66.31.58.49.86.39.53.58.79.27.48.42.71.32.43.48.65.33.57.51.85.4.52.59.79.28.47.43.69.34.43.5.65.33.56.52.83.41.52.61.78.28.47.44.69.34.42.5.64.35.56.54.83.42.5.62.76.29.46.45.68.35.42.52.63.35.55.55.82.43.5.64.76.29.45.46.67.35.41.53.62.36.54.56.8.44.5.65.75.3.45.47.66.37.41.54.61.37.54.58.8.44.49.66.74.32.44.49.65.37.4.55.6.38.54.6.79.44.48.67.72.31.44.49.65.38.39.56.59.39.53.61.78.46.47.69.71.32.43.5.63.39.39.57.59.4.52.63.76.46.47.69.7.34.43.52.63.39.38.58.57.41.51.64.76.47.45.71.68.34.42.53.62.39.37.59.57.42.5.65.74.48.44.72.67.35.42.54.61.4.37.6.55.43.5.66.74.49.43.73.66.36.4.55.6.41.35.61.54.44.49.68.72.49.43.74.65.36.4.56.59.42.35.62.53.45.48.69.71.5.42.75.63.37.4.58.58.42.34.62.52.46.48.7.7.51.41.77.62.38.39.58.57.43.34.64.51.46.47.71.68.52.41.77.61.39.38.6.56.43.33.64.5.47.46.73.67.52.39.78.6.39.37.6.55l.66.48c.25.22.47.45.73.66s.54.38.8.58.4.37.61.54.44.31.66.48.49.44.75.64.54.38.81.57.4.36.62.53l.67.46c.26.21.49.43.76.63s.54.37.81.56.41.35.63.51.46.3.68.46.5.42.77.61.55.36.83.54.41.35.64.51.46.29.68.44.51.41.78.6.56.35.83.53.43.34.65.49.47.28.7.43.51.41.79.59.56.34.84.51.43.34.66.49.47.27.7.41.52.4.8.58.57.33.85.49.44.33.67.48.47.26.71.4.52.39.8.56.58.32.87.48.43.32.67.46.48.26.72.39.53.38.81.56.58.3.88.46.44.31.67.45.49.25.73.38.54.37.83.53.58.3.87.45.45.3.69.44.49.24.73.36.55.36.84.52.59.29.88.44.46.29.7.42.49.23.74.36.55.35.84.5.6.28.89.42.46.29.71.41.5.22.74.34.56.34.85.49.61.27.9.41.47.27.71.4.5.21.75.32.57.33.87.48.6.25.9.39.47.27.72.39l.75.31c.3.15.58.32.88.46s.61.24.91.37.47.26.72.38.51.19.76.3.58.31.88.44.62.24.92.36.48.25.73.36.51.19.76.29.59.3.89.43.62.22.93.34l.73.35c.26.1.52.17.77.27s.59.29.9.42.62.21.93.32l.74.34c.26.1.52.16.77.26s.6.28.91.4l.93.3.75.33c.26.09.52.15.78.24s.6.27.91.39.63.19.94.29l.75.31c.26.09.53.15.79.23s.6.26.91.37.63.18,1,.27.5.21.76.3.52.14.79.22.6.25.92.35.63.17.95.26.5.2.76.28.53.13.79.21.61.23.93.33.64.16,1,.24.51.2.77.27.53.13.8.2.61.22.93.31.64.15,1,.23l.77.26c.27.07.53.11.8.17s.62.22.94.31.64.13,1,.2.52.18.78.25.53.1.8.16.62.21.94.29.65.12,1,.19l.78.23.81.15c.32.08.62.19.94.27s.65.11,1,.17.52.16.79.22.54.08.8.13.63.19,1,.26.65.1,1,.15.52.15.79.21l.81.12c.32.07.63.17,1,.23s.65.09,1,.14.52.14.79.19.54.07.82.11.63.16,1,.22.65.08,1,.12.53.13.8.18l.81.09c.32.07.64.15,1,.2s.66.07,1,.11.52.12.8.16.54,0,.81.08.64.14,1,.19.65.05,1,.08.53.12.8.15.54,0,.81.07.65.13,1,.17.66,0,1,.07.53.1.8.13.54,0,.82,0,.64.12,1,.15.66,0,1,.06.54.09.81.12l.82,0c.33.05.64.11,1,.14s.65,0,1,0,.53.08.81.1.54,0,.82,0,.64.1,1,.12.66,0,1,0,.53.07.81.09.54,0,.81,0,.65.08,1,.1.65,0,1,0,.54.07.81.08.55,0,.82,0,.65.08,1,.09.66,0,1,0,.54.06.81.07l.82,0c.33,0,.65.06,1,.06s.65,0,1,0,.53.05.81.05.54,0,.82,0,.65.05,1,.05.65,0,1-.05.54,0,.82,0,.54,0,.81-.05.66,0,1,0,.65,0,1-.06l.82,0c.27,0,.54-.05.81-.07s.66,0,1,0,.65-.06,1-.09.54,0,.82,0,.54-.06.81-.08.65,0,1,0,.65-.07,1-.1.55,0,.82,0l.81-.09c.33,0,.66,0,1,0s.65-.08,1-.12.54,0,.81,0,.54-.07.81-.1.65,0,1,0,.65-.09,1-.14l.82,0c.27,0,.53-.09.8-.12s.66,0,1-.06.65-.1,1-.15.54,0,.82,0,.53-.09.8-.13.65,0,1-.07.64-.12,1-.17.55,0,.82-.07.53-.1.8-.15.66,0,1-.08.64-.13,1-.19.54,0,.81-.08.53-.11.8-.16.65-.05,1-.11.65-.13,1-.2l.81-.09c.27-.05.53-.12.8-.18s.65-.06,1-.12.64-.15,1-.22.53-.06.8-.11.53-.13.8-.19.65-.07,1-.14.64-.16,1-.23l.81-.12c.27-.06.52-.14.79-.21s.65-.08,1-.15.64-.18.95-.26.54-.07.81-.13.52-.15.79-.22.64-.1,1-.17.63-.19.94-.27.54-.09.8-.15l.79-.23c.32-.07.64-.11,1-.19s.62-.2.94-.29.53-.09.8-.16.51-.17.78-.25.64-.12,1-.2.63-.21.94-.31.53-.1.79-.17.52-.18.78-.26.64-.13,1-.23.62-.21.93-.31.53-.12.8-.2.51-.18.77-.27.63-.14,1-.24.62-.23.93-.33.52-.13.79-.21.5-.19.76-.28.64-.16.95-.26.61-.24.93-.35.52-.13.78-.22.51-.2.76-.3.63-.16,1-.27.61-.25.91-.37.52-.14.78-.23l.76-.31c.31-.1.63-.18.94-.29s.6-.26.91-.39.52-.15.78-.24.49-.22.74-.33.63-.19.94-.3.6-.27.91-.4.51-.16.77-.26l.74-.34c.31-.11.62-.2.93-.32s.6-.28.9-.42.51-.17.76-.27.49-.24.74-.35.62-.21.93-.34.59-.29.89-.43.51-.18.76-.29.48-.24.73-.36.62-.22.92-.36.58-.3.88-.44.51-.19.76-.3.47-.26.72-.38.61-.23.91-.37.58-.31.87-.46l.76-.31c.25-.12.48-.27.72-.39s.6-.24.9-.39.58-.32.87-.48.5-.2.74-.32.47-.27.71-.4.61-.25.9-.41.57-.33.86-.49.5-.21.74-.34.47-.28.71-.41.6-.26.89-.42.56-.34.84-.5.5-.23.74-.36.46-.28.69-.42.6-.27.89-.44.56-.35.84-.52.49-.23.73-.36.45-.3.69-.44.59-.28.87-.45.55-.36.83-.53.49-.24.72-.38.45-.3.69-.45.58-.29.86-.46.55-.37.83-.56.47-.24.71-.39.45-.31.67-.46.58-.3.86-.48.54-.37.81-.56.48-.26.71-.4.44-.32.67-.47.57-.32.85-.5.53-.39.8-.58.47-.26.7-.41.43-.33.66-.49.57-.32.84-.51.53-.39.79-.59.47-.27.7-.43.42-.33.64-.49.57-.33.84-.53.51-.4.78-.6.46-.28.68-.44.43-.34.65-.51.55-.34.82-.54.51-.41.77-.61.46-.29.68-.46.41-.34.63-.51.55-.36.81-.56.5-.42.76-.63l.67-.46c.22-.17.41-.36.62-.53s.55-.36.81-.57.49-.43.74-.64.45-.31.67-.48.4-.36.61-.54.54-.37.8-.58.48-.44.73-.66l.66-.48c.21-.18.39-.37.6-.55s.53-.38.78-.6.48-.45.73-.67.43-.32.64-.5.39-.37.6-.56.52-.39.77-.61.47-.45.71-.68.43-.33.64-.51.38-.38.58-.57.52-.4.77-.62.46-.47.7-.7.42-.33.62-.52.38-.39.58-.58.51-.41.75-.63.45-.48.69-.71.42-.34.62-.53.37-.4.56-.59.5-.42.74-.65.45-.48.68-.72.41-.35.61-.54.36-.41.55-.6.49-.43.73-.66.44-.49.66-.74.41-.35.6-.55.36-.41.54-.61.49-.43.72-.67.43-.5.65-.74.4-.37.59-.57.35-.41.53-.62.48-.44.71-.68.42-.51.63-.76.4-.37.59-.57.34-.42.52-.63.47-.45.69-.7.41-.51.62-.76.39-.38.57-.59.34-.42.51-.63.47-.46.69-.71.4-.52.61-.78.38-.38.56-.59.32-.43.49-.65.46-.47.68-.72.39-.53.59-.79.37-.39.55-.6.32-.44.49-.65.45-.48.65-.74.39-.53.59-.8.37-.39.54-.61.31-.44.47-.66.44-.48.65-.75.37-.53.56-.8.36-.4.53-.62.3-.45.47-.67.43-.5.63-.76.36-.55.55-.82.35-.41.52-.63.29-.45.45-.68.42-.5.62-.76A25.53,25.53,0,0,0,1032,296.4Z" transform="translate(-9.1 -24.94)"/><path class="cls-3" d="M111.19,180.82a14.64,14.64,0,0,0-12.06,9.35L68.57,267.42,38,190.17a14.63,14.63,0,0,0-13.63-9.44,15.07,15.07,0,0,0-15.24,14,15.67,15.67,0,0,0,1.09,6.84L54.67,302.15a15.11,15.11,0,0,0,27.79,0l44.46-100.59a15.57,15.57,0,0,0,1.1-5.4A15.29,15.29,0,0,0,111.19,180.82Z" transform="translate(-9.1 -24.94)"/><path class="cls-3" d="M210.83,179.06c-18.62,0-30.29,8.61-35.57,16.67V141.28a15,15,0,0,0-30,0V296.87c0,8.33,6.39,14.45,15,14.45s15-6.12,15-14.45v-62c0-16.4,7-28.62,27.79-28.62,18.06,0,24.45,10.83,24.45,26.67v63.91c0,8.33,6.11,14.45,15,14.45,8.34,0,15-6.12,15-14.45V227.4C257.51,203.23,248.62,179.06,210.83,179.06Z" transform="translate(-9.1 -24.94)"/><path class="cls-3" d="M330,238.25c-18.22-6.3-35.42-12.25-35.42-28.07,0-18.52,18.74-21.29,29.9-21.29,14.63,0,24.64,4.05,34.56,14a5.66,5.66,0,0,0,4.34,1.88,6.31,6.31,0,0,0,6.22-6.22,6.74,6.74,0,0,0-1.77-4.52c-10.38-11.64-25-17.54-43.35-17.54-26.8,0-43.45,12.92-43.45,33.73,0,24.91,23.63,33.23,44.49,40.58,18,6.34,35,12.33,35,27.49,0,21.42-21.86,24.62-34.9,24.62-18,0-30-4.89-40.39-16.46a6,6,0,0,0-4.34-1.88,6.31,6.31,0,0,0-6.22,6.23,6.47,6.47,0,0,0,1.61,4.31c7.33,10.08,25.43,20.25,49.34,20.25,30.35,0,48.46-13.86,48.46-37.07C374,253.5,350.64,245.4,330,238.25Z" transform="translate(-9.1 -24.94)"/><path class="cls-3" d="M559.77,238.25c-18.21-6.3-35.41-12.25-35.41-28.07,0-18.52,18.73-21.29,29.89-21.29,14.63,0,24.64,4.05,34.56,14a5.67,5.67,0,0,0,4.34,1.88,6.31,6.31,0,0,0,6.23-6.22A6.75,6.75,0,0,0,597.6,194c-10.38-11.64-25-17.54-43.35-17.54-26.8,0-43.45,12.92-43.45,33.73,0,24.91,23.64,33.23,44.49,40.58,18,6.34,35,12.33,35,27.49,0,21.42-21.87,24.62-34.9,24.62-18,0-30-4.89-40.39-16.46a6,6,0,0,0-4.35-1.88,6.31,6.31,0,0,0-6.22,6.23,6.47,6.47,0,0,0,1.61,4.31c7.33,10.08,25.43,20.25,49.35,20.25,30.34,0,48.45-13.86,48.45-37.07C603.82,253.5,580.42,245.4,559.77,238.25Z" transform="translate(-9.1 -24.94)"/><path class="cls-3" d="M490.63,178.11a6.7,6.7,0,0,0-6.34,4.48l-24.07,59.66-20.16,48.64L396.41,182.68a6.71,6.71,0,0,0-6.37-4.57,6.88,6.88,0,0,0-6.78,6.78,8.85,8.85,0,0,0,.76,3.22l49.14,119.43L411,361.1a9,9,0,0,0-.83,3.39,6.86,6.86,0,0,0,6.78,6.78,6.68,6.68,0,0,0,6.33-4.47l24.07-59.67,49.26-118.85a9,9,0,0,0,.83-3.39A6.87,6.87,0,0,0,490.63,178.11Z" transform="translate(-9.1 -24.94)"/></svg>