<?xml version="1.0" encoding="utf-8"?>
<!-- Generator: Adobe Illustrator 23.0.1, SVG Export Plug-In . SVG Version: 6.00 Build 0)  -->
<svg version="1.1" id="Camada_1" xmlns="http://www.w3.org/2000/svg" xmlns:xlink="http://www.w3.org/1999/xlink" x="0px" y="0px"
	 viewBox="0 0 841.89 387.88" style="enable-background:new 0 0 841.89 387.88;" xml:space="preserve">
<style type="text/css">
	.st0{fill-rule:evenodd;clip-rule:evenodd;fill:#A41414;}
	.st1{fill-rule:evenodd;clip-rule:evenodd;fill:#C20D19;}
</style>
<g id="XMLID_545_">
	<g id="XMLID_595_">
		<g id="XMLID_596_">
			<path id="XMLID_597_" class="st0" d="M258.1,102.58C309.24,92.27,358.06,89,399.42,91.85c-25.7,1.59-52.92,5.1-80.84,10.73
				C185.17,129.48,86.4,194.95,97.12,247.54c6.69,32.77,54.84,53.75,122.46,58.4c-98.1,6.11-174.39-16.52-182.93-58.4
				C25.91,194.95,124.68,129.48,258.1,102.58"/>
			<path id="XMLID_598_" class="st1" d="M372.76,102.58c52.2-10.52,101.96-13.72,143.86-10.56c-24.87,1.66-51.13,5.13-78.04,10.56
				c-133.41,26.9-232.18,92.36-221.45,144.95c6.6,32.36,53.64,53.21,119.93,58.22c-99.45,6.71-177.12-15.94-185.75-58.22
				C140.58,194.95,239.35,129.48,372.76,102.58"/>
		</g>
		<g id="XMLID_599_">
			<path id="XMLID_600_" d="M527.74,270.5h-32.58l-10.26,35.26H444.3l81.07-213.61h39.53v213.61h-37.16V270.5z M527.74,229.9v-71.47
				l-20.76,71.47H527.74z"/>
			<path id="XMLID_603_" d="M613.31,191.03c0.71,0.18,1.31,0.32,1.8,0.4c0.49,0.09,1.09,0.14,1.79,0.14c3.1,0,6.12-0.58,9.09-1.73
				c2.95-1.16,5.63-2.85,8.02-5.07c2.39-2.22,4.33-4.97,5.8-8.26c1.47-3.29,2.36-6.98,2.64-11.06c0.28-4.62-0.28-8.89-1.69-12.8
				c-1.41-3.92-3.31-7.25-5.7-10c-2.39-2.76-5.21-4.89-8.44-6.4c-3.24-1.51-6.62-2.27-10.14-2.27c-1.4,0-2.46,0.09-3.17,0.27V191.03
				z M575.94,305.76V92.15h50.04c7.74,0,15.3,1.29,22.69,4.49c7.39,3.2,13.76,8.44,19.11,15.74c3.8,5.15,6.82,10.88,9.08,17.2
				c2.25,6.31,3.87,12.84,4.86,19.6c0.7,5.51,0.99,11.02,0.84,16.53c-0.14,5.5-0.78,10.93-1.9,16.26
				c-1.55,7.83-4.15,15.02-7.81,21.6c-3.66,6.57-8.16,11.99-13.51,16.26c-0.7,0.35-1.33,0.75-1.9,1.2c-0.56,0.44,0.7-0.54,0,0
				l27.71,84.73h-40.61l-21.05-72.34H613.1v72.34H575.94z"/>
			<path id="XMLID_606_" d="M662.21,92.15c5.25,3.67,9.98,8.32,14.1,13.95c4.4,5.97,7.94,12.67,10.53,19.92
				c0.17,0.47,0.31,0.95,0.47,1.43h23.49v178.31h37.16V127.45h46.22v-35.3H662.21z"/>
		</g>
	</g>
</g>
</svg>
