<?xml version="1.0"?>
<svg xmlns="http://www.w3.org/2000/svg" id="Group_1675" data-name="Group 1675" viewBox="0 0 160 66.667">
  <defs>
    <style>
      .cls-1 {
        fill: #6b2a7e;
      }

      .cls-2 {
        fill: #6d6e71;
      }
    </style>
  </defs>
  <g id="Group_1672" data-name="Group 1672" transform="translate(46.916 10.678)">
    <path id="Path_932" data-name="Path 932" class="cls-1" d="M105.768,75.289c-8.741,0-20.968-6.639-20.968-17.483V21.845A2.538,2.538,0,0,1,87.345,19.3h8.3a2.538,2.538,0,0,1,2.545,2.545V55.261a7.532,7.532,0,0,0,7.524,7.524h7.524V22.232h0V21.9h0a2.538,2.538,0,0,1,2.545-2.545h8.3a2.538,2.538,0,0,1,2.545,2.545V55.98c0,4.094-4.481,8.575-8.52,8.575h-3.154v3.651C114.9,72.578,111.411,75.289,105.768,75.289ZM87.345,21.015a.874.874,0,0,0-.885.885V57.862c0,9.793,11.231,15.768,19.253,15.768,2.268,0,7.469-.5,7.469-5.367V64.556h-7.524a9.256,9.256,0,0,1-9.239-9.239V21.9a.874.874,0,0,0-.885-.885ZM114.9,62.841h3.154c3.154,0,6.86-3.707,6.86-6.86V21.9a.874.874,0,0,0-.885-.885h-8.3a.874.874,0,0,0-.885.885c.111.221.055,25.339.055,40.941Z" transform="translate(-84.8 -19.3)"/>
  </g>
  <g id="Group_1673" data-name="Group 1673" transform="translate(0)">
    <path id="Path_933" data-name="Path 933" class="cls-1" d="M39.281,55.989h-8.3a2.538,2.538,0,0,1-2.545-2.545V19.972a7.532,7.532,0,0,0-7.524-7.524H13.389V53h0v.332h0a2.538,2.538,0,0,1-2.545,2.545h-8.3A2.538,2.538,0,0,1,0,53.333V19.364c0-4.094,4.481-8.575,8.52-8.575h3.154V7.137C11.729,2.711,15.214,0,20.913,0c8.741,0,20.968,6.639,20.968,17.483V53.444A2.586,2.586,0,0,1,39.281,55.989Zm0-1.715a.874.874,0,0,0,.885-.885V17.427c0-9.793-11.231-15.768-19.253-15.768-2.268,0-7.469.5-7.469,5.367v3.707h7.524a9.256,9.256,0,0,1,9.239,9.239V53.389a.874.874,0,0,0,.885.885Zm-28.437,0a.874.874,0,0,0,.885-.885V12.448H8.575c-3.154,0-6.86,3.762-6.86,6.916v34.08a.874.874,0,0,0,.885.885h8.243Z" transform="translate(0)"/>
  </g>
  <g id="Group_1674" data-name="Group 1674" transform="translate(98.755 27.441)">
    <path id="Path_934" data-name="Path 934" class="cls-2" d="M183.369,76.709a8.689,8.689,0,0,1-4.869-1.272V49.6h1.77v9.35a7.236,7.236,0,0,1,3.873-.885c4.094,0,6.916,3.485,6.916,9.073S188.458,76.709,183.369,76.709Zm.443-17.538a6.244,6.244,0,0,0-3.485.83V74.939a7.377,7.377,0,0,0,2.988.553c4.315,0,5.975-3.541,5.975-8.354C189.233,62.933,187.518,59.171,183.811,59.171Z" transform="translate(-178.5 -49.6)"/>
    <path id="Path_935" data-name="Path 935" class="cls-2" d="M213.262,83.366c-4.426,0-6.362-2.1-6.362-5.2,0-4.869,4.426-6.307,10.124-6.916V69.977c0-3.264-1.936-4.149-4.426-4.149a9.065,9.065,0,0,0-4.2,1.162l-.5-1.162A10.311,10.311,0,0,1,212.82,64.5c3.043,0,5.92,1.328,5.92,5.533V82.038A10.542,10.542,0,0,1,213.262,83.366Zm3.762-10.954c-5.311.719-8.354,1.77-8.354,5.809,0,2.877,1.826,4.094,4.813,4.094a8.394,8.394,0,0,0,3.541-.719V72.411Z" transform="translate(-191.188 -56.257)"/>
    <path id="Path_936" data-name="Path 936" class="cls-2" d="M247.58,83.123V69.956c0-1.881-.719-4.039-4.315-4.039a9.233,9.233,0,0,0-4.039.719V83.123H237.4V65.972a12.248,12.248,0,0,1,6.141-1.272c4.7,0,5.864,2.932,5.864,5.2V83.179H247.58Z" transform="translate(-204.814 -56.346)"/>
    <path id="Path_937" data-name="Path 937" class="cls-2" d="M277.671,76.377l-7.745-9.461h-.055v9.461H268.1V49.6h1.77V66.861h.055l7.137-8.631h1.992l-7.469,8.631,8.188,9.516Z" transform="translate(-218.529 -49.6)"/>
  </g>
</svg>
