<svg xmlns="http://www.w3.org/2000/svg" xmlns:xlink="http://www.w3.org/1999/xlink" width="525.278" height="101.823" viewBox="0 0 525.278 101.823">
  <defs>
    <clipPath id="clip-path">
      <path id="Caminho_101" data-name="Caminho 101" d="M134.055,492.444v13.894l19.472-19.566v-.021L172.982,506.3l.016.015,19.45-19.545,19.469,19.565V492.444l-19.468-19.566-19.463,19.535-19.469-19.527Zm38.93-16.535,38.932-39.132V423.2l-38.934,39.132-19.468-19.565v13.575Zm-38.877,1.442v13.895l19.473-19.567v-.021l19.454,19.553.017.014L192.5,471.68l19.469,19.566V477.351L192.5,457.786l-19.463,19.535-19.468-19.528Zm38.877-16.433,38.932-39.132V408.213l-38.934,39.133L153.515,427.78v13.575Z" fill="none" clip-rule="evenodd"/>
    </clipPath>
  </defs>
  <g id="Agrupar_31" data-name="Agrupar 31" transform="translate(-134.055 -404.515)">
    <g id="Agrupar_24" data-name="Agrupar 24">
      <path id="Caminho_98" data-name="Caminho 98" d="M134.055,492.444v13.894l19.472-19.566v-.021L172.982,506.3l.016.015,19.45-19.545,19.469,19.565V492.444l-19.468-19.566-19.463,19.535-19.469-19.527Zm38.93-16.535,38.932-39.132V423.2l-38.934,39.132-19.468-19.565v13.575Zm-38.877,1.442v13.895l19.473-19.567v-.021l19.454,19.553.017.014L192.5,471.68l19.469,19.566V477.351L192.5,457.786l-19.463,19.535-19.468-19.528Zm38.877-16.433,38.932-39.132V408.213l-38.934,39.133L153.515,427.78v13.575Z" fill="#e5e5e5" fill-rule="evenodd"/>
      <g id="Agrupar_23" data-name="Agrupar 23">
        <g id="Agrupar_22" data-name="Agrupar 22" clip-path="url(#clip-path)">
          <path id="Caminho_99" data-name="Caminho 99" d="M151.627,422l23.9,12.568v75.885h-23.9Zm40.852,35.034,3.746-.168,17.713,15.775V514.2l-21.661-20.978-.017-3.6Z" fill="#b3db11" fill-rule="evenodd"/>
          <path id="Caminho_100" data-name="Caminho 100" d="M127.049,473.744,153.6,457.11l-.127,47.925-31.151,5.844Zm45.8-35.664.132,8.64.025,60.358-.157,10.932,19.426-24.787.2-36.08,28.107-24.349-1.852-35.564Z" fill="#80c41c" fill-rule="evenodd"/>
        </g>
      </g>
      <text id="P" transform="translate(223.686 485.515)" fill="#0c1a6f" font-size="81.94" font-family="MyriadPro-Bold, Myriad Pro" font-weight="700"><tspan x="0" y="0">P</tspan></text>
      <text id="a" transform="translate(265.458 485.515)" fill="#0c1a6f" font-size="81.94" font-family="MyriadPro-Bold, Myriad Pro" font-weight="700"><tspan x="0" y="0">a</tspan></text>
      <text id="r" transform="translate(304.362 485.515)" fill="#0c1a6f" font-size="81.94" font-family="MyriadPro-Bold, Myriad Pro" font-weight="700"><tspan x="0" y="0">r</tspan></text>
      <text id="a-2" data-name="a" transform="translate(330.238 485.515)" fill="#0c1a6f" font-size="81.94" font-family="MyriadPro-Bold, Myriad Pro" font-weight="700"><tspan x="0" y="0">a</tspan></text>
      <text id="n" transform="translate(369.141 485.515)" fill="#0c1a6f" font-size="81.94" font-family="MyriadPro-Bold, Myriad Pro" font-weight="700"><tspan x="0" y="0">n</tspan></text>
      <text id="รก" transform="translate(412.798 485.515)" fill="#0c1a6f" font-size="81.94" font-family="MyriadPro-Bold, Myriad Pro" font-weight="700"><tspan x="0" y="0">รก</tspan></text>
      <text id="B" transform="translate(451.702 485.515)" fill="#0c1a6f" font-size="81.94" font-family="MyriadPro-Bold, Myriad Pro" font-weight="700"><tspan x="0" y="0">B</tspan></text>
      <text id="a-3" data-name="a" transform="translate(497.079 485.515)" fill="#0c1a6f" font-size="81.94" font-family="MyriadPro-Bold, Myriad Pro" font-weight="700"><tspan x="0" y="0">a</tspan></text>
      <text id="n-2" data-name="n" transform="translate(535.983 485.515)" fill="#0c1a6f" font-size="81.94" font-family="MyriadPro-Bold, Myriad Pro" font-weight="700"><tspan x="0" y="0">n</tspan></text>
      <text id="c" transform="translate(579.64 485.515)" fill="#0c1a6f" font-size="81.94" font-family="MyriadPro-Bold, Myriad Pro" font-weight="700"><tspan x="0" y="0">c</tspan></text>
      <text id="o" transform="translate(611.333 485.515)" fill="#0c1a6f" font-size="81.94" font-family="MyriadPro-Bold, Myriad Pro" font-weight="700"><tspan x="0" y="0">o</tspan></text>
    </g>
  </g>
</svg>
