<?xml version="1.0" encoding="utf-8"?>
<!-- Generator: Adobe Illustrator 23.0.3, SVG Export Plug-In . SVG Version: 6.00 Build 0)  -->
<svg version="1.1" id="Layer_1" xmlns="http://www.w3.org/2000/svg" xmlns:xlink="http://www.w3.org/1999/xlink" x="0px" y="0px"
	 viewBox="0 0 1920 370.4" style="enable-background:new 0 0 1920 370.4;" xml:space="preserve">
<style type="text/css">
	.st0{fill-rule:evenodd;clip-rule:evenodd;fill:#1E120E;}
	.st1{fill-rule:evenodd;clip-rule:evenodd;fill:#F3A423;}
</style>
<g>
	<path class="st0" d="M1920,225.49h-39.74V120.86c0-21.74-9.65-32.58-28.95-32.58c-11.18,0-20.15,4.09-26.85,12.32
		c-6.7,8.17-10.05,20.44-10.05,36.73v88.17h-40.25V120.86c0-22.03-9.03-33.1-27.14-33.1c-10.96,0-20.15,4.43-27.65,13.34
		c-7.49,8.86-11.24,20.95-11.24,36.22v88.17h-39.11V57.51h36.78v35.77c11.98-26.17,30.65-39.29,56.03-39.29
		c24.75,0,40.82,13.11,48.25,39.29c13.51-26.17,32.19-39.29,56.03-39.29c16.18,0,29.24,5.05,39.11,15.16
		c9.82,10.11,14.76,22.65,14.76,37.58V225.49z"/>
	<path class="st0" d="M1570.09,197.73c25.49,0,38.26-19.02,38.26-57.05c0-17.2-3.06-30.77-9.14-40.65
		c-6.13-9.94-15.49-14.93-28.1-14.93c-13.11,0-22.81,5.17-29.12,15.38c-6.3,10.28-9.48,23.9-9.48,40.88
		c0,18.28,3.36,32.24,10.06,41.89C1549.26,192.91,1558.46,197.73,1570.09,197.73L1570.09,197.73z M1568.78,229.01
		c-24.86-0.05-43.82-8.97-56.88-26.79c-13.11-17.88-19.64-38.32-19.64-61.37c0-24.86,7.21-45.53,21.68-62.05
		c14.48-16.52,33.61-24.81,57.34-24.81c22.47,0,40.99,8.06,55.46,24.13c14.47,16.12,21.69,37.01,21.69,62.73
		c0,26.51-7.5,47.8-22.54,63.92C1610.85,220.89,1591.84,228.96,1568.78,229.01z"/>
	<path class="st0" d="M1446.21,163.78l32.64,3.35c-4.26,21.06-12.38,36.62-24.46,46.72c-12.09,10.11-26.68,15.11-43.77,15.16
		c-23.16-0.05-40.99-8.46-53.42-25.37c-12.49-16.92-18.74-37.64-18.74-62.1c0-25.32,6.81-46.21,20.44-62.73
		c13.68-16.52,31.85-24.81,54.55-24.81c36.62,0,58.42,19.3,65.4,57.91l-32.64,4.48c-2.84-20.83-13.11-31.28-30.77-31.28
		c-12.83,0-22.19,5.62-27.98,16.92c-5.85,11.24-8.74,24.87-8.74,40.82c0,16.97,3.01,30.03,9.08,39.23
		c6.02,9.2,14.48,13.8,25.32,13.8C1429.75,195.86,1440.82,185.18,1446.21,163.78z"/>
	<rect x="1280.75" y="181.89" class="st0" width="41.1" height="43.6"/>
	<path class="st0" d="M1088.93,177.46l52.45-7.15c3.01,12.26,14.94,18.39,35.77,18.39c17.26,0,25.89-3.35,25.89-9.99
		c0-2.9-1.65-5.11-5-6.76c-3.34-1.59-11.3-3.23-23.72-4.88c-34.58-4.77-56.09-12.21-64.66-22.37c-8.58-10.11-12.89-21.4-12.89-33.83
		c0-17.32,7.21-31.34,21.68-42.01c14.48-10.73,33.44-16.07,56.94-16.07c41.16,0,67.39,14.76,78.74,44.34l-50.07,9.48
		c-4.72-9.99-14.65-14.99-29.74-14.99c-7.16,0-12.55,0.97-16.07,2.9c-3.52,1.99-5.28,3.86-5.28,5.79c0,5.51,5.33,8.91,16.01,10.11
		c27.76,3.12,46.61,6.24,56.48,9.48c9.88,3.18,18.34,9.09,25.32,17.6c6.98,8.57,10.5,18.9,10.5,30.99
		c0,18.51-7.72,33.21-23.22,44.11c-15.5,10.85-36.85,16.29-64.04,16.29C1128.16,228.89,1099.83,211.76,1088.93,177.46z"/>
	<path class="st0" d="M1043.11,225.49h-63.69V56.2h55.52v34.57c6.3-25.32,20.89-37.98,43.88-37.98c2.33,0,5.51,0.23,9.59,0.68v58.87
		c-4.65-1.08-8.8-1.65-12.43-1.65c-21.91,0-32.87,12.32-32.87,36.9V225.49z"/>
	<path class="st0" d="M898.77,146.47c-28.16,2.95-42.23,11.97-42.23,27.02c0,10.16,5.56,15.22,16.75,15.22
		c7.04,0,13.05-2.1,18.05-6.3c4.94-4.2,7.44-13.46,7.44-27.82V146.47L898.77,146.47z M967.57,225.49h-63.02
		c-1.59-7.21-2.38-15.1-2.38-23.67c-11.97,18.05-30.08,27.07-54.38,27.07c-19.98,0-34.91-5.11-44.85-15.27
		c-9.93-10.22-14.87-21.86-14.87-35.03c0-17.82,8.12-32.25,24.35-43.26c16.23-11.02,45.02-17.66,86.34-19.87v-3.86
		c0-7.49-1.7-12.49-5.05-14.93c-3.35-2.44-8.29-3.69-14.76-3.69c-15.22,0-23.73,6.24-25.49,18.73l-60.63-5.79
		c8.63-35.43,38.03-53.14,88.22-53.14c13.62,0,26.11,1.36,37.52,4.09c11.41,2.73,20.44,6.93,27.08,12.72
		c6.64,5.79,11.12,11.87,13.39,18.28c2.27,6.47,3.41,18.85,3.41,37.13v67.56C962.46,205.4,964.17,216.41,967.57,225.49z"/>
	<path class="st0" d="M724.36,157.03l56.54,4.83c-2.67,19.81-10.95,35.93-24.87,48.37c-13.96,12.43-32.41,18.67-55.52,18.67
		c-25.82,0-46.83-8.12-62.95-24.35c-16.18-16.23-24.24-37.07-24.24-62.45c0-25.94,8-47.29,24.07-64.09
		c16.06-16.8,36.9-25.21,62.56-25.21c22.76,0,41.27,6.36,55.63,19.08c14.31,12.77,22.54,28.84,24.64,48.31l-58.25,4.82
		c-2.44-17.94-9.25-26.91-20.32-26.91c-7.15,0-12.38,3.24-15.61,9.71c-3.29,6.47-4.94,17.71-4.94,33.78
		c0,13.8,1.65,24.07,4.94,30.72c3.29,6.64,8.96,9.93,17.09,9.93C715.05,182.23,722.15,173.83,724.36,157.03z"/>
	<path class="st0" d="M606.91,56.2v42.92h-33.72v62.39c0,8.57,1.59,13.62,4.82,15.21c3.18,1.65,6.53,2.44,9.94,2.44
		c5.34,0,11.64-0.91,18.96-2.73v47.35c-13.05,2.5-25.94,3.74-38.55,3.74c-20.44,0-35.42-4.37-45.02-13.17
		c-9.53-8.74-14.36-22.77-14.36-41.96l0.17-19.81V99.12h-25.2V56.2h25.2l1.02-55.18L573.18,0v56.2H606.91z"/>
	<path class="st0" d="M475.89,225.49h-66.42V118.93c0-8.8-1.31-14.36-4.03-16.8c-2.72-2.44-6.07-3.69-10.16-3.69
		c-12.04,0-18.05,8.46-18.05,25.32v101.74H310.8V56.2h61.65v23.96c9.09-18.22,25.32-27.36,48.65-27.36c12.32,0,22.65,2.38,31.17,7.1
		c8.46,4.71,14.53,10.79,18.17,18.28c3.63,7.49,5.45,20.49,5.45,39V225.49z"/>
	<path class="st0" d="M230.48,120.58c-0.12-11.3-2.39-18.91-6.82-22.76c-4.42-3.92-9.93-5.85-16.52-5.85
		c-15.56,0-23.33,9.53-23.33,28.61H230.48L230.48,120.58z M235.25,164.52l61.65,4.14c-3.63,16.69-13,30.89-28.05,42.64
		c-14.99,11.75-35.31,17.6-60.91,17.6c-28.5,0-51.2-8.23-68.18-24.69c-16.97-16.47-25.43-36.9-25.43-61.25
		c0-25.32,8.35-46.67,25.09-64.04c16.75-17.43,39.11-26.12,67.04-26.12c27.02,0,48.88,8.18,65.57,24.58
		c16.69,16.4,25.03,38.72,25.03,66.93c0,2.33-0.06,5.56-0.17,9.65H183.82c0.23,10.73,2.1,18.68,5.68,23.9
		c3.52,5.17,10.27,7.78,20.27,7.78C224.24,185.64,232.7,178.6,235.25,164.52z"/>
	<path class="st0" d="M63.69,225.49H0V56.2h55.52v34.57C61.82,65.45,76.41,52.8,99.4,52.8c2.33,0,5.5,0.23,9.59,0.68v58.87
		c-4.66-1.08-8.8-1.65-12.43-1.65c-21.91,0-32.87,12.32-32.87,36.9V225.49z"/>
	<rect y="249.7" class="st1" width="1261.19" height="120.7"/>
</g>
</svg>
