<?xml version="1.0" encoding="utf-8"?>
<!-- Generator: Adobe Illustrator 19.2.0, SVG Export Plug-In . SVG Version: 6.00 Build 0)  -->
<svg version="1.1" id="Layer_1" xmlns="http://www.w3.org/2000/svg" xmlns:xlink="http://www.w3.org/1999/xlink" x="0px" y="0px"
	 viewBox="0 0 655 319.3" style="enable-background:new 0 0 655 319.3;" xml:space="preserve">
<style type="text/css">
	.st0{fill:#FF8300;}
	.st1{fill:#FFA34E;}
	.st2{fill:#FFC894;}
	.st3{fill:#55565A;}
</style>
<g>
	<g>
		<path class="st0" d="M204.7,185.5h-29.8c-22.8,0-41.3-18.5-41.3-41.3c0-22.8,18.5-41.3,41.3-41.3c23.1,0,41.3,17.6,41.3,40.1v42.3
			h-6.4v-42.3c0-18.9-15.3-33.7-34.9-33.7c-19.2,0-34.9,15.6-34.9,34.9c0,19.2,15.6,34.9,34.9,34.9h29.8V185.5z"/>
		<path class="st1" d="M194.1,174.9h-19.3c-16.9,0-30.7-13.8-30.7-30.7c0-16.9,13.8-30.7,30.7-30.7c17.2,0,30.7,13.2,30.7,30.1v31.2
			h-6.4v-31.2c0-13.3-10.7-23.7-24.3-23.7c-13.4,0-24.3,10.9-24.3,24.3c0,13.4,10.9,24.3,24.3,24.3h19.3V174.9z"/>
		<path class="st2" d="M183.6,164.3h-8.7c-11.1,0-20.1-9-20.1-20.1c0-11.1,9-20.1,20.1-20.1c11.1,0,20.1,9,20.1,20.1v20h-6.4v-20
			c0-7.6-6.1-13.7-13.7-13.7c-7.6,0-13.7,6.1-13.7,13.7c0,7.6,6.1,13.7,13.7,13.7h8.7V164.3z"/>
	</g>
	<g>
		<g>
			<path class="st3" d="M253.9,141.5H264l-5.1-9.8L253.9,141.5z M265.9,145.5h-14.1l-3.5,6.9h-4.6l13.5-26.5h3.3l13.6,26.5h-4.7
				L265.9,145.5z"/>
			<path class="st3" d="M289,129.7v7.5h11.2c3.1,0,4.6-1.3,4.6-3.7c0-2.4-1.5-3.8-4.4-3.8H289z M298.5,141.2H289v11.2h-4.3v-26.5
				h15.7c5.4,0,8.8,2.8,8.8,7.6c0,3.6-2.3,6.6-6,7.5l6.7,11.4h-4.8L298.5,141.2z"/>
			<path class="st3" d="M319.8,139.2c0-8.1,6-13.9,14.2-13.9c5.1,0,9.4,2.3,12.3,6.6l-3.6,2.5c-1.8-3.4-5-5.1-8.6-5.1
				c-5.6,0-9.8,4.1-9.8,10c0,5.8,4.2,9.9,9.8,9.9c3.9,0,7.1-1.9,9.4-6.1l3.4,2.5c-2.8,5-7.3,7.5-12.8,7.5
				C325.8,153,319.8,147.2,319.8,139.2"/>
			<polygon class="st3" points="370.1,152.4 367.8,152.4 367.8,128 356.7,128 356.7,125.9 381.3,125.9 381.3,128 370.1,128 			"/>
			<path class="st3" d="M391.3,139.2c0,6.8,4.7,11.6,10.8,11.6c6.2,0,10.9-4.9,10.9-11.6c0-6.8-4.6-11.7-10.8-11.7
				C396,127.5,391.3,132.4,391.3,139.2 M388.9,139.2c0-8.1,5.6-13.9,13.2-13.9c7.7,0,13.3,5.8,13.3,13.9c0,8.1-5.6,13.9-13.3,13.9
				C394.5,153,388.9,147.2,388.9,139.2"/>
			<path class="st3" d="M427.2,144.1v-18.2h2.3v17.3c0,6,1.9,7.7,8.1,7.7c6.3,0,8.1-1.6,8.1-7.7v-17.3h2.4v18.2c0,6.4-2.8,9-10.4,9
				C430,153,427.2,150.4,427.2,144.1"/>
			<path class="st3" d="M461.6,139.2c0-8.1,5.6-13.9,13.2-13.9c4.6,0,8.5,2.1,10.9,5.8l-1.9,1.4c-1.8-3.2-5.2-5-9-5
				c-6.2,0-10.8,4.9-10.8,11.7c0,6.8,4.6,11.6,10.8,11.6c4.1,0,7.5-2.1,9.7-6l1.9,1.4c-2.4,4.4-6.5,6.8-11.6,6.8
				C467.2,153,461.6,147.2,461.6,139.2"/>
			<polygon class="st3" points="516.4,138.9 499.8,138.9 499.8,152.4 497.4,152.4 497.4,125.9 499.8,125.9 499.8,136.7 516.4,136.7 
				516.4,125.9 518.7,125.9 518.7,152.4 516.4,152.4 			"/>
		</g>
		<g>
			<path class="st0" d="M244.2,175.3h1.9l3,4.7l3-4.7h1.9v10h-1.8v-7.2l-3.2,4.7H249l-3.1-4.7v7.1h-1.7V175.3z"/>
			<path class="st0" d="M256.1,180.3L256.1,180.3c0-2.8,2.2-5.2,5.2-5.2s5.2,2.3,5.2,5.1v0c0,2.8-2.2,5.2-5.2,5.2
				S256.1,183.2,256.1,180.3z M264.7,180.3L264.7,180.3c0-2-1.4-3.6-3.4-3.6c-2,0-3.4,1.6-3.4,3.5v0c0,1.9,1.4,3.6,3.4,3.6
				C263.3,183.9,264.7,182.3,264.7,180.3z"/>
			<path class="st0" d="M268.7,175.3h4.5c1.1,0,2,0.3,2.6,0.9c0.4,0.4,0.7,1,0.7,1.7v0c0,1.2-0.7,1.8-1.4,2.2c1.2,0.4,2,1.1,2,2.4v0
				c0,1.8-1.5,2.7-3.7,2.7h-4.6V175.3z M272.8,179.5c1.1,0,1.9-0.4,1.9-1.4v0c0-0.8-0.6-1.3-1.8-1.3h-2.5v2.7H272.8z M273.3,183.8
				c1.2,0,1.9-0.5,1.9-1.4v0c0-0.8-0.7-1.3-2.1-1.3h-2.8v2.7H273.3z"/>
			<path class="st0" d="M279.1,175.3h1.8v10h-1.8V175.3z"/>
			<path class="st0" d="M283.5,175.3h1.8v8.4h5.2v1.6h-7V175.3z"/>
			<path class="st0" d="M292.3,175.3h7.4v1.6h-5.6v2.6h5v1.6h-5v2.7h5.7v1.6h-7.5V175.3z"/>
			<path class="st0" d="M311.7,184.2c-0.9,0.8-1.9,1.3-3.1,1.3c-1.9,0-3.3-1.1-3.3-2.9v0c0-1.3,0.8-2.2,2.1-2.8
				c-0.6-0.7-0.8-1.4-0.8-2.1v0c0-1.3,1.1-2.5,2.9-2.5c1.6,0,2.7,1.1,2.7,2.4v0c0,1.3-0.9,2.1-2.2,2.6l1.7,1.7
				c0.4-0.6,0.7-1.2,1.1-1.9l1.3,0.7c-0.4,0.8-0.8,1.6-1.4,2.3l1.6,1.6l-1.3,0.9L311.7,184.2z M310.7,183.1l-2.2-2.3
				c-0.9,0.4-1.3,1-1.3,1.7v0c0,0.8,0.7,1.5,1.7,1.5C309.5,184,310.2,183.7,310.7,183.1z M310.7,177.7L310.7,177.7
				c0-0.7-0.5-1.2-1.1-1.2c-0.7,0-1.2,0.5-1.2,1.2v0c0,0.5,0.2,0.9,0.8,1.5C310.1,178.9,310.7,178.4,310.7,177.7z"/>
			<path class="st0" d="M319.9,180.3L319.9,180.3c0-2.9,2.1-5.2,5.2-5.2c1.8,0,3,0.6,3.9,1.6l-1.1,1.3c-0.8-0.7-1.7-1.2-2.8-1.2
				c-1.9,0-3.3,1.6-3.3,3.5v0c0,2,1.4,3.6,3.3,3.6c1.2,0,2-0.5,2.9-1.3l1.1,1.1c-1,1.1-2.2,1.8-4.1,1.8
				C322.1,185.5,319.9,183.2,319.9,180.3z"/>
			<path class="st0" d="M330.1,180.3L330.1,180.3c0-2.8,2.2-5.2,5.2-5.2s5.2,2.3,5.2,5.1v0c0,2.8-2.2,5.2-5.2,5.2
				S330.1,183.2,330.1,180.3z M338.7,180.3L338.7,180.3c0-2-1.4-3.6-3.4-3.6c-2,0-3.4,1.6-3.4,3.5v0c0,1.9,1.4,3.6,3.4,3.6
				C337.4,183.9,338.7,182.3,338.7,180.3z"/>
			<path class="st0" d="M342.7,175.3h1.6l5.4,6.9v-6.9h1.7v10h-1.5l-5.5-7.1v7.1h-1.7V175.3z"/>
			<path class="st0" d="M354,175.3h1.6l5.4,6.9v-6.9h1.7v10h-1.5l-5.5-7.1v7.1H354V175.3z"/>
			<path class="st0" d="M365.2,175.3h7.4v1.6H367v2.6h5v1.6h-5v2.7h5.7v1.6h-7.5V175.3z"/>
			<path class="st0" d="M374.4,180.3L374.4,180.3c0-2.9,2.1-5.2,5.2-5.2c1.8,0,3,0.6,3.9,1.6l-1.1,1.3c-0.8-0.7-1.7-1.2-2.8-1.2
				c-1.9,0-3.3,1.6-3.3,3.5v0c0,2,1.4,3.6,3.3,3.6c1.2,0,2-0.5,2.9-1.3l1.1,1.1c-1,1.1-2.2,1.8-4.1,1.8
				C376.5,185.5,374.4,183.2,374.4,180.3z"/>
			<path class="st0" d="M387.8,176.9h-3.2v-1.6h8.1v1.6h-3.2v8.4h-1.8V176.9z"/>
			<path class="st0" d="M394.6,175.3h7.4v1.6h-5.6v2.6h5v1.6h-5v2.7h5.7v1.6h-7.5V175.3z"/>
			<path class="st0" d="M404.1,175.3h3.7c3.1,0,5.3,2.2,5.3,5v0c0,2.8-2.2,5-5.3,5h-3.7V175.3z M407.8,183.7c2.1,0,3.5-1.4,3.5-3.4
				v0c0-2-1.4-3.4-3.5-3.4h-2v6.8H407.8z"/>
			<path class="st0" d="M419.6,175.3h7.4v1.6h-5.6v2.6h5v1.6h-5v2.7h5.7v1.6h-7.5V175.3z"/>
			<path class="st0" d="M432,180.2l-3.5-4.9h2.1l2.5,3.6l2.5-3.6h2l-3.5,4.9l3.6,5.1h-2.1l-2.6-3.8l-2.6,3.8h-2L432,180.2z"/>
			<path class="st0" d="M439.5,175.3h3.9c2.3,0,3.8,1.3,3.8,3.3v0c0,2.2-1.8,3.4-4,3.4h-2v3.2h-1.8V175.3z M443.3,180.5
				c1.3,0,2.2-0.7,2.2-1.8v0c0-1.2-0.8-1.8-2.2-1.8h-2v3.6H443.3z"/>
			<path class="st0" d="M449,175.3h7.4v1.6h-5.6v2.6h5v1.6h-5v2.7h5.7v1.6H449V175.3z"/>
			<path class="st0" d="M458.6,175.3h4.5c1.3,0,2.2,0.4,2.9,1c0.5,0.5,0.8,1.3,0.8,2.2v0c0,1.6-1,2.6-2.4,3l2.7,3.8H465l-2.5-3.5h0
				h-2.2v3.5h-1.8V175.3z M462.9,180.3c1.3,0,2.1-0.7,2.1-1.7v0c0-1.1-0.8-1.7-2.1-1.7h-2.6v3.4H462.9z"/>
			<path class="st0" d="M469,175.3h1.8v10H469V175.3z"/>
			<path class="st0" d="M473.4,175.3h7.4v1.6h-5.6v2.6h5v1.6h-5v2.7h5.7v1.6h-7.5V175.3z"/>
			<path class="st0" d="M483,175.3h1.6l5.4,6.9v-6.9h1.7v10h-1.5l-5.5-7.1v7.1H483V175.3z"/>
			<path class="st0" d="M493.8,180.3L493.8,180.3c0-2.9,2.1-5.2,5.2-5.2c1.8,0,3,0.6,3.9,1.6l-1.1,1.3c-0.8-0.7-1.7-1.2-2.8-1.2
				c-1.9,0-3.3,1.6-3.3,3.5v0c0,2,1.4,3.6,3.3,3.6c1.2,0,2-0.5,2.9-1.3l1.1,1.1c-1,1.1-2.2,1.8-4.1,1.8
				C496,185.5,493.8,183.2,493.8,180.3z"/>
			<path class="st0" d="M504.8,175.3h7.4v1.6h-5.6v2.6h5v1.6h-5v2.7h5.7v1.6h-7.5V175.3z"/>
			<path class="st0" d="M513.6,183.9l1.1-1.3c1,0.8,1.9,1.3,3.2,1.3c1.1,0,1.8-0.5,1.8-1.3v0c0-0.7-0.4-1.1-2.3-1.5
				c-2.1-0.5-3.3-1.1-3.3-3v0c0-1.7,1.4-2.9,3.4-2.9c1.5,0,2.6,0.4,3.6,1.3l-0.9,1.3c-0.9-0.7-1.8-1-2.7-1c-1,0-1.6,0.5-1.6,1.2v0
				c0,0.8,0.5,1.1,2.4,1.6c2.1,0.5,3.2,1.3,3.2,2.9v0c0,1.9-1.5,3-3.6,3C516.3,185.4,514.8,184.9,513.6,183.9z"/>
		</g>
	</g>
</g>
</svg>
