<svg xmlns="http://www.w3.org/2000/svg" width="836.08" height="157.701" viewBox="0 0 836.08 157.701">
  <g id="Group_6" data-name="Group 6" transform="translate(-96.4 -85.9)">
    <g id="Group_5" data-name="Group 5">
      <path id="Path_10" data-name="Path 10" d="M97.9,85.9l71.5,58.4L221.5,88a1.253,1.253,0,0,0-.9-2.1Z" fill="#2797d4"/>
      <path id="Path_11" data-name="Path 11" d="M97.9,243.5l71.5-58.4,52.1,56.3a1.253,1.253,0,0,1-.9,2.1H97.9Z" fill="#2797d4"/>
      <path id="Path_12" data-name="Path 12" d="M98.6,86.2l95,77.5a1.312,1.312,0,0,1,0,2.1l-95,77.5a1.345,1.345,0,0,1-2.2-1V87.3A1.377,1.377,0,0,1,98.6,86.2Z" fill="#314b76"/>
      <path id="Path_13" data-name="Path 13" d="M491.6,197.8c0,27-21.8,45.7-49.1,45.7H377a1.324,1.324,0,0,1-1.3-1.3V87.2a1.324,1.324,0,0,1,1.3-1.3h60.9c26.6,0,47.9,18,47.9,44.3,0,13.5-5.6,24.1-14.9,31.5C483.5,169,491.6,181.3,491.6,197.8ZM406.7,116v32.3a1.324,1.324,0,0,0,1.3,1.3h29.7c10.2,0,17.7-8.3,16.8-19.1-.7-8.9-8.6-15.6-17.5-15.6H407.7A1.175,1.175,0,0,0,406.7,116Zm54,78.3c-.6-9.7-9-17-18.7-17H406.7v37.1h35.8C453.6,214.4,461.4,205.8,460.7,194.3Z" fill="#314b76"/>
      <path id="Path_14" data-name="Path 14" d="M602.8,215.1H541.7a1.084,1.084,0,0,0-1.1.8l-8.9,26.8a1.17,1.17,0,0,1-1.1.8h-31a1.179,1.179,0,0,1-1.1-1.6L552.8,86.7a1.17,1.17,0,0,1,1.1-.8h36.8a1.17,1.17,0,0,1,1.1.8l54.5,155.2a1.179,1.179,0,0,1-1.1,1.6H613.9a1.084,1.084,0,0,1-1.1-.8l-8.9-26.8A1.084,1.084,0,0,0,602.8,215.1Zm-9.3-30.6-20-59.5a1.146,1.146,0,0,0-2.2,0l-20,59.5a1.1,1.1,0,0,0,1.1,1.5h39.9A1.167,1.167,0,0,0,593.5,184.5Z" fill="#314b76"/>
      <path id="Path_15" data-name="Path 15" d="M784.4,87.2v155a1.324,1.324,0,0,1-1.3,1.3H761.4a1.231,1.231,0,0,1-1-.5l-67.1-95.8v95a1.324,1.324,0,0,1-1.3,1.3H663.5a1.324,1.324,0,0,1-1.3-1.3V87.2a1.324,1.324,0,0,1,1.3-1.3h21.7a1.231,1.231,0,0,1,1,.5L753.3,182V87.2a1.324,1.324,0,0,1,1.3-1.3h28.5A1.324,1.324,0,0,1,784.4,87.2Z" fill="#314b76"/>
      <path id="Path_16" data-name="Path 16" d="M897.8,242.8l-29-48.8a1.317,1.317,0,0,0-2.3,0l-29.1,48.8a1.255,1.255,0,0,1-1.1.6h-32a1.29,1.29,0,0,1-1.1-2l46.6-78.1a1.483,1.483,0,0,0,0-1.3L805.7,87.9a1.321,1.321,0,0,1,1.1-2h32a1.149,1.149,0,0,1,1.1.6l26.6,44.7a1.317,1.317,0,0,0,2.3,0l26.6-44.7a1.255,1.255,0,0,1,1.1-.6h32a1.29,1.29,0,0,1,1.1,2l-44.1,73.8a1.7,1.7,0,0,0,0,1.4l46.8,78.3a1.321,1.321,0,0,1-1.1,2H899A1.218,1.218,0,0,1,897.8,242.8Z" fill="#314b76"/>
      <path id="Path_17" data-name="Path 17" d="M294.7,213.7a8.223,8.223,0,0,1-7.2-8.2V179.6a1.155,1.155,0,0,1,1.2-1.2h57.2a1.155,1.155,0,0,0,1.2-1.2V150.4a1.155,1.155,0,0,0-1.2-1.2H288.7a1.155,1.155,0,0,1-1.2-1.2V116.9a1.155,1.155,0,0,1,1.2-1.2h62.8a1.155,1.155,0,0,0,1.2-1.2V87.1a1.155,1.155,0,0,0-1.2-1.2H257.6a1.155,1.155,0,0,0-1.2,1.2V214a29.384,29.384,0,0,0,29.4,29.4h68V213.6H294.7Z" fill="#314b76"/>
    </g>
  </g>
</svg>
