<?xml version="1.0" encoding="utf-8"?>
<!-- Generator: Adobe Illustrator 21.1.0, SVG Export Plug-In . SVG Version: 6.00 Build 0)  -->
<svg version="1.1" id="Layer_1" xmlns="http://www.w3.org/2000/svg" xmlns:xlink="http://www.w3.org/1999/xlink" x="0px" y="0px"
	 viewBox="0 0 362.2 101" style="enable-background:new 0 0 362.2 101;" xml:space="preserve">
<style type="text/css">
	.st0{fill-rule:evenodd;clip-rule:evenodd;fill:#0033CC;}
	.st1{fill:#6699FF;}
	.st2{fill:#0033CC;}
	.st3{fill-rule:evenodd;clip-rule:evenodd;fill:#6699FF;}
	.st4{fill-rule:evenodd;clip-rule:evenodd;fill:none;}
</style>
<g>
	<polygon class="st0" points="97.7,70.5 97.7,30.2 108.1,30.2 108.1,61.5 125.8,61.5 125.8,70.5 	"/>
	<path class="st0" d="M208.6,30.2h16.1c3.2,0,5.6,0.1,7.1,0.4c1.6,0.3,3,0.8,4.2,1.7c1.2,0.8,2.3,2,3.1,3.4c0.8,1.4,1.2,3,1.2,4.7
		c0,1.9-0.5,3.6-1.5,5.2c-1,1.6-2.4,2.8-4.1,3.5c2.5,0.7,4.3,1.9,5.7,3.7c1.3,1.7,2,3.7,2,6.1c0,1.8-0.4,3.6-1.3,5.3
		c-0.9,1.7-2,3.1-3.5,4.2c-1.5,1-3.3,1.7-5.5,1.9c-1.4,0.1-4.6,0.2-9.8,0.3h-13.7V30.2L208.6,30.2z M216.7,36.9L216.7,36.9v9.3h5.3
		c3.2,0,5.1,0,5.9-0.1c1.4-0.2,2.5-0.6,3.3-1.4c0.8-0.8,1.2-1.8,1.2-3.1c0-1.2-0.3-2.3-1-3c-0.7-0.8-1.7-1.3-3.1-1.4
		c-0.8-0.1-3.1-0.1-7-0.1H216.7L216.7,36.9z M216.7,53L216.7,53v10.8h7.5c2.9,0,4.8-0.1,5.6-0.2c1.2-0.2,2.2-0.8,3-1.6
		c0.8-0.9,1.1-2,1.1-3.4c0-1.2-0.3-2.2-0.9-3.1c-0.6-0.8-1.4-1.5-2.5-1.8c-1.1-0.4-3.5-0.6-7.2-0.6H216.7z"/>
	<path class="st0" d="M246.3,30.2h14.9c3.4,0,5.9,0.3,7.7,0.8c2.4,0.7,4.4,1.9,6.1,3.7c1.7,1.8,3,4,3.9,6.5c0.9,2.6,1.3,5.7,1.3,9.5
		c0,3.3-0.4,6.2-1.2,8.6c-1,2.9-2.4,5.3-4.3,7.1c-1.4,1.4-3.3,2.4-5.7,3.2c-1.8,0.6-4.2,0.9-7.2,0.9h-15.3V30.2L246.3,30.2z
		 M254.4,37.1L254.4,37.1v26.7h6.1c2.3,0,3.9-0.1,4.9-0.4c1.3-0.3,2.4-0.9,3.3-1.7c0.9-0.8,1.6-2.1,2.1-3.9c0.6-1.8,0.8-4.3,0.8-7.4
		c0-3.1-0.3-5.5-0.8-7.2c-0.6-1.7-1.3-3-2.3-3.9c-1-0.9-2.2-1.6-3.8-1.9c-1.1-0.3-3.4-0.4-6.7-0.4H254.4z"/>
	<path class="st1" d="M333.7,49.1c-0.8-1.9-2-3.6-3.4-5c-1.4-1.4-3-2.5-4.8-3.3l5.1-4.2c0.5-0.4,0.8-1,0.8-1.6v-4.7h-30.5l3.5,6.3
		h16.3l-5.2,3.8v6.2l1.5-0.2c1.5-0.2,3.1-0.2,4.8,0.1c1.5,0.3,2.7,1,3.8,1.9c1.1,1,1.9,2.1,2.4,3.2c0.5,1.1,0.7,2.4,0.7,3.7
		s-0.2,2.5-0.7,3.7c-0.5,1.2-1.2,2.2-2,3c-0.9,0.9-1.9,1.5-3,2c-0.9,0.4-1.9,0.6-2.9,0.7l3.2,5.9c0.7-0.2,1.4-0.4,2.1-0.7
		c1.9-0.8,3.6-2,5-3.4c1.4-1.4,2.6-3.1,3.4-5c0.8-1.9,1.2-4,1.2-6.2C334.9,53.1,334.5,51,333.7,49.1L333.7,49.1z"/>
	<polygon class="st0" points="142.6,30.2 132.5,30.2 140.9,45.3 127.9,70.6 138.1,70.6 146.2,54.2 154.7,70.5 164.9,70.5 	"/>
	<polygon class="st0" points="293.3,30.2 283.2,30.2 291.6,45.3 278.6,70.6 288.7,70.6 296.9,54.2 305.3,70.5 315.6,70.5 	"/>
	<polygon class="st0" points="194.3,30.2 184.8,54.5 175.3,30.2 166.6,30.2 166.6,70.5 175.2,70.5 175.3,51.2 182.7,70.5 
		183.6,70.5 186,70.5 186.9,70.5 194.3,51.2 194.4,70.5 203,70.5 203,30.2 	"/>
	<rect x="65.8" y="23.7" transform="matrix(0.866 -0.5 0.5 0.866 -12.0368 41.0358)" class="st2" width="9.5" height="38.5"/>
	<path class="st3" d="M52.2,48.4l-12.7-22c-7.4,5.4-12.2,14.2-12.2,24.1c0,9.1,4.1,17.3,10.5,22.8L52.2,48.4z"/>
	<path class="st3" d="M57.3,57.3L45.4,78c3.6,1.6,7.6,2.4,11.8,2.4c4.3,0,8.3-0.9,12-2.5L57.3,57.3z"/>
	<path class="st1" d="M57.2,20.6c-3.5,0-6.8,0.6-9.9,1.7l29.4,50.9c6.4-5.5,10.4-13.6,10.4-22.7C87.1,34,73.7,20.6,57.2,20.6z
		 M60.9,35.6l-2.6-4.4c-0.5-0.9-0.2-2,0.7-2.5l4.4-2.6c0.9-0.5,2-0.2,2.5,0.7l2.6,4.4c0.5,0.9,0.2,2-0.7,2.5l-4.4,2.6
		C62.5,36.8,61.4,36.5,60.9,35.6z M67.6,47.1L65,42.6c-0.5-0.9-0.2-2,0.7-2.5l4.4-2.6c0.9-0.5,2-0.2,2.5,0.7l2.6,4.4
		c0.5,0.9,0.2,2-0.7,2.5L70,47.7C69.2,48.2,68.1,47.9,67.6,47.1z M81.2,56.7l-4.4,2.6c-0.9,0.5-2,0.2-2.5-0.7l-2.6-4.4
		c-0.5-0.9-0.2-2,0.7-2.5l4.4-2.6c0.9-0.5,2-0.2,2.5,0.7l2.6,4.4C82.3,55.1,82,56.2,81.2,56.7z"/>
</g>
<rect id="_x3C_Slice_x3E_" class="st4" width="362.2" height="100.5"/>
</svg>
