<?xml version="1.0" encoding="UTF-8"?>
<svg width="105px" height="30px" viewBox="0 0 105 30" version="1.1" xmlns="http://www.w3.org/2000/svg" xmlns:xlink="http://www.w3.org/1999/xlink">
    <!-- Generator: Sketch 54.1 (76490) - https://sketchapp.com -->
    <title>logo_azul</title>
    <desc>Created with Sketch.</desc>
    <defs>
        <path d="M30.0158295,5.94420086 C13.1161597,14.1162439 20.1204548,28.8348369 1.50112737,23.641172 C18.1469453,22.6871109 10.7484371,11.2170242 30.0157615,5.94421947 C30.0272318,5.92967827 30.0309335,5.91097753 30.050407,5.8979353 C30.115347,5.88013071 30.1791014,5.86206235 30.2435145,5.84333456 C30.2341621,5.81075876 30.213218,5.80205429 30.2101883,5.76618134 C30.2449635,5.73373742 30.29054,5.74310131 30.3379607,5.71672414 C30.3815613,5.6900832 30.4247668,5.6499899 30.4775882,5.6295476 C30.4649426,5.58826732 30.4320116,5.57455119 30.4200247,5.53261149 C30.4882578,5.51282862 30.6087853,5.49845306 30.676228,5.47972527 C30.6839998,5.50346472 30.6605529,5.49251819 30.6677977,5.51823594 C30.6695101,5.51823594 30.6721446,5.51665331 30.6759646,5.51665331 C30.6912446,5.49687043 30.7254928,5.49251819 30.7494666,5.47972527 C30.8134845,5.44451174 30.8946265,5.41299103 30.9741879,5.389911 C30.9565368,5.34810319 30.9176782,5.307878 30.8921238,5.2753022 C30.8342969,5.20091858 30.7856907,5.12125952 30.7293128,5.04951362 C30.6857122,4.99016498 30.6527812,4.92949749 30.6066777,4.87054452 C30.4831206,4.70806115 30.3665448,4.53067468 30.2410117,4.36489416 C30.2000456,4.31359056 30.1734373,4.25964925 30.1320759,4.20570794 C30.0652919,4.1193227 30.0072015,4.02449678 29.9389685,3.93534194 C29.8927333,3.87638896 29.8457078,3.82508537 29.8171237,3.74292048 C30.017476,3.68568202 30.2195407,3.62738848 30.421342,3.5684355 C30.4546682,3.59586776 30.4998495,3.61288103 30.5339661,3.63846689 C30.6110246,3.6933314 30.692957,3.73856825 30.7700156,3.79422408 C30.7925404,3.80965472 30.8195438,3.81835919 30.8403562,3.83444926 C31.0989305,4.01737494 31.3818738,4.16548275 31.6389992,4.34946352 C31.6974847,4.39140322 31.7688791,4.42213262 31.829077,4.46407232 C31.9203618,4.53067468 32.0174424,4.58303336 32.1088589,4.6497676 C32.1303299,4.66348373 32.1594409,4.67284762 32.1797264,4.68920147 C32.2058078,4.70806115 32.3048643,4.78138968 32.3310774,4.78336797 C32.3541291,4.75857343 32.4220987,4.74657182 32.4554249,4.72678894 C32.5486855,4.67456214 32.6656565,4.64370085 32.7607613,4.59239725 C32.7821006,4.58408845 32.8023861,4.57630718 32.8254378,4.56931723 C32.9121122,4.52236587 33.0256583,4.50258299 33.115099,4.454049 C33.1461859,4.44363001 33.1767458,4.43321103 33.2074375,4.42384714 C33.2360217,4.40683386 33.2790954,4.40445992 33.3120264,4.38639155 C33.4064726,4.33680247 33.5613801,4.30317158 33.6780876,4.26901315 C33.9511516,4.18961786 34.2263231,4.11088201 34.4997823,4.03109107 C34.4866099,3.98097444 34.4590795,3.92861576 34.4356327,3.88746738 C34.4083658,3.83946093 34.3963789,3.7865747 34.3710879,3.74199728 C34.361472,3.71654331 34.3519879,3.6924082 34.3425038,3.66853686 C34.2907362,3.5787226 34.2630741,3.46925734 34.2109114,3.3801025 C34.2045887,3.36295734 34.1989245,3.34594407 34.1918114,3.32813948 C34.1537432,3.26219655 34.1358287,3.18174618 34.095126,3.11171479 C34.0708887,3.06713738 34.0594288,3.01319606 34.031635,2.9662447 C34.0046315,2.91902956 33.9777598,2.86099979 33.9597136,2.80705848 C33.9515467,2.80705848 33.9454874,2.81048751 33.9389012,2.81207014 C33.9383743,2.81207014 33.9378474,2.80943242 33.936135,2.80877299 C33.9404819,2.80877299 33.9427212,2.8077179 33.9444336,2.80705848 C33.9473316,2.80270624 33.9482536,2.80099173 33.952864,2.79835401 C33.8243013,2.64523453 33.6841469,2.49712672 33.5543987,2.34928268 C33.1500059,1.88121979 32.7359971,1.42449909 32.3323946,0.958150715 C32.1900009,0.79553546 32.0465534,0.63305209 31.9049501,0.47215135 C31.8649059,0.425331873 31.8235446,0.379039939 31.7829736,0.333407434 C31.7671667,0.314020214 31.7558384,0.287511157 31.7346308,0.279861778 C31.6612605,0.259023813 31.6534888,0.31032741 31.6249047,0.197433121 C31.8551584,0.131753966 32.0838313,0.0656791543 32.3123726,0 C32.3310774,0.01780459 32.3571587,0.0282235723 32.377576,0.043654217 C32.4339539,0.0845388312 32.4925711,0.1230495 32.5472366,0.165912402 C32.7228247,0.295951852 32.9065798,0.414912891 33.0817728,0.545875542 C33.5891739,0.923860394 34.1148846,1.27639128 34.6241298,1.65200218 C34.6959194,1.70264635 34.7732414,1.74959771 34.8433186,1.80182451 C35.0341868,1.94017277 35.2295336,2.06955279 35.4157914,2.21067065 C35.459392,2.24245514 35.5051003,2.27226135 35.5473837,2.30312263 L35.6208857,2.33833616 L35.9947186,2.62479223 C35.9976165,2.63151841 36.0993075,2.70023094 36.113402,2.71183689 C36.1971785,2.77527398 36.2860922,2.83251244 36.3713177,2.89687274 C36.434677,2.94487919 36.5064666,2.9857638 36.5719334,3.03297894 C36.629892,3.07650127 36.6842941,3.12437584 36.7475216,3.1628865 C36.7743933,3.18003166 36.8345912,3.19374779 36.8669953,3.20377112 C36.9080932,3.2169597 36.9478739,3.23898464 36.9884449,3.25270077 C37.0139994,3.26219655 37.0439007,3.2654937 37.066689,3.27749531 C37.0676111,3.28079246 37.0670842,3.28356206 37.0670842,3.28791429 C37.9142016,3.04234284 38.7644804,2.79677138 39.6126516,2.54948541 C39.646373,2.55805799 39.7267246,2.51625017 39.7697984,2.51255737 C39.8946728,2.48367437 40.0184934,2.45887983 40.1440265,2.43144757 C40.2483519,2.42445762 40.3534677,2.38792524 40.4551587,2.38423243 C40.757202,2.37579174 41.0537128,2.33899559 41.310443,2.4023008 C41.3549657,2.41443429 41.4075236,2.42643591 41.4583691,2.44147089 L41.4715415,2.4451637 C41.5526835,2.47233218 41.6305325,2.51084285 41.6697862,2.57691766 C41.7224759,2.65789558 41.6509497,2.77527398 41.6176235,2.81813689 C41.583507,2.86165922 41.5526835,2.91058887 41.5134298,2.95081405 C41.3903995,3.08243613 41.2275886,3.17831715 41.0596404,3.28962881 C40.6328544,3.57001813 40.0321927,3.74898723 39.4104552,3.92927519 C38.7507811,4.12103722 38.0928194,4.31187605 37.432355,4.50363808 C37.4298522,4.53172976 37.3934964,4.55757939 37.3759771,4.58039564 C37.3418606,4.62062083 37.3132764,4.66941859 37.2788965,4.71069886 C37.2605868,4.73443832 37.2298951,4.75659514 37.2200158,4.78508248 C37.1426938,4.97236039 37.0657669,5.1587151 36.9952946,5.34810319 L36.876216,5.63350417 L36.692461,6.08560887 L36.6593982,6.16500415 C36.6325265,6.23609063 36.5999907,6.30770465 36.5721969,6.37879112 C36.4948749,6.58321419 36.4005604,6.78183428 36.3227115,6.98625736 C36.2779253,7.10521839 36.2194399,7.22417943 36.1720192,7.34314047 C36.0206683,7.72824716 35.8593063,8.10781464 35.7069016,8.49384453 C35.6521043,8.63390731 35.5845299,8.77357442 35.5311817,8.9136372 C35.4456927,9.134546 35.3455825,9.35097068 35.2606204,9.57003308 C35.2380956,9.63241509 35.2103019,9.69149995 35.1858012,9.75243122 C35.1817177,9.76588357 35.1695991,9.819693 35.1602467,9.82852935 C34.9313103,9.89354908 34.7019787,9.96081086 34.4723837,10.0268857 C34.4660609,10.0003766 34.4588161,9.9782198 34.4510444,9.95421657 C34.4733057,9.93443369 34.4976747,9.91227687 34.5288933,9.89684622 C34.5612974,9.66828804 34.6056884,9.44012552 34.639805,9.21420505 C34.720947,8.68547467 34.8072262,8.16281104 34.8877096,7.63302557 C34.9247241,7.39615858 34.9655585,7.15915971 35.0017827,6.91859991 C35.0124523,6.84593081 35.0244392,6.77576754 35.0364261,6.70217523 C35.0428806,6.66353268 35.0573702,6.62172486 35.0568433,6.57912573 C35.0495985,6.57912573 35.0440661,6.57807064 35.0380068,6.57648801 C35.0380068,6.57648801 35.0364261,6.5747735 35.0364261,6.5738503 C35.0499937,6.57200389 35.0526282,6.57305898 35.0564481,6.56198057 C35.063693,6.53125117 35.0419585,6.49102598 35.0389289,6.45752697 C35.0380068,6.38142884 35.0128475,6.29834075 35.0095544,6.2232977 C35.0056027,6.20615254 35.0017827,6.18874361 34.9974358,6.17093902 C34.9936158,6.06912314 34.9610799,5.96058108 34.9577868,5.85863332 C34.9530448,5.84162005 34.9492248,5.82355168 34.9456682,5.80574709 C34.9418482,5.72859387 34.9145813,5.65104499 34.9104979,5.57059462 C34.9086538,5.52931435 34.8937689,5.48579202 34.8915296,5.4412146 C34.8903441,5.38120654 34.8783572,5.307878 34.8650531,5.24510034 C34.5803974,5.32924351 34.2960052,5.41035331 34.0134571,5.49251819 C33.9221723,5.51995045 33.8199544,5.56017564 33.7359145,5.5651873 C33.7160241,5.56953953 33.6875717,5.58061794 33.67216,5.58154115 C33.620129,5.59433407 33.5678346,5.6080502 33.5167256,5.61912861 C33.3774933,5.64656087 33.2385244,5.67372936 33.0996873,5.70063407 C33.0160425,5.70630516 32.9321343,5.73703456 32.8463819,5.74244188 C32.7591806,5.75417973 32.6700034,5.76446682 32.5805627,5.77660032 C32.57806,5.82012265 32.5365669,5.86549138 32.52076,5.90492525 C32.485458,5.99144237 32.4421208,6.07083766 32.4061601,6.15722289 C32.3977298,6.18109423 32.3781029,6.20417425 32.3687505,6.22830936 C32.2469057,6.52795402 32.0833044,6.80834334 31.9619866,7.10693291 C31.9303728,7.18131653 31.8841377,7.25068849 31.854368,7.32678663 C31.8051032,7.44403315 31.7385826,7.55798252 31.6894495,7.67483339 C31.6841805,7.69026403 31.6725888,7.70846428 31.6671881,7.72442247 C31.6683736,7.73220373 31.669164,7.73919368 31.6683736,7.74526043 C31.6683736,7.74526043 31.6445316,7.77005497 31.6418971,7.77836378 C31.636233,7.79049728 31.6321495,7.81792954 31.6218751,7.82742532 C31.4296896,7.88031155 31.2396118,7.93689058 31.0472947,7.99426092 C31.0376789,7.97711576 31.0198961,7.96076192 31.0112023,7.94625447 C31.0014547,7.93095571 31.0121244,7.90339157 31.0129147,7.89073053 C31.018974,7.84114145 31.0167347,7.79379443 31.0210816,7.74763438 C31.0321464,7.63632272 31.0313561,7.52606615 31.0412354,7.41580958 C31.0492706,7.33113886 31.043343,7.252403 31.0515099,7.16918303 C31.0758788,6.90250984 31.0770643,6.62700029 31.1023554,6.36006333 C31.1134202,6.2326616 31.1056485,6.10591929 31.1218505,5.97930887 C31.0181837,6.00318021 30.9138582,6.01280788 30.8148017,6.02889796 C30.8228369,6.05210987 30.8217831,6.05210987 30.8283693,6.07518989 C30.7285225,6.07518989 30.6576549,6.12649349 30.6020674,6.14179224 C30.5895536,6.09892934 30.6049653,6.07426669 30.5925833,6.02889796 C30.5405523,6.04103145 30.4844378,6.02731533 30.4343827,6.02889796 C30.3947337,6.02889796 30.3408586,6.05712153 30.3059517,6.05975924 C30.3008145,6.05633021 30.2930427,6.04934026 30.2889593,6.0470982 C30.2768407,6.01280788 30.2880372,6.00318021 30.2811876,5.97495664 C30.2078173,5.99645404 30.0705608,6.05540701 30.0347319,6.00911508 C30.0272236,5.98774957 30.0216912,5.96664783 30.0157636,5.94422724 Z M23.1495812,13.8126559 C23.6002092,15.069528 23.8454794,16.4254465 23.8454794,17.8380758 C23.8454794,24.4315771 18.5074937,29.7761194 11.9224763,29.7761194 C8.70537957,29.7761194 5.78716478,28.5005194 3.64203849,26.4260869 C13.6300152,28.5168733 16.0900937,24.5283813 19.4941069,19.0125194 C20.49982,17.3835972 21.6080145,15.5869162 23.1495812,13.8126559 Z M11.9224763,5.90055983 C14.6824904,5.90055983 17.2227889,6.83985087 19.2438311,8.41575492 C16.3123122,10.5453158 14.6255857,12.8752112 13.0614942,15.0344464 C10.7235239,18.2649903 8.72316232,21.0274714 1.38059986,21.4492424 L0.569970001,21.4955343 C0.199957121,20.3437751 0,19.1143352 0,17.8380758 C0,11.245234 5.33811747,5.90055983 11.9224763,5.90055983 Z M26.9127268,29.3174864 L28.3836894,12.1145596 L30.4784971,12.1145596 L32.8086956,24.0260941 L35.198697,12.1145596 L37.2226371,12.1145596 L38.7170466,29.3174864 L36.5741596,29.3174864 L35.8806324,17.250986 L33.5862628,29.3174864 L32.019932,29.3174864 L29.7260892,17.250986 L29.0305862,29.3174864 L26.9127268,29.3174864 Z M45.6368275,29.3174864 L45.6368275,28.1865652 C45.3471663,28.6493526 45.0158803,28.9901457 44.6425743,29.2055153 C44.2699269,29.4210167 43.8405065,29.5288994 43.3539178,29.5288994 C42.3811357,29.5288994 41.6433492,29.023249 41.141744,28.0095744 C40.6393484,26.996691 40.3885458,25.4995228 40.3885458,23.5197843 C40.3885458,21.5561358 40.6372409,20.0700461 41.1356847,19.0605918 C41.6346554,18.0500824 42.3734957,17.5461465 43.3539178,17.5461465 C43.8482782,17.5461465 44.2820455,17.6524465 44.6545612,17.8634639 C45.0272085,18.0760639 45.3550697,18.4103945 45.6368275,18.8654007 L45.6368275,17.7576914 L47.7554772,17.7576914 L47.7554772,29.3174864 L45.6368275,29.3174864 Z M42.5302473,23.5197843 C42.5302473,24.997829 42.6538045,26.0393316 42.9010505,26.6432369 C43.1484283,27.2472741 43.553875,27.5502159 44.1184443,27.5502159 C44.6836722,27.5502159 45.0906995,27.2463509 45.3361015,26.6371702 C45.5846648,26.0279894 45.7086171,24.9895202 45.7086171,23.5197843 C45.7086171,22.0420033 45.5867723,21.0086777 45.3428194,20.415587 C45.0992616,19.8210456 44.6915756,19.5252256 44.1184443,19.5252256 C43.546235,19.5252256 43.1368366,19.8221007 42.8948595,20.415587 C42.6519603,21.0086777 42.5302473,22.0420033 42.5302473,23.5197843 Z M51.793004,23.1900697 L49.5214227,17.7576914 L51.7457151,17.7576914 L52.8973786,21.0934803 L54.0761772,17.7576914 L56.2761007,17.7576914 L54.0279661,23.1900697 L56.6766735,29.3174864 L54.4406576,29.3174864 L52.8973786,25.289033 L51.3803126,29.3174864 L49.1321781,29.3174864 L51.793004,23.1900697 Z M57.7005119,29.3174864 L59.1716062,12.1145596 L61.2662822,12.1145596 L63.5959539,24.0260941 L65.9863504,12.1145596 L68.0087098,12.1145596 L69.5039096,29.3174864 L67.3629985,29.3174864 L66.6690762,17.250986 L64.3744431,29.3174864 L62.8089026,29.3174864 L60.5132157,17.250986 L59.8196886,29.3174864 L57.7005119,29.3174864 Z M71.386826,14.3045242 C71.386826,13.9206044 71.5167059,13.5935275 71.7764658,13.3268543 C72.035567,13.0597855 72.3567103,12.9271083 72.7426617,12.9271083 C73.1175484,12.9271083 73.4357937,13.0597855 73.6950267,13.3268543 C73.9528107,13.5935275 74.0826906,13.9206044 74.0826906,14.3045242 C74.0826906,14.6829047 73.9508348,15.002596 73.688177,15.2651807 C73.4263096,15.5296118 73.1097767,15.6605745 72.7426617,15.6605745 C72.3567103,15.6605745 72.035567,15.5306669 71.7764658,15.2723025 C71.5172328,15.013015 71.386826,14.6913454 71.386826,14.3045242 Z M71.6820196,29.3174864 L71.6820196,17.7576914 L73.799879,17.7576914 L73.799879,29.3174864 L71.6820196,29.3174864 Z M76.5071114,29.3174864 L76.5071114,11.0536698 L78.6262881,11.0536698 L78.6262881,29.3174864 L76.5071114,29.3174864 Z M81.3093491,29.3174864 L81.3093491,11.0536698 L83.4274719,11.0536698 L83.4274719,18.9122202 C83.6701076,18.4957246 83.9954661,18.1791986 84.3986734,17.9636971 C84.8020125,17.7481956 85.282937,17.6393898 85.8401298,17.6393898 C86.686852,17.6393898 87.3170199,17.8766525 87.7297114,18.3470893 C88.1424029,18.8191088 88.34618,19.5369634 88.34618,20.5019722 L88.3476289,29.3174864 L86.2177826,29.3174864 L86.2177826,21.5528387 C86.2177826,20.7664034 86.1155648,20.23187 85.9115242,19.9505575 C85.7062981,19.6679261 85.3541997,19.5252256 84.852858,19.5252256 C84.381681,19.5252256 84.0265529,19.6722783 83.787342,19.9665157 C83.5479994,20.2627313 83.4274719,20.7007242 83.4274719,21.2814176 L83.4274719,29.3174864 L81.3093491,29.3174864 Z M95.6919697,29.3174864 L95.6919697,28.1865652 C95.4015181,28.6493526 95.0691783,28.9901457 94.6962675,29.2055153 C94.3238836,29.4210167 93.8938046,29.5288994 93.4089283,29.5288994 C92.4349606,29.5288994 91.6966473,29.023249 91.1953055,28.0095744 C90.6937003,26.996691 90.4422391,25.4995228 90.4422391,23.5197843 C90.4422391,21.5561358 90.6919879,20.0700461 91.1899048,19.0605918 C91.6880852,18.0500824 92.4269255,17.5461465 93.4089283,17.5461465 C93.9018397,17.5461465 94.3356071,17.6524465 94.7083861,17.8634639 C95.0818238,18.0760639 95.4088947,18.4103945 95.6917062,18.8654007 L95.6919697,17.7576914 L97.8102243,17.7576914 L97.8102243,29.3174864 L95.6919697,29.3174864 Z M92.5844674,23.5197843 C92.5844674,24.997829 92.7081563,26.0393316 92.9547438,26.6432369 C93.2010677,27.2472741 93.6079634,27.5502159 94.1743768,27.5502159 C94.7378923,27.5502159 95.1428121,27.2463509 95.3908485,26.6371702 C95.6382263,26.0279894 95.7603345,24.9895202 95.7603345,23.5197843 C95.7605979,22.0420033 95.6400704,21.0086777 95.3961175,20.415587 C95.1541404,19.8210456 94.7455323,19.5252256 94.1743768,19.5252256 C93.599533,19.5252256 93.1913202,19.8221007 92.9493431,20.415587 C92.7052584,21.0086777 92.5838088,22.0420033 92.5844674,23.5197843 Z M99.692706,26.878363 C99.9909292,27.1377825 100.286123,27.3317866 100.581975,27.4620898 C100.874798,27.5910742 101.176051,27.655962 101.481914,27.655962 C101.929117,27.655962 102.293861,27.5227573 102.576672,27.2548971 C102.858035,26.9879602 102.999638,26.6465077 102.999638,26.2317267 C102.999902,25.7346489 102.611711,25.1184782 101.834671,24.3803131 C101.731663,24.2783653 101.654604,24.2041136 101.598753,24.1571622 C100.84674,23.4400989 100.339998,22.8477995 100.081555,22.3774946 C99.8221907,21.9060026 99.692706,21.3875593 99.692706,20.8212415 C99.692706,19.8468688 99.9909292,19.0554218 100.586981,18.4412294 C101.183295,17.8287515 101.954408,17.5214575 102.905719,17.5214575 C103.219222,17.5214575 103.526666,17.5615508 103.828973,17.6393634 C104.131807,17.7191544 104.431479,17.8370603 104.730888,17.9928175 L104.730888,20.1735501 C104.502742,19.9066131 104.252334,19.7098394 103.982168,19.5841522 C103.710817,19.458465 103.399948,19.3959511 103.045874,19.3959511 C102.653863,19.3959511 102.329953,19.520847 102.075989,19.7741997 C101.82084,20.0255742 101.693199,20.3431553 101.693199,20.7277344 C101.693199,21.2387921 102.06532,21.835048 102.811932,22.5184805 C102.959463,22.6518171 103.069584,22.7537649 103.1419,22.8248514 C103.838721,23.4683224 104.324914,24.049939 104.595475,24.567591 C104.863797,25.0869575 105,25.6654088 105,26.3000436 C105,27.2831207 104.703884,28.0669183 104.107833,28.6513045 C103.509411,29.2380647 102.712875,29.528873 101.717832,29.528873 C101.394581,29.528873 101.065534,29.4947146 100.727267,29.42376 C100.390843,29.3537286 100.0452,29.2474286 99.692706,29.1047281 L99.692706,26.878363 Z" id="path-1"></path>
    </defs>
    <g id="Busca" stroke="none" stroke-width="1" fill="none" fill-rule="evenodd">
        <g id="logo_azul">
            <mask id="mask-2" fill="white">
                <use xlink:href="#path-1"></use>
            </mask>
            <use id="Logo-MaxMilhas" fill="#1581C5" xlink:href="#path-1"></use>
        </g>
    </g>
</svg>