<?xml version="1.0" standalone="no"?>
<!DOCTYPE svg PUBLIC "-//W3C//DTD SVG 20010904//EN"
 "http://www.w3.org/TR/2001/REC-SVG-20010904/DTD/svg10.dtd">
<svg version="1.0" xmlns="http://www.w3.org/2000/svg"
 width="430.000000pt" height="430.000000pt" viewBox="0 0 430.000000 430.000000"
 preserveAspectRatio="xMidYMid meet">
<metadata>
Created by potrace 1.11, written by Peter Selinger 2001-2013
</metadata>
<g transform="translate(0.000000,430.000000) scale(0.100000,-0.100000)"
fill="#000000" stroke="none">
<path d="M1905 4285 c-392 -44 -788 -209 -1095 -454 -235 -188 -453 -458 -585
-726 -254 -516 -293 -1091 -110 -1640 230 -689 802 -1220 1504 -1395 190 -48
325 -64 531 -64 331 0 607 60 902 195 803 369 1309 1226 1240 2101 -23 290
-90 536 -216 793 -120 243 -240 409 -432 596 -240 233 -498 391 -807 493 -310
103 -620 137 -932 101z m1512 -1277 c62 -215 111 -393 109 -396 -2 -2 -38 -14
-80 -27 l-75 -23 -15 51 c-58 203 -209 734 -210 741 -1 9 145 56 154 49 2 -2
55 -180 117 -395z m-381 231 c63 -32 122 -93 153 -159 22 -46 26 -69 26 -140
0 -73 -4 -93 -28 -142 -48 -97 -122 -150 -264 -189 -43 -12 -83 -24 -89 -28
-8 -4 -5 -29 11 -83 l22 -78 -76 -23 c-42 -13 -79 -21 -82 -18 -13 12 -229
785 -221 792 9 10 329 97 367 101 53 5 133 -9 181 -33z m-741 -190 c65 -24
154 -102 181 -156 10 -21 50 -150 90 -288 l72 -250 -54 -17 c-105 -33 -105
-33 -130 52 -12 41 -26 74 -30 74 -5 -1 -75 -21 -156 -45 -111 -31 -148 -46
-148 -58 0 -9 9 -44 19 -79 15 -48 17 -64 7 -68 -53 -20 -142 -42 -147 -36 -3
4 -39 123 -79 265 -65 231 -72 265 -68 322 12 138 106 255 238 296 50 15 148
9 205 -12z m-588 -149 c76 -17 75 -16 52 -100 -12 -41 -23 -76 -24 -78 -2 -2
-24 4 -49 12 -169 58 -346 -70 -346 -249 0 -143 122 -265 266 -265 74 0 173
55 214 118 l15 24 64 -59 63 -58 -36 -41 c-88 -102 -203 -149 -351 -142 -81 3
-101 8 -159 37 -169 86 -268 276 -237 452 28 160 146 298 294 344 51 17 169
19 234 5z m-637 -345 c0 -57 3 -61 43 -46 24 9 25 8 31 -46 7 -63 7 -64 -37
-79 -28 -9 -32 -15 -35 -54 l-3 -43 40 7 41 6 0 -59 c0 -58 0 -58 -37 -73 -37
-14 -38 -15 -38 -67 0 -52 -1 -54 -35 -66 -88 -30 -87 -31 -96 28 l-9 53 -33
-8 -34 -9 4 -56 3 -56 -42 -12 c-100 -30 -93 -32 -93 30 0 30 -1 55 -3 55 -1
0 -17 -4 -35 -9 l-32 -10 0 63 c0 63 0 63 33 72 30 9 32 13 35 56 l3 47 -33
-10 c-18 -5 -34 -9 -36 -9 -2 0 -2 28 0 62 3 61 4 63 36 72 31 9 32 10 32 67
l0 58 63 19 62 18 3 -58 c2 -32 4 -58 6 -58 2 0 17 5 35 11 30 11 31 13 31 69
l0 59 48 14 c80 25 82 24 82 -38z m2496 -151 c12 -41 19 -76 15 -78 -3 -2 -89
-27 -191 -56 -102 -29 -188 -55 -192 -59 -12 -11 34 -151 50 -151 8 0 61 14
119 31 57 17 106 29 107 28 2 -2 11 -33 20 -68 10 -36 20 -70 23 -77 2 -7 -37
-23 -109 -44 -62 -18 -116 -35 -119 -39 -4 -3 13 -73 37 -156 24 -82 44 -153
44 -156 0 -12 -153 -51 -159 -40 -14 23 -224 781 -218 787 9 9 541 162 547
157 2 -3 14 -38 26 -79z m-552 -487 c60 -210 111 -389 113 -398 4 -12 -14 -21
-82 -38 l-85 -23 -167 158 c-208 199 -283 268 -283 258 0 -4 32 -117 71 -252
39 -135 67 -248 62 -252 -4 -5 -40 -17 -79 -28 l-70 -19 -114 394 c-66 229
-109 397 -104 402 5 4 42 17 83 29 l74 22 88 -83 c49 -45 152 -143 230 -217
79 -74 140 -128 137 -120 -28 84 -140 501 -135 506 6 7 123 42 142 43 6 1 59
-171 119 -382z m-1004 93 c223 -42 381 -265 343 -484 -32 -186 -170 -327 -351
-358 -139 -24 -271 20 -375 123 -165 166 -167 431 -3 595 111 110 239 152 386
124z m-600 -191 c61 -16 62 -17 39 -99 -12 -41 -22 -76 -24 -78 -1 -1 -22 5
-46 14 -55 20 -152 13 -207 -15 -92 -47 -148 -148 -140 -254 12 -142 112 -238
253 -241 85 -1 144 24 200 86 l46 52 61 -61 60 -60 -55 -56 c-33 -32 -83 -69
-123 -88 -65 -32 -74 -34 -179 -34 -103 0 -114 2 -178 32 -275 131 -339 479
-125 691 57 57 146 107 218 122 48 10 143 5 200 -11z"/>
<path d="M2782 3086 c-46 -14 -86 -27 -90 -30 -7 -7 79 -316 88 -316 3 0 48
13 101 30 127 40 161 73 167 163 3 52 0 67 -20 96 -54 80 -117 94 -246 57z"/>
<path d="M2090 2877 c-43 -28 -71 -75 -72 -124 -2 -46 42 -213 56 -213 11 0
298 82 305 87 8 5 -42 172 -60 203 -43 70 -159 95 -229 47z"/>
<path d="M888 2323 c-14 -3 -18 -15 -18 -49 0 -46 4 -49 48 -38 18 5 22 13 22
50 0 46 -5 49 -52 37z"/>
<path d="M1838 1836 c-224 -80 -224 -414 1 -491 180 -61 350 58 351 246 0 148
-109 259 -255 258 -33 0 -77 -6 -97 -13z"/>
</g>
</svg>
