<?xml version="1.0" encoding="UTF-8"?>
<svg width="658px" height="254px" viewBox="0 0 658 254" version="1.1" xmlns="http://www.w3.org/2000/svg" xmlns:xlink="http://www.w3.org/1999/xlink">
    <!-- Generator: Sketch 39.1 (31720) - http://www.bohemiancoding.com/sketch -->
    <title>rect</title>
    <desc>Created with Sketch.</desc>
    <defs></defs>
    <g id="Page-2" stroke="none" stroke-width="1" fill="none" fill-rule="evenodd">
        <g id="rect" fill="#000000">
            <g id="Group">
                <path d="M91.1990377,76.5267376 C90.3282759,88.587008 85.8848962,98.0811211 77.8687655,105.009362 C69.8526348,111.937602 59.2884037,115.40167 46.1757554,115.40167 C31.8337963,115.40167 20.552478,110.564805 12.3314621,100.890928 C4.11044627,91.2170516 0,77.9381232 0,61.0537446 L0,54.2025189 C0,43.4252559 1.89515903,33.9311429 5.68553394,25.7198949 C9.47590885,17.508647 14.8924782,11.2091747 21.9354046,6.82128906 C28.978331,2.43340344 37.1608081,0.239493534 46.4830815,0.239493534 C59.3908448,0.239493534 69.7886092,3.7035618 77.6766867,10.6318023 C85.5647642,17.5600427 90.12339,27.2850936 91.3527007,39.8072468 L68.3032388,39.8072468 C67.7398047,32.5710845 65.7293995,27.3236626 62.271963,24.0648235 C58.8145264,20.8059845 53.5516185,19.1765894 46.4830815,19.1765894 C38.7998892,19.1765894 33.0503864,21.9350142 29.2344009,27.4519464 C25.4184153,32.9688786 23.4592306,41.5264102 23.3567881,53.124798 L23.3567881,61.5926051 C23.3567881,73.7041958 25.1879215,82.5568147 28.8502432,88.1507274 C32.5125649,93.74464 38.2876779,96.5415544 46.1757554,96.5415544 C53.2955137,96.5415544 58.609642,94.9121593 62.1182999,91.6533203 C65.6269577,88.3944813 67.6373629,83.3523375 68.1495757,76.5267376 L91.1990377,76.5267376 Z M155.066536,90.7680496 L114.653146,90.7680496 L106.969992,113.862069 L82.4607308,113.862069 L124.103425,1.77909483 L145.462593,1.77909483 L187.335782,113.862069 L162.826521,113.862069 L155.066536,90.7680496 Z M120.876501,72.0618939 L148.843181,72.0618939 L134.783009,30.1077586 L120.876501,72.0618939 Z M206.410493,74.3712958 L206.410493,113.862069 L183.361031,113.862069 L183.361031,1.77909483 L227.001346,1.77909483 C235.401636,1.77909483 242.790195,3.31868072 249.167245,6.39789871 C255.544295,9.47711669 260.448659,13.8521066 263.880485,19.5229997 C267.312311,25.1938928 269.028198,31.6473237 269.028198,38.883486 C269.028198,49.8660301 265.276295,58.5262008 257.772377,64.8642578 C250.268459,71.2023148 239.8835,74.3712958 226.617188,74.3712958 L206.410493,74.3712958 Z M206.410493,55.6651401 L227.001346,55.6651401 C233.096678,55.6651401 237.74494,54.2281932 240.94627,51.3542565 C244.1476,48.4803197 245.748241,44.3747573 245.748241,39.0374461 C245.748241,33.5461741 244.134795,29.1070347 240.907854,25.7198949 C237.680914,22.3327552 233.224729,20.5878911 227.539166,20.4852505 L206.410493,20.4852505 L206.410493,55.6651401 Z M294.940915,113.862069 L271.891453,113.862069 L271.891453,1.77909483 L294.940915,1.77909483 L294.940915,113.862069 Z M343.211611,86.0722656 L368.566019,1.77909483 L394.227753,1.77909483 L355.274163,113.862069 L331.225891,113.862069 L292.425963,1.77909483 L318.010866,1.77909483 L343.211611,86.0722656 Z M447.722994,90.7680496 L407.309604,90.7680496 L399.62645,113.862069 L375.117189,113.862069 L416.759883,1.77909483 L438.119051,1.77909483 L479.99224,113.862069 L455.482979,113.862069 L447.722994,90.7680496 Z M413.532958,72.0618939 L441.499639,72.0618939 L427.439467,30.1077586 L413.532958,72.0618939 Z M517.429689,72.8316945 L499.066951,72.8316945 L499.066951,113.862069 L476.017489,113.862069 L476.017489,1.77909483 L517.583352,1.77909483 C530.798443,1.77909483 540.991325,4.7299678 548.162305,10.6318023 C555.333284,16.5336367 558.91872,24.8730603 558.91872,35.6503233 C558.91872,43.2970479 557.266859,49.6734995 553.963086,54.7798693 C550.659313,59.8862392 545.652508,63.9533119 538.94252,66.9812096 L563.144455,112.784348 L563.144455,113.862069 L538.404699,113.862069 L517.429689,72.8316945 Z M499.066951,54.1255388 L517.660183,54.1255388 C523.448188,54.1255388 527.929983,52.6501023 531.105703,49.6991851 C534.281422,46.7482678 535.869258,42.6811951 535.869258,37.4978448 C535.869258,32.211854 534.371058,28.054972 531.374613,25.0270744 C528.378168,21.9991767 523.781127,20.4852505 517.583352,20.4852505 L499.066951,20.4852505 L499.066951,54.1255388 Z M625.167996,90.7680496 L584.754606,90.7680496 L577.071452,113.862069 L552.562191,113.862069 L594.204886,1.77909483 L615.564054,1.77909483 L657.437243,113.862069 L632.927982,113.862069 L625.167996,90.7680496 Z M590.977961,72.0618939 L618.944641,72.0618939 L604.88447,30.1077586 L590.977961,72.0618939 Z" id="CAPIVARA"></path>
                <path d="M83.2853891,216.861395 C82.004857,228.665064 77.7919697,237.697302 70.6466008,243.958378 C63.5012319,250.219455 53.9870213,253.349946 42.1036838,253.349946 C33.805836,253.349946 26.4684973,251.271505 20.0914476,247.114561 C13.714398,242.957617 8.78442346,237.068701 5.30137624,229.447636 C1.81832903,221.826572 0.0512212826,213.115081 0,203.312904 L0,188.763672 C0,178.807534 1.74149749,169.980575 5.2245447,162.28253 C8.70759192,154.584485 13.7143972,148.644249 20.2451107,144.461645 C26.7758243,140.27904 34.2924347,138.187769 42.7951676,138.187769 C54.7809478,138.187769 64.2439378,141.43373 71.1844216,147.925748 C78.1249054,154.417765 82.1585209,163.385853 83.2853891,174.83028 L73.7582781,174.83028 C71.4020991,155.790449 61.0811655,146.270676 42.7951676,146.270676 C32.6533537,146.270676 24.5733176,150.068321 18.5548168,157.663726 C12.5363161,165.25913 9.52711093,175.753974 9.52711093,189.148572 L9.52711093,202.851024 C9.52711093,215.783739 12.4594854,226.098965 18.3243222,233.79701 C24.1891591,241.495055 32.1155337,245.344019 42.1036838,245.344019 C51.9893913,245.344019 59.4419761,242.970491 64.4616618,238.223363 C69.4813475,233.476236 72.5801886,226.355651 73.7582781,216.861395 L83.2853891,216.861395 Z M174.504915,201.850283 C174.504915,212.165663 172.725002,221.22356 169.165123,229.024246 C165.605244,236.824931 160.521608,242.829316 153.914063,247.037581 C147.306517,251.245845 139.674661,253.349946 131.018264,253.349946 C117.956837,253.349946 107.405411,248.667039 99.3636695,239.301084 C91.3219281,229.93513 87.3011178,217.297695 87.3011178,201.388402 L87.3011178,189.841393 C87.3011178,179.628653 89.1066409,170.583586 92.7177413,162.70592 C96.3288417,154.828254 101.438088,148.772549 108.045633,144.538625 C114.653179,140.3047 122.259425,138.187769 130.864601,138.187769 C139.469776,138.187769 147.063218,140.26621 153.645152,144.423155 C160.227087,148.580099 165.310723,154.456185 168.896213,162.051589 C172.481703,169.646994 174.351252,178.448293 174.504915,188.455752 L174.504915,201.850283 Z M165.054636,189.687433 C165.054636,176.190194 162.007015,165.618371 155.911683,157.971646 C149.81635,150.324921 141.467406,146.501616 130.864601,146.501616 C120.46668,146.501616 112.181762,150.337751 106.009598,158.010136 C99.8374331,165.682521 96.7513971,176.395473 96.7513971,190.149313 L96.7513971,201.850283 C96.7513971,215.14224 99.824628,225.675574 105.971182,233.450599 C112.117736,241.225625 120.46668,245.113079 131.018264,245.113079 C141.723512,245.113079 150.072456,241.276944 156.065346,233.60456 C162.058236,225.932175 165.054636,215.244883 165.054636,201.542363 L165.054636,189.687433 Z M183.898852,251.810345 L183.898852,139.727371 L215.169288,139.727371 C224.337898,139.727371 232.558791,141.818642 239.832213,146.001246 C247.105635,150.18385 252.778307,156.175406 256.850399,163.976091 C260.922491,171.776777 262.958506,180.655055 262.958506,190.611193 L262.958506,200.926522 C262.958506,210.933981 260.935296,219.812259 256.888815,227.561624 C252.842333,235.31099 247.144051,241.289715 239.793797,245.49798 C232.443543,249.706244 224.004963,251.810345 214.477805,251.810345 L183.898852,251.810345 Z M193.349131,147.810277 L193.349131,243.804418 L214.554636,243.804418 C226.335531,243.804418 235.785716,239.891304 242.905474,232.064958 C250.025233,224.238613 253.585058,213.653959 253.585058,200.310682 L253.585058,190.457233 C253.585058,177.575838 250.076453,167.260613 243.059137,159.511247 C236.041822,151.761882 226.796519,147.861598 215.322952,147.810277 L193.349131,147.810277 Z M334.278664,198.07826 L281.956385,198.07826 L281.956385,243.804418 L342.115481,243.804418 L342.115481,251.810345 L272.506106,251.810345 L272.506106,139.727371 L341.731323,139.727371 L341.731323,147.810277 L281.956385,147.810277 L281.956385,190.072333 L334.278664,190.072333 L334.278664,198.07826 Z M410.900197,224.251482 C410.900197,218.041725 408.723326,213.12788 404.369517,209.509799 C400.015708,205.891718 392.050918,202.45331 380.474908,199.194471 C368.898898,195.935632 360.447513,192.381754 355.1205,188.532732 C347.53975,183.09278 343.749432,175.959365 343.749432,167.132274 C343.749432,158.561784 347.270842,151.595157 354.313768,146.232186 C361.356695,140.869215 370.3587,138.187769 381.320055,138.187769 C388.747141,138.187769 395.393002,139.624716 401.257839,142.498653 C407.122676,145.37259 411.668497,149.375513 414.895438,154.507543 C418.122378,159.639573 419.735825,165.361701 419.735825,171.674098 L410.208714,171.674098 C410.208714,164.027373 407.596467,157.881859 402.371897,153.237372 C397.147326,148.592885 390.130115,146.270676 381.320055,146.270676 C372.7661,146.270676 365.953772,148.182329 360.882865,152.005691 C355.811958,155.829053 353.276543,160.819878 353.276543,166.978314 C353.276543,172.674867 355.555856,177.319284 360.11455,180.911705 C364.673244,184.504126 371.972167,187.673107 382.011538,190.418743 C392.05091,193.164379 399.657156,196.012613 404.830506,198.96353 C410.003855,201.914448 413.896614,205.442665 416.5089,209.548289 C419.121185,213.653913 420.427308,218.503609 420.427308,224.097522 C420.427308,232.924613 416.905898,240.006708 409.862972,245.344019 C402.820045,250.681331 393.536327,253.349946 382.011538,253.349946 C374.123461,253.349946 366.888563,251.938659 360.306629,249.116043 C353.724694,246.293426 348.730694,242.341822 345.324478,237.261113 C341.918263,232.180403 340.215181,226.355636 340.215181,219.786638 L349.66546,219.786638 C349.66546,227.689964 352.61064,233.925287 358.501087,238.492794 C364.391535,243.0603 372.228274,245.344019 382.011538,245.344019 C390.719157,245.344019 397.710757,243.419537 402.986549,239.570515 C408.262341,235.721492 410.900197,230.615199 410.900197,224.251482 L410.900197,224.251482 Z" id="CODES"></path>
            </g>
        </g>
    </g>
</svg>