<?xml version="1.0" encoding="UTF-8"?>
<svg width="338px" height="85px" viewBox="0 0 338 85" version="1.1" xmlns="http://www.w3.org/2000/svg" xmlns:xlink="http://www.w3.org/1999/xlink">
    <!-- Generator: Sketch 39.1 (31720) - http://www.bohemiancoding.com/sketch -->
    <title>logo_radek</title>
    <desc>Created with Sketch.</desc>
    <defs>
        <rect id="path-1" x="0" y="0" width="338" height="85" rx="8"></rect>
    </defs>
    <g id="Page-1" stroke="none" stroke-width="1" fill="none" fill-rule="evenodd">
        <g id="logo_radek">
            <g>
                <g id="bg">
                    <mask id="mask-2" fill="white">
                        <use xlink:href="#path-1"></use>
                    </mask>
                    <use id="Mask" fill="#E30028" xlink:href="#path-1"></use>
                    <rect id="Rectangle" fill="#000000" mask="url(#mask-2)" x="0" y="0" width="98" height="85"></rect>
                </g>
                <path d="M162.35,66.55 L155.213,66.55 L150.563,53.263 C150.137,52.113 149.588,51.05 148.888,50.087 C148.2,49.125 147.375,48.3 146.438,47.6 C145.5,46.9 144.462,46.362 143.325,45.975 C142.188,45.575 140.988,45.387 139.713,45.387 L127.563,45.387 L127.563,66.55 L121,66.55 L121,17 L142.937,17 C144.288,17 145.563,17.037 146.763,17.088 C147.975,17.15 149.125,17.3 150.213,17.513 C151.3,17.738 152.325,18.063 153.288,18.487 C154.25,18.913 155.175,19.487 156.05,20.225 C157.538,21.537 158.675,23.15 159.463,25.037 C160.238,26.937 160.625,28.862 160.625,30.85 C160.625,32.575 160.375,34.175 159.863,35.625 C159.35,37.075 158.612,38.363 157.65,39.488 C156.675,40.612 155.513,41.55 154.125,42.325 C152.75,43.1 151.2,43.65 149.5,43.988 L149.5,44.1 C152.962,45.2 155.613,48.187 157.438,53.075 L162.35,66.55 L162.35,66.55 Z M127.563,39.45 L142.287,39.45 C144.313,39.45 146.05,39.3 147.513,38.988 C148.988,38.687 150.188,38.2 151.125,37.525 C152.062,36.862 152.75,35.975 153.2,34.875 C153.638,33.775 153.85,32.438 153.85,30.85 C153.85,27.987 152.975,25.888 151.213,24.525 C149.463,23.175 146.8,22.5 143.238,22.5 L127.563,22.5 L127.563,39.45 L127.563,39.45 Z M192.925,57.138 L192.925,49.15 L188.5,49.15 C179.25,49.15 174.613,51.675 174.613,56.7 C174.613,58.525 175.313,59.938 176.688,60.912 C178.063,61.888 179.888,62.375 182.163,62.375 C183.213,62.375 184.25,62.25 185.288,62.013 C186.325,61.763 187.325,61.412 188.263,60.963 C189.2,60.512 190.063,59.963 190.863,59.313 C191.65,58.675 192.338,57.95 192.925,57.138 L192.925,57.138 Z M192.925,62.925 C189.588,65.925 185.388,67.425 180.325,67.425 C178.6,67.425 176.988,67.175 175.513,66.675 C174.038,66.175 172.75,65.475 171.65,64.575 C170.55,63.675 169.688,62.587 169.075,61.312 C168.45,60.037 168.138,58.625 168.138,57.062 C168.138,48.662 175.35,44.462 189.775,44.462 L192.925,44.462 C192.925,42.925 192.875,41.563 192.788,40.362 C192.688,39.175 192.363,38.162 191.825,37.35 C191.288,36.525 190.438,35.9 189.263,35.475 C188.1,35.05 186.45,34.837 184.325,34.837 C178.663,34.837 175.725,36.875 175.538,40.95 L169.088,40.95 C169.55,33.525 174.75,29.825 184.688,29.825 C186.938,29.825 188.963,30.013 190.763,30.4 C192.575,30.8 194.113,31.5 195.363,32.525 C196.625,33.55 197.588,34.95 198.275,36.7 C198.963,38.463 199.3,40.7 199.3,43.4 L199.3,66.55 L192.925,66.55 L192.925,62.925 L192.925,62.925 Z M231.45,56.187 L231.45,39.2 C228.6,36.288 225.438,34.837 221.963,34.837 C220.6,34.837 219.363,35.125 218.275,35.712 C217.175,36.3 216.237,37.175 215.45,38.35 C214.675,39.525 214.062,40.987 213.637,42.75 C213.213,44.5 213,46.55 213,48.9 C213,53.312 213.762,56.662 215.3,58.95 C216.838,61.238 218.975,62.375 221.713,62.375 C223.475,62.375 225.163,61.863 226.8,60.85 C228.437,59.838 229.987,58.288 231.45,56.187 L231.45,56.187 Z M231.45,62.3 C228.525,65.725 225.1,67.425 221.2,67.425 C218.812,67.425 216.688,66.987 214.85,66.113 C213,65.237 211.462,63.975 210.212,62.362 C208.963,60.737 208.025,58.775 207.375,56.5 C206.725,54.212 206.4,51.687 206.4,48.9 C206.4,45.95 206.8,43.287 207.575,40.938 C208.363,38.575 209.425,36.575 210.775,34.925 C212.137,33.275 213.738,32.013 215.575,31.138 C217.425,30.263 219.413,29.825 221.563,29.825 C225.4,29.825 228.7,31.025 231.45,33.45 L231.45,17 L237.825,17 L237.825,66.55 L231.45,66.55 L231.45,62.3 L231.45,62.3 Z M262.437,67.425 C259.825,67.425 257.437,67.013 255.287,66.162 C253.15,65.325 251.3,64.1 249.762,62.487 C248.225,60.875 247.037,58.9 246.187,56.575 C245.35,54.237 244.925,51.588 244.925,48.6 C244.925,45.675 245.337,43.05 246.162,40.737 C246.975,38.412 248.125,36.45 249.612,34.837 C251.112,33.225 252.887,31.987 254.95,31.125 C257.012,30.25 259.287,29.825 261.775,29.825 C264.362,29.825 266.7,30.25 268.775,31.1 C270.85,31.95 272.612,33.188 274.075,34.8 C275.55,36.413 276.662,38.375 277.45,40.7 C278.225,43.012 278.625,45.65 278.625,48.6 L278.625,50.137 L251.6,50.137 C251.737,52.225 252.112,54.025 252.712,55.563 C253.312,57.1 254.087,58.375 255.037,59.375 C255.987,60.375 257.1,61.125 258.35,61.625 C259.612,62.125 260.975,62.375 262.437,62.375 C263.487,62.375 264.537,62.237 265.587,61.95 C266.637,61.675 267.575,61.262 268.425,60.713 C269.262,60.162 269.95,59.475 270.475,58.663 C271,57.837 271.275,56.912 271.3,55.862 L278,55.862 C277.725,57.712 277.15,59.362 276.262,60.8 C275.362,62.237 274.237,63.45 272.875,64.425 C271.5,65.4 269.925,66.15 268.15,66.662 C266.362,67.175 264.462,67.425 262.437,67.425 L262.437,67.425 Z M271.887,45.125 C271.612,43.412 271.187,41.925 270.6,40.638 C270.012,39.363 269.287,38.287 268.4,37.438 C267.525,36.587 266.525,35.937 265.4,35.5 C264.275,35.05 263.075,34.837 261.775,34.837 C260.487,34.837 259.275,35.037 258.162,35.462 C257.062,35.875 256.062,36.513 255.187,37.362 C254.3,38.213 253.562,39.287 252.95,40.587 C252.337,41.875 251.912,43.388 251.662,45.125 L271.887,45.125 L271.887,45.125 Z M315.425,66.55 L307.849,66.55 L296.087,48.312 L292.1,52.338 L292.1,66.55 L285.762,66.55 L285.762,17 L292.1,17 L292.1,45.087 L306.012,30.7 L314.037,30.7 L300.412,44.062 L315.425,66.55 L315.425,66.55 Z" id="radek" fill="#FFFFFF"></path>
                <g id="icon" transform="translate(17.000000, 15.000000)" stroke="#FFFFFF" stroke-width="4.102" stroke-linecap="square">
                    <path d="M0.589,11.302 L28.336,11.302 C31.366,11.302 33.822,13.758 33.822,16.788 C33.822,19.817 31.366,22.274 28.336,22.274 L5.988,22.273 C2.958,22.273 0.502,24.729 0.502,27.759 C0.502,30.789 2.958,33.245 5.988,33.245 L28.336,33.245 C31.366,33.245 33.822,35.701 33.822,38.731 C33.822,41.761 31.366,44.217 28.336,44.217 L5.988,44.216 C2.958,44.216 0.502,46.672 0.502,49.702 C0.502,52.732 2.958,55.188 5.988,55.188 L48.736,55.188 C56.243,55.188 63.025,47.357 63.025,38.156" id="Stroke-227"></path>
                    <path d="M63.025,17.415 C63.025,8.215 56.243,0.384 48.736,0.384 L0.589,0.384" id="Stroke-289"></path>
                </g>
            </g>
        </g>
    </g>
</svg>