<svg id="Logo" xmlns="http://www.w3.org/2000/svg" width="917.13" height="251.76" viewBox="0 0 917.13 251.76"><title>umbler-logo-light-bg</title><path d="M843.82,271c-3.18-3.18-9.6-5-15.07.76a54.35,54.35,0,0,1-78.87-6.53c22-5.44,76-22.17,96.72-39.19,17.22-14.13,25.68-33,8.45-57-16.29-22.7-40.36-27.64-62.65-27.64-.44,0-.88,0-1.32,0a89.43,89.43,0,0,0-55.52,20.28,90.39,90.39,0,0,0-24,30.4,89.83,89.83,0,0,0,80.87,129c14.19,0,37.42-4.68,58.43-21.67l4.94-4.95a8.79,8.79,0,0,0-.43-12Zm-88.09-80c9.68-8.83,23.53-15.31,37.64-15.31,9.39,0,19.42.86,25,7.67,2.93,3.59,2.38,9.64-.33,13.81-9.52,14.65-67.9,29.24-80,31.22A54.33,54.33,0,0,1,755.74,191Z" transform="translate(-59.81 -69.37)" fill="#424f54"/><path d="M631.27,184.37c0-55.46-55.65-45.79-95.33-33.3V79.37a10,10,0,0,0-10-10H508.48a10,10,0,0,0-10,10V282.43c0,6.43,3.67,16.71,11.57,21,14.11,7.65,121.22,47.36,121.22-25.27ZM593.7,260.79c0,7.82-2.94,14.95-9.42,19.57-12.15,8.67-35.09-.88-41.4-4.49-3.52-2-6.94-4.87-6.94-9.14V195.78c0-4.28,3.41-7.13,6.94-9.14,6.31-3.61,29.25-13.16,41.4-4.49,6.48,4.62,9.42,11.75,9.42,19.57Z" transform="translate(-59.81 -69.37)" fill="#424f54"/><rect x="588.44" y="0.08" width="37.27" height="251.66" rx="10" ry="10" fill="#424f54"/><path d="M967.55,141.43c-22.43-.19-86.06,2.85-86.06,46.74,0,11.56,0,124.2,0,124.28a9.31,9.31,0,0,0,9.29,8.64h18.65a9.32,9.32,0,0,0,9.32-9.26V199.22c0-7.54.47-22.14,36.66-22.14,4.31,0,6.67-1.25,9.3-4.6a133.7,133.7,0,0,0,10.64-15.58C979.88,149.48,973.92,141.48,967.55,141.43Z" transform="translate(-59.81 -69.37)" fill="#424f54"/><path d="M186.39,224a25.21,25.21,0,0,1-48.2-4.71,24.87,24.87,0,0,1-.42-3.7,7.07,7.07,0,0,0-5.78-6.78l-12-2.12a8,8,0,0,0-9.39,7.73q0,.12,0,.24a52.4,52.4,0,0,0,101.73,17.68,8,8,0,0,0-6.19-10.45l-12-2.12A7,7,0,0,0,186.39,224Z" transform="translate(-59.81 -69.37)" fill="#f47d47"/><path d="M235.35,182.19a10,10,0,0,0-6.41,11.18,83.62,83.62,0,0,1,1.25,14.43c0,41.66-30.48,75.43-68.09,75.43S94,249.46,94,207.8a81,81,0,0,1,11.13-41.34,10,10,0,0,0-1.49-12.24L92.57,143.13A10,10,0,0,0,76.95,145a121.57,121.57,0,0,0-17.14,62.8c0,62.58,45.8,113.32,102.29,113.32S264.39,270.38,264.39,207.8a125.5,125.5,0,0,0-2.1-22.94A10,10,0,0,0,249,177.21Z" transform="translate(-59.81 -69.37)" fill="#424f54"/><path d="M415.85,145.06l-31.39,12.83c-14.25-26.21-48.93-12.54-49.94-11.94l-45,16.34c-4,1.2-8.17,6-8.17,12.44V311.08a10,10,0,0,0,10,10h17.46a10,10,0,0,0,10-10V190.48c0-4.29,3.41-7.16,6.94-9.18,6.31-3.63,19.53-11.16,27.57-5.18,6.39,4.75,9.42,11.8,9.42,19.65V311.08a10,10,0,0,0,10,10h17.46a10,10,0,0,0,10-10V190.48c0-4.29,3.41-7.16,6.93-9.18,6.31-3.63,19.53-11.16,27.57-5.18,6,4.47,9.28,9.82,9.28,16.54V311.08a10,10,0,0,0,10,10h17.46a10,10,0,0,0,10-10V190.48C481.46,166.71,460.62,129.68,415.85,145.06Z" transform="translate(-59.81 -69.37)" fill="#424f54"/></svg>