<svg xmlns="http://www.w3.org/2000/svg" xmlns:xlink="http://www.w3.org/1999/xlink" width="1342.96" height="270.96" viewBox="0 0 1342.96 270.96">
  <defs>
    <clipPath id="clip-path">
      <path id="Path_34" data-name="Path 34" d="M917.788,1029.314l-36.056-58.641a1.664,1.664,0,0,0-2.85,0l-36.056,58.641a1.57,1.57,0,0,1-1.363.715H801.816a1.538,1.538,0,0,1-1.363-2.384l57.615-94.04a1.385,1.385,0,0,0,0-1.669l-54.641-89.153a1.574,1.574,0,0,1,1.363-2.384h39.649a1.436,1.436,0,0,1,1.363.715l32.958,53.754a1.664,1.664,0,0,0,2.85,0l32.958-53.754a1.57,1.57,0,0,1,1.363-.715h39.649a1.538,1.538,0,0,1,1.363,2.384L902.3,931.7a1.961,1.961,0,0,0,0,1.669l57.986,94.278a1.574,1.574,0,0,1-1.363,2.384H918.9c-.248.119-.743-.238-1.115-.715" transform="translate(-800.178 -840.4)"/>
    </clipPath>
    <clipPath id="clip-path-2">
      <rect id="Rectangle_10" data-name="Rectangle 10" width="163.427" height="195.589" transform="translate(0 0)"/>
    </clipPath>
  </defs>
  <g id="Group_48" data-name="Group 48" transform="translate(-278 -405)">
    <g id="logo_capiconf" transform="translate(1350 405)">
      <circle id="Ellipse_1" data-name="Ellipse 1" cx="135.48" cy="135.48" r="135.48" fill="#ff1744"/>
      <path id="Path_1" data-name="Path 1" d="M84.171,150.236l-4.526,1.3.031,5.8,4.6-1.318.012,7.856-4.6,1.317.147,7.134-8.245,2.365-.112-7.145-4.456,1.278.112,7.145-8.28,2.374-.007-7.174-4.6,1.317-.013-7.855,4.526-1.3-.031-5.8-4.6,1.317-.083-7.836,4.6-1.317-.067-7.384,8.175-2.344.1,7.374,4.456-1.277-.032-7.4,8.21-2.354,0,7.4,4.6-1.318Zm-17.261,4.95.031,5.8,4.526-1.3,0-5.811Z" transform="translate(-11.967 -30.177)" fill="#fff"/>
      <path id="Path_2" data-name="Path 2" d="M144.521,154.2a26.892,26.892,0,0,1-15.084,11.084,26.158,26.158,0,0,1-7.184,1.035,27.464,27.464,0,0,1-6.954-.816,28.282,28.282,0,0,1-12.054-6.681,28.611,28.611,0,0,1-4.412-5.455,27.715,27.715,0,0,1-3.964-13.823,27.137,27.137,0,0,1,3.436-13.439,26.988,26.988,0,0,1,4.1-5.579,26.589,26.589,0,0,1,5.455-4.412,26.193,26.193,0,0,1,6.64-2.929,26.759,26.759,0,0,1,9.479-.971,25.712,25.712,0,0,1,9.187,2.377l-2.818,10.3a15.463,15.463,0,0,0-6.273-2.15,16.459,16.459,0,0,0-6.688.512,16.157,16.157,0,0,0-5.882,3.054,16.938,16.938,0,0,0-4.1,4.9,16.392,16.392,0,0,0-1.979,6.072,16.538,16.538,0,0,0,3.561,12.42,16.914,16.914,0,0,0,10.96,6.046,16.148,16.148,0,0,0,6.607-.528,16.828,16.828,0,0,0,5.953-3.074,15.888,15.888,0,0,0,4.171-5.182Z" transform="translate(-21.002 -24.825)" fill="#fff"/>
      <path id="Path_3" data-name="Path 3" d="M183.517,127.491l-2.887-10.069a9.9,9.9,0,0,0-1.924-3.663,10.144,10.144,0,0,0-6.907-3.828,9.9,9.9,0,0,0-4.125.31,10.158,10.158,0,0,0-3.7,1.933,10.361,10.361,0,0,0-2.579,3.056,10.729,10.729,0,0,0-1.25,3.851,10.292,10.292,0,0,0,.345,4.116l2.887,10.069Zm15.833,17.215-10.068,2.888-2.888-10.069L166.256,143.3l2.888,10.069-10.034,2.877-8.652-30.172a20.271,20.271,0,0,1-.665-8.276,21.416,21.416,0,0,1,2.439-7.648A21.192,21.192,0,0,1,157.38,104a20.532,20.532,0,0,1,7.406-3.832,20.27,20.27,0,0,1,8.276-.665,20.911,20.911,0,0,1,13.814,7.657,20.264,20.264,0,0,1,3.822,7.371Z" transform="translate(-33.125 -21.992)" fill="#fff"/>
      <path id="Path_4" data-name="Path 4" d="M213.6,96.674l5.774,20.138,10.069-2.887a10.3,10.3,0,0,0,3.673-1.889,10.861,10.861,0,0,0,2.569-3.09,10.35,10.35,0,0,0,1.225-3.807,10.155,10.155,0,0,0-.319-4.161,9.912,9.912,0,0,0-1.924-3.663A10.246,10.246,0,0,0,231.6,94.7a10.353,10.353,0,0,0-3.807-1.225,9.9,9.9,0,0,0-4.126.31Zm11.538,40.241L215.068,139.8,200.642,89.493l20.138-5.775a19.969,19.969,0,0,1,5.545-.792,19.568,19.568,0,0,1,5.355.667,21.393,21.393,0,0,1,9.3,5.155,20.18,20.18,0,0,1,3.413,4.223,19.974,19.974,0,0,1,2.267,5.121,20.442,20.442,0,0,1,.664,8.277,21.013,21.013,0,0,1-7.667,13.779,20.2,20.2,0,0,1-7.336,3.812l-10.069,2.887Z" transform="translate(-44.418 -18.358)" fill="#fff"/>
      <path id="Path_5" data-name="Path 5" d="M278.9,122.547l-10.069,2.887L254.4,75.123l10.069-2.887Z" transform="translate(-56.319 -15.992)" fill="#fff"/>
      <path id="Path_6" data-name="Path 6" d="M119.464,241.492a26.892,26.892,0,0,1-15.084,11.084A26.156,26.156,0,0,1,97.2,253.61a27.5,27.5,0,0,1-6.954-.815,28.305,28.305,0,0,1-12.054-6.681,28.662,28.662,0,0,1-4.412-5.456,27.716,27.716,0,0,1-3.964-13.823A27.138,27.138,0,0,1,73.249,213.4a27,27,0,0,1,4.1-5.579A26.6,26.6,0,0,1,82.8,203.4a26.2,26.2,0,0,1,6.64-2.929,26.76,26.76,0,0,1,9.479-.971,25.712,25.712,0,0,1,9.187,2.377l-2.818,10.3a15.474,15.474,0,0,0-6.273-2.15,16.458,16.458,0,0,0-6.688.512,16.161,16.161,0,0,0-5.883,3.054,16.939,16.939,0,0,0-4.1,4.9,16.39,16.39,0,0,0-1.979,6.072,16.537,16.537,0,0,0,3.561,12.42,16.914,16.914,0,0,0,10.96,6.046,16.143,16.143,0,0,0,6.607-.528,16.826,16.826,0,0,0,5.953-3.074,15.888,15.888,0,0,0,4.171-5.183Z" transform="translate(-15.455 -44.149)" fill="#fff"/>
      <path id="Path_7" data-name="Path 7" d="M174.6,204.291a26.181,26.181,0,0,1,1.034,7.183,27.469,27.469,0,0,1-.815,6.955,27.037,27.037,0,0,1-2.561,6.43,28.13,28.13,0,0,1-4.085,5.614,26.664,26.664,0,0,1-5.465,4.377,26.726,26.726,0,0,1-13.824,3.964A27.5,27.5,0,0,1,141.93,238a28.3,28.3,0,0,1-12.054-6.681,28.655,28.655,0,0,1-4.412-5.455,27.716,27.716,0,0,1-3.964-13.824,27.731,27.731,0,0,1,.851-6.964,28.093,28.093,0,0,1,2.6-6.44,27.012,27.012,0,0,1,4.1-5.579,27.485,27.485,0,0,1,5.465-4.377,26.726,26.726,0,0,1,13.823-3.964,26.647,26.647,0,0,1,6.955.816,27.287,27.287,0,0,1,12.008,6.656,26.646,26.646,0,0,1,4.377,5.465A26.193,26.193,0,0,1,174.6,204.291Zm-10,2.867a16.069,16.069,0,0,0-3.044-5.847,16.822,16.822,0,0,0-10.97-6.081,16.628,16.628,0,0,0-12.455,3.572,16.948,16.948,0,0,0-4.1,4.9,16.4,16.4,0,0,0-1.979,6.073,16.538,16.538,0,0,0,3.561,12.42,16.922,16.922,0,0,0,10.96,6.046,16.628,16.628,0,0,0,12.455-3.572,16.4,16.4,0,0,0,4.1-4.9,17.052,17.052,0,0,0,1.99-6.038A16.062,16.062,0,0,0,164.6,207.158Z" transform="translate(-26.898 -40.891)" fill="#fff"/>
      <path id="Path_8" data-name="Path 8" d="M238,211.917,227.232,215l-28.9-27.555,9.5,33.119-10.069,2.888-14.426-50.311,10.771-3.089,28.908,27.591-9.507-33.154,10.069-2.887Z" transform="translate(-40.587 -35.776)" fill="#fff"/>
      <path id="Path_9" data-name="Path 9" d="M266.007,204.3l-10.069,2.887-14.426-50.311,35.225-10.1,2.887,10.069-25.156,7.213,2.888,10.069,15.086-4.326,2.887,10.069-15.086,4.326Z" transform="translate(-53.466 -32.492)" fill="#fff"/>
    </g>
    <g id="Group_47" data-name="Group 47" transform="translate(183.3 -395.9)">
      <g id="Group_21" data-name="Group 21" transform="translate(94.7 840.4)">
        <g id="Group_20" data-name="Group 20">
          <path id="Path_27" data-name="Path 27" d="M97.426,840.857l117.583,93.205a1.529,1.529,0,0,1,0,2.5L97.426,1029.771a1.674,1.674,0,0,1-2.726-1.192V842.168a1.682,1.682,0,0,1,2.726-1.311" transform="translate(-94.7 -840.376)" fill="#fff" fill-rule="evenodd"/>
          <path id="Path_28" data-name="Path 28" d="M244.8,840.5H109.5l79.05,65.173L245.916,843.1a1.525,1.525,0,0,0-1.115-2.6" transform="translate(-91.162 -840.376)" fill="#fff" fill-rule="evenodd"/>
          <path id="Path_29" data-name="Path 29" d="M244.8,1012.173H109.5L188.55,947l57.367,62.571a1.525,1.525,0,0,1-1.115,2.6" transform="translate(-91.162 -822.42)" fill="#fff" fill-rule="evenodd"/>
          <path id="Path_30" data-name="Path 30" d="M516.679,975.183c0,32.538-27.011,54.946-60.712,54.946H374.811a1.61,1.61,0,0,1-1.611-1.549V842.049a1.61,1.61,0,0,1,1.611-1.549h75.333c32.834,0,59.349,21.692,59.349,53.4,0,16.21-6.939,28.963-18.338,37.9,15.488,8.7,25.524,23.6,25.524,43.385M411.61,876.733v38.855a1.61,1.61,0,0,0,1.611,1.549h36.8c12.638,0,21.931-10.012,20.816-23-.867-10.727-10.656-18.713-21.683-18.713h-36.3a1.327,1.327,0,0,0-1.239,1.311m66.907,94.159c-.743-11.68-11.151-20.5-23.17-20.5H411.61v44.7h44.357c13.629.119,23.418-10.25,22.55-24.2" transform="translate(-43.346 -840.376)" fill="#fff" fill-rule="evenodd"/>
          <path id="Path_31" data-name="Path 31" d="M625.149,995.945h-75.7a1.338,1.338,0,0,0-1.363.954l-11.027,32.181a1.446,1.446,0,0,1-1.363.953h-38.41a1.413,1.413,0,0,1-1.363-1.907L563.2,841.354a1.446,1.446,0,0,1,1.363-.954h45.6a1.446,1.446,0,0,1,1.363.954l67.527,186.892a1.413,1.413,0,0,1-1.363,1.907H639.026a1.338,1.338,0,0,1-1.363-.953l-11.027-32.182a1.73,1.73,0,0,0-1.487-1.073m-11.523-36.711L588.846,887.6a1.436,1.436,0,0,0-2.726,0l-24.78,71.634a1.413,1.413,0,0,0,1.363,1.907h49.437a1.638,1.638,0,0,0,1.487-1.907" transform="translate(-21.762 -840.4)" fill="#fff" fill-rule="evenodd"/>
          <path id="Path_32" data-name="Path 32" d="M810.909,842.032v186.53a1.61,1.61,0,0,1-1.611,1.549H782.411a1.545,1.545,0,0,1-1.239-.6L698.034,914.26v114.421a1.61,1.61,0,0,1-1.611,1.549H661.111a1.61,1.61,0,0,1-1.611-1.549V842.151a1.61,1.61,0,0,1,1.611-1.549H688a1.545,1.545,0,0,1,1.239.6l83.138,115.017V842.151a1.61,1.61,0,0,1,1.611-1.549H809.3a1.442,1.442,0,0,1,1.611,1.43" transform="translate(9.169 -840.355)" fill="#fff" fill-rule="evenodd"/>
          <g id="Group_19" data-name="Group 19" transform="translate(834.821)">
            <g id="Group_18" data-name="Group 18">
              <g id="Group_17" data-name="Group 17">
                <path id="Path_33" data-name="Path 33" d="M917.788,1029.314l-36.056-58.641a1.664,1.664,0,0,0-2.85,0l-36.056,58.641a1.57,1.57,0,0,1-1.363.715H801.816a1.538,1.538,0,0,1-1.363-2.384l57.615-94.04a1.385,1.385,0,0,0,0-1.669l-54.641-89.153a1.574,1.574,0,0,1,1.363-2.384h39.649a1.436,1.436,0,0,1,1.363.715l32.958,53.754a1.664,1.664,0,0,0,2.85,0l32.958-53.754a1.57,1.57,0,0,1,1.363-.715h39.649a1.538,1.538,0,0,1,1.363,2.384L902.3,931.7a1.961,1.961,0,0,0,0,1.669l57.986,94.278a1.574,1.574,0,0,1-1.363,2.384H918.9c-.248.119-.743-.238-1.115-.715" transform="translate(-800.178 -840.4)" fill="#fff"/>
                <g id="Group_16" data-name="Group 16" clip-path="url(#clip-path)">
                  <rect id="Rectangle_8" data-name="Rectangle 8" width="163.427" height="195.589" transform="translate(-2.823 -2.86)" fill="#fff"/>
                  <g id="Group_15" data-name="Group 15" transform="translate(-2.823 -2.86)" clip-path="url(#clip-path-2)">
                    <rect id="Rectangle_9" data-name="Rectangle 9" width="234.423" height="260.666" transform="translate(-34.073 -32.539)" fill="#fff"/>
                  </g>
                </g>
              </g>
            </g>
          </g>
          <path id="Path_35" data-name="Path 35" d="M301.331,994.191a9.939,9.939,0,0,1-8.921-9.773V953.311a1.405,1.405,0,0,1,1.487-1.43h70.872a1.4,1.4,0,0,0,1.487-1.43v-32.3a1.4,1.4,0,0,0-1.487-1.43H293.9a1.405,1.405,0,0,1-1.487-1.43V877.867a1.405,1.405,0,0,1,1.487-1.43h77.811a1.4,1.4,0,0,0,1.487-1.43V842.23a1.4,1.4,0,0,0-1.487-1.43H255.487A1.405,1.405,0,0,0,254,842.23V994.906c0,19.546,16.355,35.4,36.427,35.4h84.254V994.43h-73.35Z" transform="translate(-65.109 -840.304)" fill="#fff" fill-rule="evenodd"/>
        </g>
      </g>
    </g>
  </g>
</svg>
