<svg xmlns="http://www.w3.org/2000/svg" width="1343.26" height="270.96" viewBox="0 0 1343.26 270.96">
  <g id="Group_49" data-name="Group 49" transform="translate(-277.7 -405)">
    <g id="Group_6" data-name="Group 6" transform="translate(181.3 358.1)">
      <g id="Group_5" data-name="Group 5" transform="translate(96.4 85.9)">
        <path id="Path_10" data-name="Path 10" d="M97.9,85.9l88.446,72.242L250.795,88.5a1.55,1.55,0,0,0-1.113-2.6Z" transform="translate(-96.044 -85.9)" fill="#2797d4"/>
        <path id="Path_11" data-name="Path 11" d="M97.9,257.342,186.346,185.1l64.448,69.644a1.55,1.55,0,0,1-1.113,2.6H97.9Z" transform="translate(-96.044 -66.966)" fill="#2797d4"/>
        <path id="Path_12" data-name="Path 12" d="M99.121,86.262l117.516,93.619a1.562,1.562,0,0,1,0,2.537L99.121,276.037a1.668,1.668,0,0,1-2.721-1.208V87.591A1.708,1.708,0,0,1,99.121,86.262Z" transform="translate(-96.4 -85.9)" fill="#314b76"/>
        <path id="Path_13" data-name="Path 13" d="M519.07,221.072c0,32.615-26.967,55.2-60.737,55.2H377.308a1.619,1.619,0,0,1-1.608-1.57V87.47a1.619,1.619,0,0,1,1.608-1.57h75.334c32.9,0,59.253,21.743,59.253,53.513,0,16.308-6.927,29.112-18.431,38.051C509.05,186.282,519.07,201.14,519.07,221.072ZM414.047,122.26v39.017a1.619,1.619,0,0,0,1.608,1.57h36.739c12.618,0,21.9-10.026,20.782-23.072-.866-10.751-10.638-18.844-21.648-18.844H415.284A1.433,1.433,0,0,0,414.047,122.26Zm66.8,94.584c-.742-11.717-11.133-20.535-23.132-20.535H414.047v44.816h44.285C472.063,241.124,481.712,230.735,480.846,216.844Z" transform="translate(-39.615 -85.9)" fill="#314b76"/>
        <path id="Path_14" data-name="Path 14" d="M627.539,241.969H551.958a1.337,1.337,0,0,0-1.361.966l-11.009,32.374a1.445,1.445,0,0,1-1.361.966H499.879a1.429,1.429,0,0,1-1.361-1.933l67.17-187.477a1.445,1.445,0,0,1,1.361-.966h45.522a1.445,1.445,0,0,1,1.361.966l67.417,187.477a1.429,1.429,0,0,1-1.361,1.933H641.27a1.337,1.337,0,0,1-1.361-.966L628.9,242.936A1.338,1.338,0,0,0,627.539,241.969Zm-11.5-36.964-24.74-71.874a1.427,1.427,0,0,0-2.721,0l-24.74,71.874a1.339,1.339,0,0,0,1.361,1.812H614.55A1.42,1.42,0,0,0,616.035,205.006Z" transform="translate(-15.296 -85.9)" fill="#314b76"/>
        <path id="Path_15" data-name="Path 15" d="M813.363,87.47V274.705a1.619,1.619,0,0,1-1.608,1.57H784.911a1.535,1.535,0,0,1-1.237-.6l-83-115.723V274.705a1.619,1.619,0,0,1-1.608,1.57H663.808a1.619,1.619,0,0,1-1.608-1.57V87.47a1.619,1.619,0,0,1,1.608-1.57h26.843a1.535,1.535,0,0,1,1.237.6l83,115.482V87.47A1.619,1.619,0,0,1,776.5,85.9h35.255A1.619,1.619,0,0,1,813.363,87.47Z" transform="translate(18.466 -85.9)" fill="#314b76"/>
        <path id="Path_16" data-name="Path 16" d="M920.274,275.428,884.4,216.48a1.649,1.649,0,0,0-2.845,0l-36,58.948a1.561,1.561,0,0,1-1.361.725H804.613a1.558,1.558,0,0,1-1.361-2.416L860.9,179.4a1.754,1.754,0,0,0,0-1.57L806.345,88.316a1.6,1.6,0,0,1,1.361-2.416H847.29a1.428,1.428,0,0,1,1.361.725l32.9,54a1.649,1.649,0,0,0,2.845,0l32.9-54a1.562,1.562,0,0,1,1.361-.725H958.25a1.558,1.558,0,0,1,1.361,2.416l-54.552,89.147a2.015,2.015,0,0,0,0,1.691l57.892,94.583a1.6,1.6,0,0,1-1.361,2.416H921.758A1.518,1.518,0,0,1,920.274,275.428Z" transform="translate(46.797 -85.9)" fill="#314b76"/>
        <path id="Path_17" data-name="Path 17" d="M303.778,240.276a10.017,10.017,0,0,1-8.906-9.905V199.085a1.413,1.413,0,0,1,1.484-1.45h70.757a1.413,1.413,0,0,0,1.484-1.45V163.813a1.413,1.413,0,0,0-1.484-1.45H296.355a1.413,1.413,0,0,1-1.484-1.45V123.346a1.413,1.413,0,0,1,1.484-1.45H374.04a1.413,1.413,0,0,0,1.484-1.45V87.35a1.413,1.413,0,0,0-1.484-1.45H257.884a1.413,1.413,0,0,0-1.484,1.45V240.638c0,19.69,16.329,35.514,36.368,35.514h84.117v-36H303.778Z" transform="translate(-63.735 -85.9)" fill="#314b76"/>
      </g>
    </g>
    <g id="logo_capiconf" transform="translate(1350 405)">
      <circle id="Ellipse_1" data-name="Ellipse 1" cx="135.48" cy="135.48" r="135.48" fill="#ff1744"/>
      <path id="Path_1" data-name="Path 1" d="M84.171,150.236l-4.526,1.3.031,5.8,4.6-1.318.012,7.856-4.6,1.317.147,7.134-8.245,2.365-.112-7.145-4.456,1.278.112,7.145-8.28,2.374-.007-7.174-4.6,1.317-.013-7.855,4.526-1.3-.031-5.8-4.6,1.317-.083-7.836,4.6-1.317-.067-7.384,8.175-2.344.1,7.374,4.456-1.277-.032-7.4,8.21-2.354,0,7.4,4.6-1.318Zm-17.261,4.95.031,5.8,4.526-1.3,0-5.811Z" transform="translate(-11.967 -30.177)" fill="#fff"/>
      <path id="Path_2" data-name="Path 2" d="M144.521,154.2a26.892,26.892,0,0,1-15.084,11.084,26.158,26.158,0,0,1-7.184,1.035,27.464,27.464,0,0,1-6.954-.816,28.282,28.282,0,0,1-12.054-6.681,28.611,28.611,0,0,1-4.412-5.455,27.715,27.715,0,0,1-3.964-13.823,27.137,27.137,0,0,1,3.436-13.439,26.988,26.988,0,0,1,4.1-5.579,26.589,26.589,0,0,1,5.455-4.412,26.193,26.193,0,0,1,6.64-2.929,26.759,26.759,0,0,1,9.479-.971,25.712,25.712,0,0,1,9.187,2.377l-2.818,10.3a15.463,15.463,0,0,0-6.273-2.15,16.459,16.459,0,0,0-6.688.512,16.157,16.157,0,0,0-5.882,3.054,16.938,16.938,0,0,0-4.1,4.9,16.392,16.392,0,0,0-1.979,6.072,16.538,16.538,0,0,0,3.561,12.42,16.914,16.914,0,0,0,10.96,6.046,16.148,16.148,0,0,0,6.607-.528,16.828,16.828,0,0,0,5.953-3.074,15.888,15.888,0,0,0,4.171-5.182Z" transform="translate(-21.002 -24.825)" fill="#fff"/>
      <path id="Path_3" data-name="Path 3" d="M183.517,127.491l-2.887-10.069a9.9,9.9,0,0,0-1.924-3.663,10.144,10.144,0,0,0-6.907-3.828,9.9,9.9,0,0,0-4.125.31,10.158,10.158,0,0,0-3.7,1.933,10.361,10.361,0,0,0-2.579,3.056,10.729,10.729,0,0,0-1.25,3.851,10.292,10.292,0,0,0,.345,4.116l2.887,10.069Zm15.833,17.215-10.068,2.888-2.888-10.069L166.256,143.3l2.888,10.069-10.034,2.877-8.652-30.172a20.271,20.271,0,0,1-.665-8.276,21.416,21.416,0,0,1,2.439-7.648A21.192,21.192,0,0,1,157.38,104a20.532,20.532,0,0,1,7.406-3.832,20.27,20.27,0,0,1,8.276-.665,20.911,20.911,0,0,1,13.814,7.657,20.264,20.264,0,0,1,3.822,7.371Z" transform="translate(-33.125 -21.992)" fill="#fff"/>
      <path id="Path_4" data-name="Path 4" d="M213.6,96.674l5.774,20.138,10.069-2.887a10.3,10.3,0,0,0,3.673-1.889,10.861,10.861,0,0,0,2.569-3.09,10.35,10.35,0,0,0,1.225-3.807,10.155,10.155,0,0,0-.319-4.161,9.912,9.912,0,0,0-1.924-3.663A10.246,10.246,0,0,0,231.6,94.7a10.353,10.353,0,0,0-3.807-1.225,9.9,9.9,0,0,0-4.126.31Zm11.538,40.241L215.068,139.8,200.642,89.493l20.138-5.775a19.969,19.969,0,0,1,5.545-.792,19.568,19.568,0,0,1,5.355.667,21.393,21.393,0,0,1,9.3,5.155,20.18,20.18,0,0,1,3.413,4.223,19.974,19.974,0,0,1,2.267,5.121,20.442,20.442,0,0,1,.664,8.277,21.013,21.013,0,0,1-7.667,13.779,20.2,20.2,0,0,1-7.336,3.812l-10.069,2.887Z" transform="translate(-44.418 -18.358)" fill="#fff"/>
      <path id="Path_5" data-name="Path 5" d="M278.9,122.547l-10.069,2.887L254.4,75.123l10.069-2.887Z" transform="translate(-56.319 -15.992)" fill="#fff"/>
      <path id="Path_6" data-name="Path 6" d="M119.464,241.492a26.892,26.892,0,0,1-15.084,11.084A26.156,26.156,0,0,1,97.2,253.61a27.5,27.5,0,0,1-6.954-.815,28.305,28.305,0,0,1-12.054-6.681,28.662,28.662,0,0,1-4.412-5.456,27.716,27.716,0,0,1-3.964-13.823A27.138,27.138,0,0,1,73.249,213.4a27,27,0,0,1,4.1-5.579A26.6,26.6,0,0,1,82.8,203.4a26.2,26.2,0,0,1,6.64-2.929,26.76,26.76,0,0,1,9.479-.971,25.712,25.712,0,0,1,9.187,2.377l-2.818,10.3a15.474,15.474,0,0,0-6.273-2.15,16.458,16.458,0,0,0-6.688.512,16.161,16.161,0,0,0-5.883,3.054,16.939,16.939,0,0,0-4.1,4.9,16.39,16.39,0,0,0-1.979,6.072,16.537,16.537,0,0,0,3.561,12.42,16.914,16.914,0,0,0,10.96,6.046,16.143,16.143,0,0,0,6.607-.528,16.826,16.826,0,0,0,5.953-3.074,15.888,15.888,0,0,0,4.171-5.183Z" transform="translate(-15.455 -44.149)" fill="#fff"/>
      <path id="Path_7" data-name="Path 7" d="M174.6,204.291a26.181,26.181,0,0,1,1.034,7.183,27.469,27.469,0,0,1-.815,6.955,27.037,27.037,0,0,1-2.561,6.43,28.13,28.13,0,0,1-4.085,5.614,26.664,26.664,0,0,1-5.465,4.377,26.726,26.726,0,0,1-13.824,3.964A27.5,27.5,0,0,1,141.93,238a28.3,28.3,0,0,1-12.054-6.681,28.655,28.655,0,0,1-4.412-5.455,27.716,27.716,0,0,1-3.964-13.824,27.731,27.731,0,0,1,.851-6.964,28.093,28.093,0,0,1,2.6-6.44,27.012,27.012,0,0,1,4.1-5.579,27.485,27.485,0,0,1,5.465-4.377,26.726,26.726,0,0,1,13.823-3.964,26.647,26.647,0,0,1,6.955.816,27.287,27.287,0,0,1,12.008,6.656,26.646,26.646,0,0,1,4.377,5.465A26.193,26.193,0,0,1,174.6,204.291Zm-10,2.867a16.069,16.069,0,0,0-3.044-5.847,16.822,16.822,0,0,0-10.97-6.081,16.628,16.628,0,0,0-12.455,3.572,16.948,16.948,0,0,0-4.1,4.9,16.4,16.4,0,0,0-1.979,6.073,16.538,16.538,0,0,0,3.561,12.42,16.922,16.922,0,0,0,10.96,6.046,16.628,16.628,0,0,0,12.455-3.572,16.4,16.4,0,0,0,4.1-4.9,17.052,17.052,0,0,0,1.99-6.038A16.062,16.062,0,0,0,164.6,207.158Z" transform="translate(-26.898 -40.891)" fill="#fff"/>
      <path id="Path_8" data-name="Path 8" d="M238,211.917,227.232,215l-28.9-27.555,9.5,33.119-10.069,2.888-14.426-50.311,10.771-3.089,28.908,27.591-9.507-33.154,10.069-2.887Z" transform="translate(-40.587 -35.776)" fill="#fff"/>
      <path id="Path_9" data-name="Path 9" d="M266.007,204.3l-10.069,2.887-14.426-50.311,35.225-10.1,2.887,10.069-25.156,7.213,2.888,10.069,15.086-4.326,2.887,10.069-15.086,4.326Z" transform="translate(-53.466 -32.492)" fill="#fff"/>
    </g>
  </g>
</svg>
