<?xml version="1.0" encoding="UTF-8"?>
<svg width="758px" height="200px" viewBox="0 0 758 200" version="1.1" xmlns="http://www.w3.org/2000/svg" xmlns:xlink="http://www.w3.org/1999/xlink">
    <!-- Generator: Sketch 52.5 (67469) - http://www.bohemiancoding.com/sketch -->
    <title>Brand/Primary/normal</title>
    <desc>Created with Sketch.</desc>
    <g id="Brand/Primary/normal" stroke="none" stroke-width="1" fill="none" fill-rule="evenodd">
        <path d="M144.786002,89.6255 L110.943909,89.6255 L72.829583,127.544786 L72.829583,199.899071 L144.663121,199.899071 C175.243885,199.899071 200.037843,175.2105 200.037843,144.759071 C200.037843,114.349786 175.308897,89.6905 144.786002,89.6255" id="Fill-1" fill="#160D35" fill-rule="nonzero"></path>
        <polygon id="Fill-3" fill="#F05865" fill-rule="nonzero" points="0 89.6182143 110.943766 89.6253571 0 200.000357"></polygon>
        <path d="M144.583963,7.14285714e-05 C144.547528,0.00721428571 144.518951,7.14285714e-05 144.482516,7.14285714e-05 L88.0554526,0.0357857143 L0.000285768143,89.6179286 L144.482516,89.6179286 L144.583963,89.6179286 C169.39221,89.5607857 189.488141,69.5257857 189.488141,44.8093571 C189.488141,20.0922143 169.39221,0.0579285714 144.583963,7.14285714e-05" id="Fill-6" fill="#FFD257" fill-rule="nonzero"></path>
        <path d="M669.909041,154.8285 C653.010856,154.8285 639.315418,140.847071 639.315418,123.597786 C639.315418,106.3485 653.010856,92.3670714 669.909041,92.3670714 C686.80794,92.3670714 700.503378,106.3485 700.503378,123.597786 C700.503378,140.847071 686.80794,154.8285 669.909041,154.8285 Z M700.460513,30.0070714 L700.460513,66.2585 L700.460513,89.0127857 C700.460513,89.0992143 700.359065,89.1427857 700.294053,89.0849286 C692.241821,81.6899286 681.584098,77.1885 669.901897,77.1885 C644.799308,77.1885 624.443329,97.9656429 624.443329,123.590643 C624.443329,149.215643 644.792164,169.992071 669.901897,169.992071 C681.591957,169.992071 692.248965,165.491357 700.301912,158.089214 C700.359065,158.031357 700.460513,158.074929 700.460513,158.161357 L700.460513,169.992071 L715.360464,169.992071 L715.360464,30.0070714 L700.460513,30.0070714 Z" id="Fill-8" fill="#160D35" fill-rule="nonzero"></path>
        <path d="M538.087268,112.199429 C542.705281,100.014429 554.386769,91.8265714 567.152032,91.8265714 C579.91658,91.8265714 591.598067,100.014429 596.216081,112.199429 L597.241274,114.897286 C597.269851,114.962286 597.219841,115.041571 597.14697,115.041571 L537.170667,115.041571 C537.091366,115.041571 537.040642,114.962286 537.069934,114.890857 L538.087268,112.199429 Z M536.586271,129.650857 L612.271249,129.650857 C612.537728,127.623714 612.668467,125.596571 612.668467,123.605143 C612.668467,97.2872857 591.057251,76.0201429 564.980194,77.268 C541.687947,78.3787143 522.782955,97.648 521.693464,121.390143 C520.473949,147.975143 541.341453,170.000143 567.158461,170.000143 C580.550985,170.000143 593.034052,164.098714 601.728548,153.732286 L590.450708,144.670857 C584.519591,151.502286 576.142297,155.383714 567.158461,155.383714 C553.326569,155.383714 541.002103,145.897286 537.199958,132.312286 L536.492682,129.787286 C536.470535,129.722286 536.521973,129.650857 536.586271,129.650857 Z" id="Fill-10" fill="#160D35" fill-rule="nonzero"></path>
        <polygon id="Fill-12" fill="#160D35" fill-rule="nonzero" points="741.192547 170 755.73243 170 755.73243 77.2028571 741.192547 77.2028571"></polygon>
        <path d="M748.465917,30.0000714 C753.729767,30.0000714 757.997714,34.3507857 757.997714,39.7172143 C757.997714,45.0843571 753.729767,49.4350714 748.465917,49.4350714 C743.201354,49.4350714 738.934121,45.0843571 738.934121,39.7172143 C738.934121,34.3507857 743.201354,30.0000714 748.465917,30.0000714" id="Fill-14" fill="#160D35" fill-rule="nonzero"></path>
        <path d="M436.729594,144.504857 C430.892066,151.149143 422.673374,154.922 413.87743,154.922 C396.934952,154.922 383.145924,140.868429 383.145924,123.597714 C383.145924,106.327 396.934952,92.2734286 413.87743,92.2734286 C420.234343,92.2734286 426.469089,94.3084286 431.642207,98.0448571 L440.993969,86.3362857 C433.186784,80.4348571 423.640699,77.2027143 413.87743,77.2027143 C388.781986,77.2027143 368.360995,98.0162857 368.360995,123.604857 C368.360995,149.187 388.781986,169.999857 413.87743,169.999857 C427.254952,169.999857 439.72373,164.127714 448.396793,153.825571 L436.729594,144.504857 Z" id="Fill-15" fill="#160D35" fill-rule="nonzero"></path>
        <path d="M505.407466,77.2029286 C496.691538,77.2029286 488.414978,80.0886429 481.47367,85.5572143 L478.298786,88.0529286 C478.248062,88.0965 478.168761,88.0529286 478.168761,87.9886429 L478.168761,77.2029286 L463.195939,77.2029286 L463.195939,170.000071 L478.168761,170.000071 L478.168761,123.727929 C478.500967,108.815786 484.330637,101.2915 489.165834,97.5979286 C495.046228,93.1029286 503.112748,91.4872143 511.064961,93.1250714 L515.740128,78.6315 C512.349489,77.6793571 508.885265,77.2029286 505.407466,77.2029286" id="Fill-16" fill="#160D35" fill-rule="nonzero"></path>
        <path d="M306.682085,154.8285 C289.783186,154.8285 276.087747,140.847071 276.087747,123.597786 C276.087747,106.3485 289.783186,92.3670714 306.682085,92.3670714 C323.580984,92.3670714 337.276422,106.3485 337.276422,123.597786 C337.276422,140.847071 323.57384,154.8285 306.682085,154.8285 M306.682085,77.1885 C294.999883,77.1885 284.34216,81.6899286 276.289928,89.0849286 C276.224916,89.1427857 276.124183,89.0992143 276.124183,89.0127857 L276.124183,66.2585 L276.124183,30.0070714 L261.223517,30.0070714 L261.223517,169.999929 L276.124183,169.999929 L276.124183,158.1685 C276.124183,158.082071 276.217772,158.0385 276.282784,158.096357 C284.33573,165.4985 294.992739,169.999929 306.682085,169.999929 C331.785387,169.999929 352.140652,149.222786 352.140652,123.597786 C352.133508,97.9656429 331.785387,77.1885 306.682085,77.1885" id="Fill-17" fill="#160D35" fill-rule="nonzero"></path>
    </g>
</svg>