<?xml version="1.0" encoding="UTF-8"?>
<!DOCTYPE svg PUBLIC "-//W3C//DTD SVG 1.1//EN" "http://www.w3.org/Graphics/SVG/1.1/DTD/svg11.dtd">
<!-- Creator: CorelDRAW 2018 (64 Bit) -->
<svg xmlns="http://www.w3.org/2000/svg" xml:space="preserve" width="119.649mm" height="98.0669mm" version="1.1" style="shape-rendering:geometricPrecision; text-rendering:geometricPrecision; image-rendering:optimizeQuality; fill-rule:evenodd; clip-rule:evenodd"
viewBox="0 0 14037.89 11505.8"
 xmlns:xlink="http://www.w3.org/1999/xlink">
 <defs>
  <style type="text/css">
   <![CDATA[
    .fil3 {fill:#282828}
    .fil1 {fill:#F2E537;fill-rule:nonzero}
    .fil2 {fill:#923F89;fill-rule:nonzero}
    .fil0 {fill:#282828;fill-rule:nonzero}
    .fil4 {fill:#282828;fill-rule:nonzero}
   ]]>
  </style>
 </defs>
 <g id="Camada_x0020_1">
  <metadata id="CorelCorpID_0Corel-Layer"/>
  <polygon class="fil0" points="1859.92,3509.24 2610.56,3509.24 2610.56,8730.52 1859.92,8730.52 1859.92,6436.79 750.64,6436.79 750.64,8730.52 -0,8730.52 -0,3509.24 750.64,3509.24 750.64,5827.86 1859.92,5827.86 "/>
  <polygon class="fil0" points="3544.63,8730.52 4295.28,8730.52 4295.28,3509.4 3544.63,3509.4 "/>
  <path class="fil0" d="M6964.16 5861.31l0 -1501.29c0,-99.94 -16.72,-165.27 -50.07,-195.98 -33.36,-30.33 -100.09,-45.89 -200.13,-45.89l-734 0 0 1993.57 734 0c100.04,0 166.78,-16.72 200.13,-50.17 33.36,-33.44 50.07,-99.93 50.07,-200.24zm-1734.86 -2352.07l1709.79 0c517.11,0 775.69,244.96 775.69,734.12l0 1734.98c0,489.16 -258.57,733.73 -775.69,733.73l-959.14 0 0 2018.44 -750.65 0 0 -5221.28z"/>
  <polygon class="fil0" points="9140.94,8121.61 10650.55,8121.61 10650.55,8730.52 8381.93,8730.52 8381.93,3509.24 10592.19,3509.24 10592.19,4118.15 9140.94,4118.15 9140.94,5727.94 10341.94,5727.94 10341.94,6336.85 9140.94,6336.85 "/>
  <polygon class="fil1" points="12658.61,1379.2 9900.03,1379.2 11279.3,0 14037.89,0 "/>
  <polygon class="fil2" points="14037.89,2758.39 14037.89,0 12658.61,1379.2 12658.61,4137.6 "/>
  <polygon class="fil2" points="11279.3,2758.39 12658.59,2758.39 12658.59,1379.11 11279.3,1379.11 "/>
  <path class="fil3" d="M3555.24 10953.17c19.72,37.45 41.15,65.57 64.24,83.97 23.02,18.55 48,27.82 75.01,27.72 25.12,-0.12 47.66,-8.24 67.29,-24.35 19.77,-16.03 32.29,-36.31 37.71,-60.87 6.03,-27.28 3.78,-48.24 -6.98,-62.82 -10.78,-14.64 -39.09,-29.81 -84.87,-45.23 -62.75,-21.25 -104.34,-49.31 -124.67,-83.65 -20.36,-34.58 -23.83,-82.01 -10.52,-142.23 17.31,-78.21 53.42,-142.15 108.61,-191.7 54.99,-49.59 117.69,-74.37 187.99,-74.65 38.15,-0.16 72.79,5.81 104.26,17.68 31.42,12.07 59.52,30.26 84.65,54.67l-94.28 160.61c-16.65,-21.46 -34.9,-37.8 -55,-48.77 -20.12,-10.76 -41.1,-16.18 -62.98,-16.11 -22.64,0.09 -42.4,6.62 -59.44,19.49 -16.98,12.78 -27.72,29.45 -32.12,49.44 -4.56,20.59 -1.9,36.99 7.8,49.09 9.64,12.35 31,23.93 63.94,35l7.86 2.85c71.35,24.1 115.74,50.92 133.36,80.22 11.92,20.18 19.01,44.16 21.33,72.28 2.3,27.99 -0.43,59.24 -7.98,93.38 -19.17,86.79 -58.53,156.64 -118.28,209.4 -59.78,53.05 -129.6,79.59 -209.73,79.92 -48.12,0.19 -89.71,-9.37 -124.85,-28.45 -35.14,-19.29 -66.41,-49.46 -93.77,-90.69l121.43 -166.2zm1512.88 324.76l-21.53 68.76c-4.56,-9.53 -9.91,-16.51 -16,-20.94 -6.11,-4.43 -13.47,-6.65 -22.01,-6.63 -15.84,0.07 -30.61,6.3 -44.27,18.67 -13.68,12.4 -23.62,28.5 -29.85,48.36 -5.78,18.51 -5.6,33.83 0.59,45.99 6.17,12.17 17,18.2 32.46,18.15 8.54,-0.05 17.32,-2.32 26.21,-6.83 8.91,-4.51 18.63,-11.58 29.24,-21.27l-21.58 68.89c-10.28,4.85 -20.1,8.52 -29.54,10.98 -9.37,2.45 -18.53,3.67 -27.34,3.72 -11.08,0.04 -20.81,-1.44 -29.2,-4.41 -8.41,-2.92 -15.6,-7.45 -21.53,-13.5 -11.46,-11.51 -18.44,-25.98 -20.86,-43.5 -2.42,-17.56 -0.21,-37.29 6.66,-59.23 5.53,-17.65 13.05,-33.7 22.63,-48.2 9.52,-14.48 21.21,-27.6 35.03,-39.4 13.09,-11.3 26.53,-19.72 40.31,-25.38 13.7,-5.6 27.96,-8.45 42.73,-8.51 8.82,-0.04 17.22,1.11 25.07,3.52 7.94,2.38 15.48,6.01 22.76,10.75zm-41.49 221.72l49.83 -159.19 46.4 -0.19 -11.73 37.49c9.08,-13.63 18.85,-23.95 29.24,-30.81 10.43,-6.84 21.54,-10.29 33.33,-10.31 1.91,-0.02 3.9,0.02 5.82,0.18 1.95,0.14 3.84,0.42 5.77,0.67l-20.71 51.14c-2.57,-1.17 -5.22,-1.97 -7.94,-2.5 -2.65,-0.53 -5.36,-0.79 -7.99,-0.79 -11.98,0.06 -22.54,4.28 -31.67,12.65 -9.07,8.37 -16.04,20.29 -20.83,35.6l-20.63 65.87 -48.9 0.2zm253.67 -101.03c1.88,-9.03 1.11,-16.23 -2.28,-21.69 -3.38,-5.41 -8.85,-8.14 -16.3,-8.11 -8.01,0.04 -15.15,2.56 -21.48,7.57 -6.29,5.02 -11.79,12.52 -16.5,22.48l56.55 -0.25zm38.55 31.5l-106.11 0.42c-3.77,12.33 -3.94,21.78 -0.61,28.44 3.32,6.64 9.96,9.95 19.93,9.93 7.44,-0.05 14.27,-1.69 20.34,-4.88 6.17,-3.25 11.52,-8.05 16.19,-14.37l31.68 16.92c-8.25,12.19 -19.01,21.63 -32.31,28.29 -13.29,6.66 -28.11,10.05 -44.44,10.13 -24.32,0.09 -41.39,-7.52 -51.29,-22.86 -9.86,-15.33 -10.85,-35.64 -2.93,-60.86 7.73,-24.76 21.54,-45.41 41.36,-61.85 19.85,-16.47 41.01,-24.73 63.44,-24.8 23.1,-0.11 38.75,8.11 46.91,24.67 8.15,16.53 7.74,39.26 -1.3,68.13l-0.84 2.7zm138.27 -11.56c3.87,-12.39 4.06,-22.16 0.55,-29.28 -3.51,-7.12 -10.22,-10.66 -20.17,-10.61 -9.94,0.02 -18.89,3.61 -26.84,10.77 -7.95,7.19 -13.89,16.99 -17.75,29.38 -3.93,12.5 -4.15,22.26 -0.7,29.33 3.43,7.09 10.2,10.62 20.23,10.57 9.96,-0.06 18.9,-3.64 26.9,-10.82 7.98,-7.17 13.93,-16.99 17.79,-29.34zm95.27 -165.02l-76.46 244.3 -45.32 0.19 8.1 -25.88c-9.61,10.72 -19.15,18.77 -28.65,24.15 -9.49,5.34 -19.05,8.01 -28.64,8.07 -19.59,0.07 -32.78,-7.61 -39.55,-23.03 -6.76,-15.37 -6.09,-36.11 2.14,-62.32 7.92,-25.34 20.13,-45.82 36.58,-61.44 16.41,-15.66 33.97,-23.54 52.55,-23.59 11.78,-0.05 20.64,2.32 26.53,7.15 5.89,4.82 9.98,12.85 12.23,24.19 0.62,-3.77 1.57,-8.08 2.79,-12.86 1.2,-4.8 2.7,-9.95 4.42,-15.5l26.05 -83.22 47.25 -0.19zm-1386.86 -778.27c6.65,-30.09 21.34,-55.84 44.08,-77.09 22.83,-21.2 46.93,-32.02 72.35,-32.12 26.36,-0.09 46.06,10.34 59.34,31.04 13.13,20.67 16.23,46.59 9.4,77.45 -6.83,30.92 -21.63,57.24 -44.45,78.84 -22.93,21.68 -47.18,32.62 -72.93,32.73 -25.13,0.09 -44.36,-10.89 -57.74,-32.76 -13.33,-21.85 -16.72,-47.9 -10.05,-78.09zm-155.23 740.09l124.72 -564.14 168.23 -0.66 -124.69 564.13 -168.26 0.67zm729.1 -275.04c9.62,-43.54 7.34,-77.55 -6.8,-102.3 -14.16,-24.69 -38.41,-36.97 -72.99,-36.85 -34.92,0.15 -65,12.67 -90.43,37.5 -25.4,24.91 -42.96,59 -52.59,102.54 -9.55,43.26 -7.09,77.36 7.31,102.23 14.48,24.87 39.06,37.17 73.97,37.04 34.25,-0.15 63.87,-12.67 89.13,-37.7 25.32,-25.03 42.85,-59.2 52.4,-102.46zm209.49 -280.88l-124.45 562.98c-18.88,85.4 -54.66,148.39 -107.62,189.41 -52.76,40.96 -125.13,61.61 -216.87,61.97 -74.15,0.32 -128.62,-15.63 -163.58,-48.13 -34.95,-32.41 -46.95,-78.41 -36.3,-138.1l173.87 -0.67c-1.27,17.48 3.9,31.2 15.67,41.06 11.79,9.87 29.07,14.77 52.05,14.68 36.23,-0.14 63.24,-10.58 81.54,-31.42 18.24,-20.66 34.76,-64.13 49.42,-130.47l11.38 -51.52c-25.38,35.56 -53.71,61.94 -84.89,79.41 -31.17,17.49 -65.63,26.21 -103.26,26.34 -62.88,0.27 -107.29,-26.43 -133.54,-80.06 -26,-53.78 -29.17,-125.41 -9.32,-215.21 20,-90.54 55.89,-162.52 107.45,-216.2 51.53,-53.55 110.85,-80.46 178.09,-80.73 35.53,-0.15 64.15,8.52 86.33,25.94 22.03,17.46 38.35,44.6 49,81.67l19.97 -90.33 155.06 -0.62zm429.99 268c9.74,-44.06 7.45,-78.69 -6.68,-104.37 -14.07,-25.68 -38.3,-38.31 -72.37,-38.17 -34.28,0.13 -64.1,12.99 -89.39,38.61 -25.24,25.44 -42.79,60.55 -52.57,104.83 -9.68,43.79 -7.4,78.49 6.82,103.75 14.13,25.28 38.25,37.72 72.21,37.58 34.05,-0.12 63.87,-12.78 89.23,-38.21 25.42,-25.44 43.05,-60.21 52.75,-104.02zm209.76 -282l-124.71 564.13 -154.11 0.61 20.27 -91.68c-30.7,39.12 -61.71,68.07 -93.2,86.28 -31.56,18.42 -65.9,27.67 -102.91,27.82 -63.54,0.26 -108.14,-26.97 -134.14,-81.75 -25.79,-54.78 -28.53,-128.3 -8.1,-220.7 20.32,-91.89 56.47,-165.21 108.17,-219.49 51.71,-54.36 111.12,-81.61 178.34,-81.86 35.89,-0.14 64.75,8.65 86.67,26.66 21.89,18.07 37.94,45.82 48.15,83.23l20.47 -92.62 155.08 -0.62z"/>
  <g id="_2397448944512">
   <path class="fil3" d="M599.62 11378.93l0 121.8 -9.78 0c0,-40.67 0,-81.13 0,-121.8l9.78 0z"/>
   <path class="fil3" d="M847.54 11500.73c-3.54,0 -6.85,0 -10.4,0l-58.92 -98.17 -4.89 -11.63 -0.79 0 1.76 12.32 0 97.47 -9.8 0 0 -121.62c3.53,0 7.05,0 10.58,0l58.94 98.17 4.88 11.47 0.6 0 -1.78 -12.33 0 -97.31 9.81 0 0 121.62z"/>
   <path class="fil3" d="M1083.47 11378.93l0 8.68c-21.14,0 -42.1,0 -63.24,0 0,16.18 0,32.34 0,48.47l53.44 0 0 8.87 -53.44 0c0,3.48 -0.2,46.39 -0.2,55.78l-9.8 0c0,-40.67 0,-81.13 0,-121.8 24.5,0 48.76,0 73.23,0z"/>
   <path class="fil3" d="M1315.49 11477.63l0.21 -76.61c0,-20.51 -63.07,-20.51 -63.07,0l0.21 76.61c0,2.28 0.2,3.82 0.6,4.52 5.88,15.11 55.61,15.11 61.48,0 0.38,-0.69 0.57,-2.24 0.57,-4.52zm-72.61 -76.61c0,-31.1 82.62,-31.1 82.62,0l0 77.47c0,31.64 -82.62,31.64 -82.62,0l0 -77.47z"/>
   <path class="fil3" d="M-0 10983.97l258.43 1.03 286.32 -401.06c4.87,-6.8 42.37,-76.5 138.5,-72.35 105.34,4.53 359.7,2.06 359.7,2.06l90.54 0 -30.99 49.62 273.9 -2.05 75.44 -123c0,0 29.99,-37.23 -46.52,-37.22 -84.74,0 -757.21,-0.01 -757.21,-0.01l24.8 -29.98 -229.61 -0.54 -443.32 613.5z"/>
   <path class="fil3" d="M310.1 11458.41l-239.36 -1.75 491.73 -674.11c49.21,-67.45 70.15,-124.18 193.13,-134.51 123.03,-10.35 609.93,-2.21 668.79,-4.22 262.31,-9.03 219.24,109.54 212.95,121.02 -46.39,84.73 -158.01,237.16 -214.77,313.1 -85.04,113.79 -156.78,144.32 -314.48,145.84 -214.99,2.06 -464.11,-1.01 -464.11,-1.01l86.82 -108.56c0,0 319.71,0 336.23,0 45.91,0 60.51,-16.05 96.45,-59.18 20.9,-25.06 48.13,-60.7 84.13,-111.37 40.5,-53.56 72.57,-94.47 90.39,-124.18 24.49,-40.82 22.1,-60.52 -22.16,-62.91 -45.48,-2.06 -400.02,-2.06 -431.03,-2.06 -31.01,-0.01 -46.21,13.2 -59.27,30.22 -64.6,84.17 -515.45,673.69 -515.45,673.69z"/>
   <path class="fil3" d="M1628.25 10369.61l192.19 126.09c0,0 111.05,488.67 -185.07,879.79 163.02,-429.18 68.79,-821.46 -7.12,-1005.88z"/>
   <path class="fil3" d="M1866.96 10493.06l153.11 167.08c0,0 15.03,528.69 -414.7,800.5 203.57,-191.7 335.45,-544.17 261.59,-967.59z"/>
   <path class="fil4" d="M1699.7 11488.34l0 -42.91 19.03 0c3.82,0 6.72,0.4 8.72,1.16 1.98,0.77 3.58,2.12 4.78,4.07 1.18,1.96 1.77,4.12 1.77,6.48 0,3.05 -0.97,5.61 -2.96,7.7 -1.96,2.09 -5.01,3.41 -9.13,3.99 1.51,0.72 2.65,1.42 3.43,2.14 1.65,1.51 3.23,3.43 4.72,5.7l7.46 11.67 -7.15 0 -5.67 -8.93c-1.67,-2.57 -3.03,-4.54 -4.11,-5.9 -1.07,-1.37 -2.03,-2.33 -2.87,-2.87 -0.86,-0.54 -1.71,-0.93 -2.59,-1.14 -0.65,-0.13 -1.7,-0.2 -3.17,-0.2l-6.58 0 0 19.04 -5.68 0zm5.68 -23.96l12.2 0c2.59,0 4.63,-0.27 6.09,-0.81 1.47,-0.54 2.58,-1.41 3.33,-2.58 0.76,-1.17 1.14,-2.45 1.14,-3.85 0,-2.03 -0.73,-3.7 -2.21,-5 -1.47,-1.31 -3.79,-1.96 -6.98,-1.96l-13.57 0 0 14.2z"/>
   <path class="fil4" d="M1716.26 11433.06c9.34,0 17.8,3.79 23.92,9.91 6.12,6.11 9.91,14.57 9.91,23.92 0,9.34 -3.79,17.8 -9.91,23.92 -6.12,6.12 -14.58,9.91 -23.92,9.91 -9.35,0 -17.81,-3.79 -23.93,-9.91 -6.11,-6.12 -9.9,-14.58 -9.9,-23.92 0,-9.35 3.79,-17.81 9.9,-23.92 6.12,-6.12 14.58,-9.91 23.93,-9.91zm21.42 12.41c-5.49,-5.48 -13.06,-8.87 -21.42,-8.87 -8.37,0 -15.94,3.39 -21.42,8.87 -5.48,5.48 -8.87,13.06 -8.87,21.42 0,8.37 3.39,15.93 8.87,21.42 5.48,5.48 13.06,8.87 21.42,8.87 8.37,0 15.93,-3.39 21.42,-8.87 5.48,-5.49 8.87,-13.06 8.87,-21.42 0,-8.37 -3.39,-15.94 -8.87,-21.42z"/>
  </g>
  <g id="_2397448954560">
   <path class="fil3" d="M7318.82 10368.42l894.59 0 0 894.59 -894.59 0 0 -894.59zm375.43 655.37l0 -419.86 46.66 0 0 419.86 -46.66 0zm93.31 -139.96l0 0 0 -279.9 46.65 0 0 279.9 -46.65 0z"/>
   <path class="fil3" d="M7473.98 11336.33c17.87,0 31.91,4.97 42.13,14.85 10.21,9.87 15.36,23.28 15.36,40.13 0,10.72 -2.3,20.22 -6.89,28.43 -4.55,8.26 -11.24,14.69 -20,19.28 -8.76,4.6 -19.19,6.9 -31.36,6.9l-31.41 0 0 54.13 -37.29 0 0 -163.72 69.46 0zm-7.61 77.67l0 0c8.8,0 15.31,-2.3 19.52,-6.9 4.18,-4.6 6.3,-10.17 6.3,-16.64 0,-5.67 -2.12,-10.69 -6.3,-15.11 -4.21,-4.39 -10.63,-6.59 -19.28,-6.59l-24.8 0 0 45.24 24.56 0zm114.46 -77.67l0 0 -61.07 163.72 38.89 0 12.23 -33.66 55.11 0 12.08 33.66 39.54 0 -60.73 -163.72 -36.05 0zm34.44 98.89l0 0 -33.66 0 6.59 -17.74c2.43,-6.22 4.68,-12.34 6.8,-18.38 2.14,-6 3.45,-10.13 3.92,-12.39l3.36 10.22c2.94,9.15 5.12,16 6.64,20.56l6.35 17.74zm143.79 68.18l0 0c-16.73,0 -31.62,-3.53 -44.74,-10.59 -13.06,-7.06 -23.28,-17.06 -30.6,-30.05 -7.31,-12.98 -10.97,-27.91 -10.97,-44.89 0,-16.68 3.61,-31.5 10.85,-44.43 7.23,-12.94 17.35,-22.94 30.38,-30 12.99,-7.06 28.01,-10.61 45.08,-10.61 14.13,0 27.07,2.52 38.89,7.5 11.79,4.97 21.49,12.13 29.11,21.45 7.61,9.32 12.21,20.17 13.91,32.56l-41.4 0c-1.92,-8 -6.59,-14.48 -14.04,-19.41 -7.45,-4.94 -16.43,-7.4 -26.98,-7.4 -14.3,0 -25.61,4.59 -33.95,13.74 -8.39,9.2 -12.55,21.58 -12.55,37.11 0,15.62 4.25,27.96 12.8,36.98 8.52,9.02 19.75,13.54 33.71,13.54 10.22,0 19.07,-2.56 26.55,-7.58 7.5,-5.02 12.31,-11.62 14.48,-19.75l41.4 0c-1.54,12.04 -5.91,22.76 -13.23,32.17 -7.32,9.36 -16.94,16.68 -28.85,21.88 -11.92,5.19 -25.2,7.78 -39.83,7.78zm138.26 -133.28l0 0 0 31.07 63.11 0 0 32.51 -63.11 0 0 32.69 70.82 0 0 33.66 -108.09 0 0 -163.72 108.09 0 0 33.79 -70.82 0zm94.76 -33.79l0 0 65.96 0c21.62,0 37.84,4.51 48.64,13.53 10.77,9.02 16.18,22.22 16.18,39.59 0,11.23 -2.39,20.8 -7.16,28.77 -4.76,7.91 -11.74,14 -20.9,18.26l29.79 63.58 -41.87 0 -25.19 -57.24 -28.17 0 0 57.24 -37.29 0 0 -163.72zm65.71 74.56l0 0c8.64,0 15.1,-2.01 19.31,-5.96 4.26,-4 6.38,-9.07 6.38,-15.24 0,-5.95 -2.04,-10.97 -6.12,-14.94 -4.08,-4 -10.51,-6 -19.32,-6l-28.67 0 0 42.13 28.43 0z"/>
  </g>
  <g id="_2397448956288">
   <path class="fil3" d="M9856.57 11488.06l-9.86 0 0 2.15 7.4 0c-0.49,5.63 -4.18,9.01 -9.5,9.01 -5.37,0 -10.78,-4.6 -10.78,-11.28 0,-6.66 5.22,-11.26 10.78,-11.26 3.55,0 6.32,1.53 7.81,3.25l1.62 -1.68c-1.89,-2.15 -5.26,-3.99 -9.43,-3.99 -6.95,0 -13.46,5.6 -13.46,13.68 0,8.1 6.66,13.69 13.46,13.69 7.2,0 12.26,-5.33 11.96,-13.57zm102.61 13.3l0 0 2.76 0 -12.23 -26.83 -0.66 0 -12.19 26.83 2.72 0 3.6 -8.17 12.39 0 3.6 8.17zm-15.03 -10.35l0 0 5.26 -11.81 5.21 11.81 -10.47 0zm128.06 -16.48l0 0 -2.49 0 -11.23 23.2 -11.2 -23.2 -2.49 0 0 26.83 2.57 0 0 -21.2 10.13 21.2 1.98 0 10.16 -21.2 0 21.2 2.57 0 0 -26.83zm86.62 24.57l0 0 0 -10.04 9.67 0 0 -2.26 -9.67 0 0 -10.01 13.5 0 0 -2.25 -16.11 0 0 26.83 16.48 0 0 -2.26 -13.88 0zm105.99 -24.84l0 0c-4.6,0 -8.32,2.87 -8.32,6.75 0,3.75 2.57,5.6 6.32,6.9l3.25 1.15c2.92,1 5.49,2.15 5.49,5.36 0,3.19 -3.23,4.99 -6.64,4.99 -3.79,0 -6.55,-2.15 -7.59,-4.99l-2.15 0.93c1.27,3.68 5.1,6.29 9.74,6.29 4.61,0 9.16,-2.72 9.16,-7.22 0,-4.21 -3.21,-6.21 -7.54,-7.66l-3.11 -1.08c-2.8,-0.95 -4.41,-2.1 -4.41,-4.67 0,-2.72 2.42,-4.53 5.83,-4.53 3.37,0 5.68,1.88 6.63,4.11l2.18 -0.81c-1.22,-2.87 -4.36,-5.51 -8.85,-5.51z"/>
   <path class="fil3" d="M9950.58 11153.22c3.48,2.71 5.53,6.19 6.12,10.43 0.6,4.25 -0.47,8.11 -3.18,11.59 -2.72,3.5 -6.24,5.5 -10.56,6.04 -4.32,0.54 -8.21,-0.55 -11.71,-3.27 -3.48,-2.71 -5.46,-6.19 -5.92,-10.45 -0.46,-4.26 0.67,-8.13 3.39,-11.63 2.71,-3.48 6.16,-5.49 10.35,-6.01 4.18,-0.53 8.01,0.57 11.51,3.3z"/>
   <path class="fil3" d="M9906.87 11140.57c-4.02,-6.29 -6.68,-13.5 -7.93,-21.66 -1.26,-8.14 -2.66,-16.88 -4.21,-26.25 -1.55,-9.35 -3.91,-19.02 -7.07,-29.03 -3.17,-10 -8.61,-20.13 -16.34,-30.4 -7.03,-9.68 -14.4,-15.44 -22.08,-17.27 -7.68,-1.83 -14.2,-0.94 -19.55,2.69 -5.35,3.63 -9.06,9.55 -11.1,17.77 -2.05,8.21 -0.82,17.6 3.68,28.13 3.92,9.68 9.83,16.33 17.73,19.97 7.9,3.63 16.23,2.69 24.99,-2.85 2.85,-1.67 5.9,-0.52 9.15,3.44 3.25,3.95 5.76,8.78 7.52,14.48 1.77,5.69 2.3,11.2 1.56,16.52 -0.73,5.33 -3.59,8.39 -8.59,9.19 -6.39,1.18 -12.86,0.77 -19.38,-1.22 -6.54,-1.99 -12.71,-5.24 -18.54,-9.77 -5.83,-4.52 -11.15,-10.31 -15.96,-17.38 -4.8,-7.07 -8.73,-14.97 -11.79,-23.68 -4.61,-13.39 -6.41,-26.03 -5.37,-37.93 1.03,-11.91 3.99,-22.41 8.89,-31.51 4.89,-9.1 11.25,-16.23 19.08,-21.35 7.83,-5.13 16.04,-7.53 24.64,-7.2 8.6,0.33 17.29,3.9 26.11,10.7 8.81,6.82 16.63,17.66 23.44,32.55 4.08,8.49 6.75,17.99 8,28.48 1.26,10.48 2.25,21.01 3,31.6 0.74,10.59 1.49,20.79 2.23,30.6 0.75,9.81 2.65,18.29 5.71,25.44 1.92,4.52 2.56,8.2 1.88,11.05 -0.67,2.85 -2.05,4.55 -4.15,5.12 -2.09,0.56 -4.54,0.05 -7.33,-1.54 -2.79,-1.58 -5.54,-4.48 -8.21,-8.67z"/>
   <path class="fil3" d="M10014.1 10871.38c5.69,70.49 -10.31,23.89 -49.21,78.24 -68.61,95.89 -1.88,184.77 24.97,291.82l175.48 0.68c-0.57,-54.67 -10.31,-41.24 -43.07,-62.31 10.84,-66.22 76.74,-162.59 -14.61,-249.54 -37.97,-36.15 -44.92,-2.39 -52,-63.32l-41.57 4.42z"/>
   <path class="fil3" d="M9716.81 10525.54c-12.37,29 39.47,137.17 70.79,160.85 13.73,10.37 9.56,4.39 10.1,34.95 1.31,73.88 31.8,147.15 109.95,165.69 136.26,32.32 387.81,-104.46 285.63,-281.37 -14.23,-24.66 -19.44,-23.68 -21.78,-53.81 -3.16,-40.59 -9.12,-149.3 -31.28,-176.41 -28.39,-34.76 -102.43,113.65 -118.3,147.47 -9.9,21.04 -5.47,8.55 -50.37,19.14 -21.42,5.06 -43.33,12.66 -63.22,22.03 -26.87,12.66 -21.9,22.22 -52.03,14.47 -27.43,-7.06 -67.37,-23.72 -92.15,-36.45 -9.23,-4.73 -33.16,-19.78 -47.35,-16.55zm324.15 106.4c-8.85,2.52 -11.66,19.84 -6.3,38.66 5.36,18.83 16.88,32.04 25.74,29.52 8.85,-2.51 11.67,-19.83 6.3,-38.65 -5.37,-18.83 -16.88,-32.04 -25.74,-29.53zm-120.67 62.31c-7.02,1.99 -10.64,10.82 -8.1,19.71 2.52,8.88 10.25,14.47 17.26,12.47 7,-1.99 10.64,-10.82 8.1,-19.7 -2.52,-8.89 -10.25,-14.48 -17.26,-12.48zm15.8 123.3c-7.95,4.05 -16.7,7.45 -21.55,-2.09 -5.8,-11.33 7.13,-12.58 9.14,-8.95 1.65,2.97 -1.81,2.68 -3.72,4.85 1.34,1.49 0.65,1.51 3.21,0.34 10.05,-4.99 3.4,-16.03 -7.76,-10.36 -9.2,4.69 -13.77,12.14 -8.79,21.86 4.31,8.35 12.95,17.19 23.15,16.24 12.28,-1.15 40.51,-10.69 51.44,-16.24 13.41,-6.82 33.33,-36.93 38.67,-40.02 16.24,10.03 55.31,0.95 71.96,-7.52 15.94,-8.11 42.48,-33.75 31.58,-55.19 -9.22,-18.14 -35.67,-7.38 -23.23,11.19 1.57,-1.17 2.25,-0.02 -0.43,-4.48 -4.56,-7.56 7.3,-9.56 10.05,-4.14l1.27 2.48c3.21,6.34 -4.31,16.5 -11.03,19.89 -3.5,1.75 -13.07,3.93 -17.18,4.68 -14.57,2.68 -46.23,-28.7 -66,10.22 -0.86,1.68 -2.42,4.93 -2.52,6.69l-10.84 -5.9c-1.96,-0.67 -3.52,-0.32 -6.04,-0.42 -11.43,-0.45 -23.57,5.4 -28.8,16.44l-6.15 10.78c-6.63,11.65 -14.07,23.38 -26.43,29.67z"/>
   <path class="fil3" d="M9991.58 11241.45l-62.88 0.25c0.57,-54.66 10.32,-41.24 43.08,-62.31l-0.01 -0.04 19.8 0 0 62.1z"/>
   <path class="fil3" d="M9991.79 11260.66l-0.04 0c-4.65,0 -9.03,0.9 -13.15,2.69 -3.32,1.44 -6.54,7.31 -6.95,10.91l-2.44 16.37 21.75 0 0.82 -0.11 0.82 0.11 21.37 0 -2.43 -16.2c-0.47,-4.06 -2.7,-9.39 -6.57,-11.08 -4.12,-1.78 -8.51,-2.69 -13.15,-2.69l-0.04 0z"/>
   <path class="fil3" d="M9848.11 11260.66l-0.02 0c-4.66,0 -9.05,0.89 -13.15,2.69 -4.72,2.04 -4.27,6.43 -4.27,11.17l0 16.11 16.64 0 0.81 -0.11 0.82 0.11 21.14 0c-1.27,-8.83 0.36,-23.31 -8.78,-27.28 -4.12,-1.8 -8.49,-2.69 -13.15,-2.69l-0.04 0z"/>
   <path class="fil3" d="M9920.55 11260.66l0.04 0c4.65,0 9.03,0.89 13.14,2.69 4.72,2.04 4.27,6.43 4.27,11.17l0 16.11 -16.63 0 -0.82 -0.11 -0.82 0.11 -21.39 0.05c0.76,-8.91 -0.12,-23.36 9.02,-27.33 4.12,-1.8 8.49,-2.69 13.15,-2.69l0.04 0z"/>
   <path class="fil3" d="M9874.67 11454.84l-16.37 -117.54 -5.36 -32.73 0.27 33 0 117.27 -22.55 0 0 -171.43 22.55 -7.86 13.14 2.94 3.4 9.48 14.58 103.8 13.79 -99.68 1.58 -11.05 2.33 7.27c15.4,-28.76 5.12,-7.85 35.96,-7.85l0 174.1 -22.81 0 0 -117 0 -33.27 -5.1 33 -16.37 117.54 -19.05 0z"/>
   <polygon class="fil3" points="10110.29,11264.31 10080.23,11383.46 10080.23,11454.84 10053.67,11454.84 10053.67,11383.46 10023.88,11264.31 10046.16,11264.31 10067.09,11346.69 10087.75,11264.31 "/>
   <path class="fil3" d="M10188.38 11426.13c0,4.65 -0.89,9.07 -2.69,13.28 -1.78,4.2 -4.25,7.83 -7.38,10.86 -3.12,3.04 -6.75,5.46 -10.86,7.25 -4.12,1.78 -8.49,2.68 -13.15,2.68 -4.82,0 -9.3,-0.89 -13.41,-2.68 -4.12,-1.8 -7.74,-4.21 -10.88,-7.25 -3.13,-3.04 -5.58,-6.66 -7.38,-10.86 -1.78,-4.21 -2.68,-8.64 -2.68,-13.28l0 -131.5c0,-4.65 0.89,-9.03 2.68,-13.15 1.8,-4.11 4.25,-7.73 7.38,-10.86 3.13,-3.13 6.76,-5.58 10.88,-7.38 4.11,-1.78 8.59,-2.69 13.41,-2.69 4.66,0 9.03,0.9 13.15,2.69 4.12,1.8 7.74,4.25 10.86,7.38 3.13,3.13 5.6,6.76 7.38,10.86 1.8,4.12 2.69,8.51 2.69,13.15l0 131.5zm-26.29 -139.55l0 0c0,-2.32 -0.76,-4.25 -2.29,-5.77 -1.51,-1.51 -3.36,-2.28 -5.5,-2.28 -2.32,0 -4.25,0.76 -5.76,2.28 -1.53,1.53 -2.29,3.45 -2.29,5.77l0 150.54c0,2.15 0.76,4.02 2.29,5.64 1.51,1.61 3.44,2.42 5.76,2.42 2.15,0 3.99,-0.81 5.5,-2.42 1.53,-1.62 2.29,-3.5 2.29,-5.64l0 -150.54z"/>
   <path class="fil3" d="M10248.49 11373.54c0,-2.33 -0.75,-4.26 -2.28,-5.77 -1.53,-1.53 -3.36,-2.29 -5.5,-2.29 -2.32,0 -4.25,0.76 -5.77,2.29 -1.51,1.51 -2.28,3.44 -2.28,5.77l0 81.58 -26.3 0 0 -190.81 16.91 0 0.81 -0.26c5.19,-2.86 10.74,-4.29 16.64,-4.29 4.66,0 9.03,0.89 13.15,2.68 4.12,1.8 7.73,4.26 10.86,7.39 3.13,3.12 5.6,6.75 7.38,10.86 1.8,4.11 2.69,8.59 2.69,13.41l0 41.06c0,4.83 -0.99,9.48 -2.96,13.95 -1.96,4.48 -4.74,8.32 -8.32,11.54l-2.15 1.88 2.15 1.88c3.58,3.21 6.36,7.02 8.32,11.4 1.97,4.39 2.96,8.99 2.96,13.82l0 65.48 -26.3 0 0 -81.58zm-15.83 -28.45l0 0c0,2.32 0.76,4.25 2.28,5.77 1.53,1.53 3.45,2.28 5.77,2.28 2.15,0 3.98,-0.75 5.5,-2.28 1.53,-1.53 2.28,-3.45 2.28,-5.77l0 -57.16c0,-2.32 -0.75,-4.25 -2.28,-5.76 -1.53,-1.53 -3.36,-2.29 -5.5,-2.29 -2.32,0 -4.25,0.76 -5.77,2.29 -1.51,1.51 -2.28,3.44 -2.28,5.76l0 57.16z"/>
   <path class="fil3" d="M10003.49 11391.24l-23.35 0.27 -7.24 63.33 -22.55 0 18.87 -164.22 3.14 -14.35 38.38 0 3.21 14.18 19.59 164.12 -22.55 0 -7.51 -63.33zm-11.8 -98.75l0 0 -9.4 80.51 18.78 0 -9.39 -80.51z"/>
  </g>
 </g>
</svg>
