<svg width="1211" height="342" viewBox="0 0 1211 342" fill="none" xmlns="http://www.w3.org/2000/svg">
<path fill-rule="evenodd" clip-rule="evenodd" d="M1.93761 298.376C1.90801 298.347 1.84881 298.347 1.84881 298.287C0.250474 296.749 0.220879 294.204 1.76002 292.606L47.1941 245.798C47.8407 245.13 48.6998 244.709 49.6236 244.606C50.5475 244.503 51.4782 244.726 52.2555 245.235C72.5899 258.491 89.106 265.148 101.804 265.148C142.68 265.148 175.771 231.95 175.771 190.97L176.008 22.2866C176.008 20.0675 177.784 18.2626 180.004 18.2626H243.582C245.802 18.2626 247.607 20.0379 247.607 22.2866L247.4 190.97C247.4 271.599 182.253 336.959 101.833 336.959C70.1628 336.959 40.0608 327.639 15.3459 309.649C12.0012 307.253 7.56137 303.495 1.93761 298.376V298.376ZM463.649 122.088L428.93 68.5925C427.746 66.758 428.219 64.3021 430.054 63.089L514.44 6.4272C520.479 2.344 527.553 0.18404 534.834 0.154452C555.376 0.095275 572.099 16.9903 572.158 37.9093L572.809 195.556C572.809 275.8 509.231 340.451 430.824 340.451C352.21 340.451 288.483 275.623 288.483 195.675L288.424 22.1091C288.424 19.8899 290.2 18.085 292.45 18.085H292.479L355.14 18.4105C357.33 18.4401 359.106 20.2154 359.136 22.4345L359.432 195.675C359.432 235.797 391.398 268.285 430.824 268.285C470.072 268.285 501.861 235.915 501.861 196.03C501.861 195.941 501.743 175.229 501.447 101.584L469.243 123.242C467.408 124.485 464.922 123.982 463.679 122.118C463.679 122.118 463.649 122.118 463.649 122.088ZM606.611 20.5409C606.611 15.2204 608.725 10.1178 612.489 6.35564C616.252 2.59348 621.357 0.479926 626.679 0.479926C631.8 0.479926 636.743 2.43276 640.472 5.98337L664.891 29.0623C688.422 11.4276 717.488 0.98293 748.952 0.98293C827.566 0.98293 891.262 65.8112 891.262 145.759L891.351 319.325C891.351 321.514 889.546 323.349 887.326 323.349H887.296L824.636 323.023C822.445 322.994 820.669 321.218 820.669 318.999L820.344 145.759C820.344 105.637 788.377 73.1491 748.952 73.1491C709.704 73.1491 677.885 105.489 677.885 145.404L678.329 237.809L710.532 216.15C712.367 214.907 714.854 215.41 716.097 217.245C716.097 217.274 716.127 217.274 716.127 217.304L750.816 270.77C752 272.605 751.497 275.06 749.692 276.274L665.305 332.935C659.277 336.998 652.182 339.191 644.912 339.238C624.341 339.297 606.641 322.165 606.581 301.217V20.5409H606.611ZM1069.54 0.154452C1147.62 0.154452 1210.93 64.1838 1210.93 143.185V198.012C1210.93 277.013 1147.62 341.043 1069.54 341.043C991.454 341.043 928.143 277.013 928.143 198.012V143.185C928.143 64.1838 991.454 0.154452 1069.54 0.154452V0.154452ZM1069.54 71.6697C1030.5 71.6697 998.824 103.684 998.824 143.185V198.012C998.824 237.513 1030.5 269.527 1069.54 269.527C1108.58 269.527 1140.25 237.513 1140.25 198.012V143.185C1140.25 103.684 1108.58 71.6697 1069.54 71.6697" fill="#252AFF"/>
</svg>
