<svg id="Layer_1" data-name="Layer 1" xmlns="http://www.w3.org/2000/svg" xmlns:xlink="http://www.w3.org/1999/xlink" width="18.95cm" height="4.89cm" viewBox="0 0 537.21 138.53">
  <defs>
    <clipPath id="clip-path" transform="translate(10.66 21.29)">
      <path d="M386.4,7.64c-.52.26-13.16,7-15.24,8.18-.9.51-2.05,1.56-2.05,2.67V34.15a1.65,1.65,0,0,0,2.34,1.55c.78-.34,14.74-7.87,15.78-8.56s1.81-1.2,1.81-2.8V8.84a1.59,1.59,0,0,0-1.71-1.43,2,2,0,0,0-.93.23" fill="none"/>
    </clipPath>
    <linearGradient id="linear-gradient" x1="-1416.32" y1="507.87" x2="-1415.32" y2="507.87" gradientTransform="matrix(0, -18.66, -18.66, 0, 9856.56, -26399.28)" gradientUnits="userSpaceOnUse">
      <stop offset="0" stop-color="#ef4123"/>
      <stop offset="0.65" stop-color="#f57b20"/>
      <stop offset="1" stop-color="#f7941e"/>
    </linearGradient>
    <clipPath id="clip-path-2" transform="translate(10.66 21.29)">
      <path d="M181.37,7.64c-.53.26-13.17,7-15.25,8.18-.89.51-2,1.56-2,2.67V34.15a1.65,1.65,0,0,0,2.34,1.55c.78-.34,14.73-7.87,15.77-8.56,1.19-.79,1.81-1.2,1.81-2.8V8.84a1.59,1.59,0,0,0-1.7-1.43,2,2,0,0,0-.93.23" fill="none"/>
    </clipPath>
    <linearGradient id="linear-gradient-2" x1="-1409.84" y1="502.37" x2="-1408.84" y2="502.37" gradientTransform="matrix(0, -18.1, -18.1, 0, 9269.39, -25491.88)" gradientUnits="userSpaceOnUse">
      <stop offset="0" stop-color="#ef3b24"/>
      <stop offset="0.43" stop-color="#f36021"/>
      <stop offset="1" stop-color="#f78d1e"/>
    </linearGradient>
    <clipPath id="clip-path-3" transform="translate(10.66 21.29)">
      <path d="M9.93,43.5V56.25c0,1.15,1.22.82,1.88.53l17-9a4.09,4.09,0,0,0,2.08-3.58v-.36h0V38.38c0-10.5,7.46-16.46,17.26-16.46,5.41,0,9.87,2,12.8,5.58a.18.18,0,0,1,0-.05s.65.78,1,1.12.66.83,2,.3l14-7.43a1.45,1.45,0,0,0,.62-2C71.59,10.83,60.3,6.86,47.71,6.86,26.65,6.86,9.93,17,9.93,43.5" fill="none"/>
    </clipPath>
    <linearGradient id="linear-gradient-3" x1="-1403.3" y1="525.51" x2="-1402.3" y2="525.51" gradientTransform="matrix(0, -30.49, -30.49, 0, 16065.97, -42742.17)" xlink:href="#linear-gradient-2"/>
  </defs>
  <title>OBJ - Logotipo</title>
  <path d="M178.68,103.75c-2.76,1.67-22.3,14-25.87,13.48-1.61-.2-2.47-.93-2.47-2.92,0-1.51-.13-10.62,0-12.41a5,5,0,0,1,2.32-3.71c1.78-1.08,5.7-3.44,9.53-5.7,2.59-1.52,2-6.61,2-10.18V45.17a4.76,4.76,0,0,1,2.26-4.07c1.43-.92,13.58-7.32,14.82-8,2.45-1.36,2.92.87,2.92,2v48c0,14-.51,17.62-5.55,20.66" transform="translate(10.66 21.29)"/>
  <path d="M233.62,57.24c0-7.76-4.19-11.64-11.11-11.64s-11.35,4-11.35,11.64v.42h22.46Zm16.91,10.9H211.16v.21c0,6,3,11.43,12.71,11.43,7.78,0,18.77-.52,23.7-.93h.36c1.36,0,2.35.53,2.35,1.67v8c0,1.68-.49,2.43-2.6,2.83a109.38,109.38,0,0,1-25.29,2.53c-14.95,0-31-6.71-31-27V59.54C191.4,42.66,203,32,222.63,32c20.24,0,30.5,11.74,30.5,27.58v6.08a2.36,2.36,0,0,1-2.6,2.52" transform="translate(10.66 21.29)"/>
  <path d="M304.1,92.28a79.85,79.85,0,0,1-16.42,1.57c-17.4,0-28.75-9.45-28.75-26.54V58.49c0-17.1,11.35-26.53,28.75-26.53a79.14,79.14,0,0,1,16.42,1.57c1.84.42,2.59.84,2.59,2.41v9.33c0,1-1.1,1.77-2.35,1.77h-.24A139.14,139.14,0,0,0,289,46.32c-5.55,0-10.12,2.83-10.12,12.17v8.82c0,9.33,4.57,12.16,10.12,12.16a138.73,138.73,0,0,0,15.06-.73h.24c1.25,0,2.35.73,2.35,1.78v9.33c0,1.57-.75,2-2.59,2.43" transform="translate(10.66 21.29)"/>
  <path d="M386,86.51c-2.25,1.43-14.45,7.87-14.45,7.87a2.3,2.3,0,0,1-2.47-2.11V45.43c0-2,.58-3.53,2.15-4.48,2.18-1.33,13.93-7.47,15.11-8a1.89,1.89,0,0,1,2.73,1.69V81.35c0,2.38-.89,3.77-3.07,5.16" transform="translate(10.66 21.29)"/>
  <path d="M462.74,35.21,447.19,82.83c-3.1,9.33-10.63,11-17.9,11s-14.69-1.69-17.77-11L396.08,35.21a1.2,1.2,0,0,1-.12-.63,1.84,1.84,0,0,1,2-1.79h16.29a2.81,2.81,0,0,1,2.59,2.2l10.62,41.12c.36,1.58,1,2.2,1.85,2.2s1.59-.62,2-2.2L441.88,35a2.82,2.82,0,0,1,2.59-2.2h16.29a2,2,0,0,1,2.1,1.79,1.2,1.2,0,0,1-.12.63" transform="translate(10.66 21.29)"/>
  <path d="M507,57.24c0-7.76-4.2-11.64-11.1-11.64s-11.35,4-11.35,11.64v.42H507Zm16.9,10.9H484.58v.21c0,6,2.95,11.43,12.7,11.43,7.78,0,18.76-.52,23.71-.93h.37c1.35,0,2.32.53,2.32,1.67v8c0,1.68-.47,2.43-2.58,2.83a109.35,109.35,0,0,1-25.3,2.53c-14.93,0-31-6.71-31-27V59.54c0-16.88,11.61-27.58,31.24-27.58,20.23,0,30.48,11.74,30.48,27.58v6.08a2.36,2.36,0,0,1-2.61,2.52" transform="translate(10.66 21.29)"/>
  <g clip-path="url(#clip-path)">
    <rect x="363.41" y="4.37" width="31.33" height="34.7" transform="translate(47.95 208.38) rotate(-29.1)" fill="url(#linear-gradient)"/>
  </g>
  <g clip-path="url(#clip-path-2)">
    <rect x="159.63" y="4.8" width="28.82" height="33.85" transform="translate(14.37 84.8) rotate(-20.9)" fill="url(#linear-gradient-2)"/>
  </g>
  <path d="M359.91,32.63h-14.4V9c0-1-.74-2.34-3.23-.94-.73.41-12,6.42-15,8-1.69.92-1.92,1.65-1.92,2.8V32.63h-9.89a2.49,2.49,0,0,0-2.59,2.16v6.14c0,1.15,1.23,2,2.59,2.2h9.89V57.75c0,2.39,1,2,2.47,1.2s27.82-15,30.86-16.65c1.36-.75,3.68-1.91,3.68-3.57,0-1.08,0-2.64,0-3.75a2.32,2.32,0,0,0-2.47-2.35" transform="translate(10.66 21.29)"/>
  <path d="M355.62,81.17h-6c-3.7,0-4.07-.74-4.07-5V56.5c0-.86-.83-1.54-2.38-.52-.9.58-12.34,6.48-16.36,8.83a2.76,2.76,0,0,0-1.37,2.77v8.67c0,14.88,7.14,17.82,20.72,17.82a61.54,61.54,0,0,0,9.75-.84c1.48-.21,2.35-1,2.35-2.09V83c0-1.16-1-1.78-2.6-1.78" transform="translate(10.66 21.29)"/>
  <path d="M135.93,59.1c0-7.35-2.21-12.79-11-12.79-3,0-7.17.2-10.12.52V79.55a80.7,80.7,0,0,0,10.12.63c8.77,0,11-5.45,11-12.91Zm-11,35a133.78,133.78,0,0,1-26.29-2.75c-3.35-.61-3.82-1.34-3.82-3V19.12c0-1.74,1.36-2.59,2.9-3.5,2.25-1.33,11.85-6.35,13.78-7.4,2.5-1.37,3.24-.41,3.24.65V32.94A100.24,100.24,0,0,1,125,32.25c20.85,0,31,10.38,31,26.85v8.17c0,17-11,26.87-31,26.87" transform="translate(10.66 21.29)"/>
  <g clip-path="url(#clip-path-3)">
    <rect x="2.19" y="-6.16" width="84.56" height="76.59" transform="translate(0.88 45.26) rotate(-27.3)" fill="url(#linear-gradient-3)"/>
  </g>
  <path d="M82.06,25.56a1.31,1.31,0,0,0-1.6-.67l-13.21,7-2.11,1.25c-1.09.64-.68,2.06-.62,2.62l0,0a22.77,22.77,0,0,1,.23,3.15V61.78c0,10.62-5.9,17.47-16.57,17.47-11.79,0-17.26-8.12-17.26-18.62v-7a1.18,1.18,0,0,0-1.77-1.15l-.61.29L11.42,61.86a2.08,2.08,0,0,0-1.06,1.61,4.81,4.81,0,0,1,0,.69C13,85.6,28.56,93.74,47.7,93.74c21.06,0,37.78-10.16,37.78-36.65V43.5a43.63,43.63,0,0,0-3.42-17.94" transform="translate(10.66 21.29)"/>
</svg>
