<svg width="793" height="72" viewBox="0 0 793 72" fill="none" xmlns="http://www.w3.org/2000/svg">
<g clip-path="url(#clip0)">
<g clip-path="url(#clip1)">
<path d="M166 30C165.4 30 165 29.6 165 29V25.1C165.1 24.3 164.8 23.7 164.3 23.2C164 22.9 163.9 22.5 164.1 22.2C164.2 21.8 164.6 21.6 164.9 21.5C167.8 21.2 170.5 20.2 170.5 15.5C170.5 14.4 170.1 13.3 169.3 12.4C169 12.1 169 11.7 169.1 11.4C169.4 10.6 169.4 9.8 169.2 9C168.7 9.1 167.9 9.4 166.6 10.3C166.4 10.5 166.1 10.5 165.8 10.4C163.7 9.8 161.4 9.8 159.3 10.4C159 10.5 158.7 10.5 158.4 10.3C157.2 9.4 156.3 9.1 155.8 9C155.6 9.8 155.6 10.6 155.9 11.4C156 11.8 156 12.2 155.7 12.4C154.9 13.3 154.5 14.4 154.5 15.5C154.5 20.2 157.2 21.2 160.1 21.5C160.5 21.5 160.8 21.8 160.9 22.2C161 22.6 160.9 23 160.7 23.2C160.2 23.7 160 24.3 160 25V25.9V26V28.9C160 29.5 159.6 29.9 159 29.9C158.4 29.9 158 29.5 158 28.9V27.2C155 27.7 153.7 26 152.8 24.9C152.4 24.4 152.1 24 151.7 23.9C151.2 23.8 150.8 23.2 151 22.7C151.1 22.2 151.7 21.8 152.2 22C153.2 22.3 153.8 23 154.4 23.7C155.2 24.8 155.9 25.6 158 25.2V25.1C158 24.5 158.1 23.8 158.3 23.3C155.5 22.7 152.5 20.9 152.5 15.6C152.5 14.1 153 12.7 153.9 11.6C153.5 10.2 153.6 8.9 154.2 7.6C154.3 7.3 154.5 7.1 154.8 7C155.2 6.9 156.5 6.7 159.2 8.4C161.4 7.9 163.7 7.9 165.8 8.4C168.4 6.7 169.8 6.9 170.2 7C170.5 7.1 170.7 7.3 170.8 7.6C171.3 8.9 171.4 10.2 171.1 11.5C172 12.6 172.5 14 172.5 15.5C172.5 21.2 169.1 22.7 166.7 23.3C166.9 23.9 167 24.6 167 25.2V29C167 29.6 166.6 30 166 30Z" fill="white" fill-opacity="0.05"/>
</g>
<g clip-path="url(#clip2)">
<path fill-rule="evenodd" clip-rule="evenodd" d="M443.557 9.48165C443.555 9.47793 443.554 9.4742 443.553 9.47045L443.557 9.48165ZM444.107 11.1728L445.999 16.9797C446.133 17.3914 446.517 17.67 446.95 17.67H455.05C455.483 17.67 455.867 17.391 456.001 16.979L457.887 11.1751L459.779 16.999L461.003 20.6239L451 27.8938L441.036 20.6521L444.107 11.1728ZM461.147 20.6983L461.067 20.5873C461.078 20.573 461.091 20.5605 461.107 20.5506L461.194 20.6849L461.147 20.6983ZM461.17 20.7302L461.65 21.39L461.213 20.7157L461.17 20.7302ZM462.22 22.2117L451.588 29.9389C451.237 30.1937 450.763 30.1937 450.412 29.9389L439.762 22.1989L439.758 22.1956C439.445 21.9656 439.213 21.6426 439.095 21.2727C438.977 20.9042 438.979 20.5079 439.099 20.1403L442.759 8.851C442.765 8.8336 442.771 8.81636 442.777 8.79929C442.857 8.59316 442.984 8.4085 443.147 8.25999C443.411 8.02034 443.754 7.88749 444.11 7.88749C444.467 7.88749 444.811 8.02095 445.074 8.26165C445.081 8.268 445.088 8.27444 445.095 8.28098C445.266 8.44585 445.392 8.65078 445.463 8.87701L447.676 15.67H454.323L456.539 8.851C456.545 8.8336 456.551 8.81636 456.557 8.79929C456.637 8.59316 456.764 8.4085 456.927 8.25999C457.191 8.02034 457.534 7.88749 457.89 7.88749C458.247 7.88749 458.591 8.02095 458.854 8.26165C458.861 8.268 458.868 8.27444 458.875 8.28098C459.046 8.44597 459.172 8.65108 459.243 8.8775L461.679 16.3754L462.947 20.13C462.949 20.1359 462.951 20.1419 462.953 20.1478C462.956 20.1553 462.958 20.1628 462.96 20.1704C463.071 20.5504 463.056 20.956 462.918 21.3269C462.783 21.6878 462.539 21.9971 462.22 22.2117ZM456.927 8.25999C456.928 8.25944 456.929 8.25889 456.929 8.25834L457.6 9L456.926 8.26165C456.926 8.2611 456.927 8.26054 456.927 8.25999ZM458.271 9.74166L458.274 9.73835C458.273 9.73946 458.272 9.74056 458.271 9.74166Z" fill="white" fill-opacity="0.05"/>
</g>
<path fill-rule="evenodd" clip-rule="evenodd" d="M225.879 9.87868C226.441 9.31607 227.204 9 228 9H236C236.265 9 236.52 9.10536 236.707 9.29289L242.707 15.2929C242.895 15.4804 243 15.7348 243 16V28C243 28.7957 242.684 29.5587 242.121 30.1213C241.559 30.6839 240.796 31 240 31H228C227.204 31 226.441 30.6839 225.879 30.1213C225.316 29.5587 225 28.7957 225 28V12C225 11.2044 225.316 10.4413 225.879 9.87868ZM228 11C227.735 11 227.48 11.1054 227.293 11.2929C227.105 11.4804 227 11.7348 227 12V28C227 28.2652 227.105 28.5196 227.293 28.7071C227.48 28.8946 227.735 29 228 29H240C240.265 29 240.52 28.8946 240.707 28.7071C240.895 28.5196 241 28.2652 241 28V16.4142L235.586 11H228Z" fill="white" fill-opacity="0.05"/>
<path fill-rule="evenodd" clip-rule="evenodd" d="M236 9C236.552 9 237 9.44772 237 10V15H242C242.552 15 243 15.4477 243 16C243 16.5523 242.552 17 242 17H236C235.448 17 235 16.5523 235 16V10C235 9.44772 235.448 9 236 9Z" fill="white" fill-opacity="0.05"/>
<path fill-rule="evenodd" clip-rule="evenodd" d="M229 21C229 20.4477 229.448 20 230 20H238C238.552 20 239 20.4477 239 21C239 21.5523 238.552 22 238 22H230C229.448 22 229 21.5523 229 21Z" fill="white" fill-opacity="0.05"/>
<path fill-rule="evenodd" clip-rule="evenodd" d="M229 25C229 24.4477 229.448 24 230 24H238C238.552 24 239 24.4477 239 25C239 25.5523 238.552 26 238 26H230C229.448 26 229 25.5523 229 25Z" fill="white" fill-opacity="0.05"/>
<path fill-rule="evenodd" clip-rule="evenodd" d="M229 17C229 16.4477 229.448 16 230 16H232C232.552 16 233 16.4477 233 17C233 17.5523 232.552 18 232 18H230C229.448 18 229 17.5523 229 17Z" fill="white" fill-opacity="0.05"/>
<path fill-rule="evenodd" clip-rule="evenodd" d="M192 48C191.448 48 191 48.4477 191 49V61C191 61.5523 191.448 62 192 62H204C204.552 62 205 61.5523 205 61V49C205 48.4477 204.552 48 204 48H192ZM189 49C189 47.3431 190.343 46 192 46H204C205.657 46 207 47.3431 207 49V61C207 62.6569 205.657 64 204 64H192C190.343 64 189 62.6569 189 61V49Z" fill="white" fill-opacity="0.05"/>
<path fill-rule="evenodd" clip-rule="evenodd" d="M194 52C194 51.4477 194.448 51 195 51H201C201.552 51 202 51.4477 202 52V58C202 58.5523 201.552 59 201 59H195C194.448 59 194 58.5523 194 58V52ZM196 53V57H200V53H196Z" fill="white" fill-opacity="0.05"/>
<path fill-rule="evenodd" clip-rule="evenodd" d="M195 43C195.552 43 196 43.4477 196 44V47C196 47.5523 195.552 48 195 48C194.448 48 194 47.5523 194 47V44C194 43.4477 194.448 43 195 43Z" fill="white" fill-opacity="0.05"/>
<path fill-rule="evenodd" clip-rule="evenodd" d="M201 43C201.552 43 202 43.4477 202 44V47C202 47.5523 201.552 48 201 48C200.448 48 200 47.5523 200 47V44C200 43.4477 200.448 43 201 43Z" fill="white" fill-opacity="0.05"/>
<path fill-rule="evenodd" clip-rule="evenodd" d="M195 62C195.552 62 196 62.4477 196 63V66C196 66.5523 195.552 67 195 67C194.448 67 194 66.5523 194 66V63C194 62.4477 194.448 62 195 62Z" fill="white" fill-opacity="0.05"/>
<path fill-rule="evenodd" clip-rule="evenodd" d="M201 62C201.552 62 202 62.4477 202 63V66C202 66.5523 201.552 67 201 67C200.448 67 200 66.5523 200 66V63C200 62.4477 200.448 62 201 62Z" fill="white" fill-opacity="0.05"/>
<path fill-rule="evenodd" clip-rule="evenodd" d="M205 52C205 51.4477 205.448 51 206 51H209C209.552 51 210 51.4477 210 52C210 52.5523 209.552 53 209 53H206C205.448 53 205 52.5523 205 52Z" fill="white" fill-opacity="0.05"/>
<path fill-rule="evenodd" clip-rule="evenodd" d="M205 57C205 56.4477 205.448 56 206 56H209C209.552 56 210 56.4477 210 57C210 57.5523 209.552 58 209 58H206C205.448 58 205 57.5523 205 57Z" fill="white" fill-opacity="0.05"/>
<path fill-rule="evenodd" clip-rule="evenodd" d="M186 52C186 51.4477 186.448 51 187 51H190C190.552 51 191 51.4477 191 52C191 52.5523 190.552 53 190 53H187C186.448 53 186 52.5523 186 52Z" fill="white" fill-opacity="0.05"/>
<path fill-rule="evenodd" clip-rule="evenodd" d="M186 57C186 56.4477 186.448 56 187 56H190C190.552 56 191 56.4477 191 57C191 57.5523 190.552 58 190 58H187C186.448 58 186 57.5523 186 57Z" fill="white" fill-opacity="0.05"/>
<path fill-rule="evenodd" clip-rule="evenodd" d="M300 10C300.552 10 301 10.4477 301 11V23C301 23.5523 300.552 24 300 24C299.448 24 299 23.5523 299 23V11C299 10.4477 299.448 10 300 10Z" fill="white" fill-opacity="0.05"/>
<path fill-rule="evenodd" clip-rule="evenodd" d="M312 12C310.895 12 310 12.8954 310 14C310 15.1046 310.895 16 312 16C313.105 16 314 15.1046 314 14C314 12.8954 313.105 12 312 12ZM308 14C308 11.7909 309.791 10 312 10C314.209 10 316 11.7909 316 14C316 16.2091 314.209 18 312 18C309.791 18 308 16.2091 308 14Z" fill="white" fill-opacity="0.05"/>
<path fill-rule="evenodd" clip-rule="evenodd" d="M300 24C298.895 24 298 24.8954 298 26C298 27.1046 298.895 28 300 28C301.105 28 302 27.1046 302 26C302 24.8954 301.105 24 300 24ZM296 26C296 23.7909 297.791 22 300 22C302.209 22 304 23.7909 304 26C304 28.2091 302.209 30 300 30C297.791 30 296 28.2091 296 26Z" fill="white" fill-opacity="0.05"/>
<path fill-rule="evenodd" clip-rule="evenodd" d="M312 16C312.552 16 313 16.4477 313 17C313 19.6522 311.946 22.1957 310.071 24.0711C308.196 25.9464 305.652 27 303 27C302.448 27 302 26.5523 302 26C302 25.4477 302.448 25 303 25C305.122 25 307.157 24.1571 308.657 22.6569C310.157 21.1566 311 19.1217 311 17C311 16.4477 311.448 16 312 16Z" fill="white" fill-opacity="0.05"/>
<path fill-rule="evenodd" clip-rule="evenodd" d="M381.293 13.2929C381.683 12.9024 382.317 12.9024 382.707 13.2929L388.707 19.2929C389.098 19.6834 389.098 20.3166 388.707 20.7071L382.707 26.7071C382.317 27.0976 381.683 27.0976 381.293 26.7071C380.902 26.3166 380.902 25.6834 381.293 25.2929L386.586 20L381.293 14.7071C380.902 14.3166 380.902 13.6834 381.293 13.2929Z" fill="white" fill-opacity="0.05"/>
<path fill-rule="evenodd" clip-rule="evenodd" d="M374.707 13.2929C375.098 13.6834 375.098 14.3166 374.707 14.7071L369.414 20L374.707 25.2929C375.098 25.6834 375.098 26.3166 374.707 26.7071C374.317 27.0976 373.683 27.0976 373.293 26.7071L367.293 20.7071C366.902 20.3166 366.902 19.6834 367.293 19.2929L373.293 13.2929C373.683 12.9024 374.317 12.9024 374.707 13.2929Z" fill="white" fill-opacity="0.05"/>
<path fill-rule="evenodd" clip-rule="evenodd" d="M9 17C9 16.4477 9.44772 16 10 16H26C26.5523 16 27 16.4477 27 17C27 17.5523 26.5523 18 26 18H10C9.44772 18 9 17.5523 9 17Z" fill="white" fill-opacity="0.05"/>
<path fill-rule="evenodd" clip-rule="evenodd" d="M9 23C9 22.4477 9.44772 22 10 22H26C26.5523 22 27 22.4477 27 23C27 23.5523 26.5523 24 26 24H10C9.44772 24 9 23.5523 9 23Z" fill="white" fill-opacity="0.05"/>
<path fill-rule="evenodd" clip-rule="evenodd" d="M16.1104 10.0061C16.6593 10.0671 17.0549 10.5615 16.9939 11.1104L14.9939 29.1104C14.9329 29.6593 14.4385 30.0549 13.8896 29.9939C13.3407 29.9329 12.9451 29.4385 13.0061 28.8896L15.0061 10.8896C15.0671 10.3407 15.5615 9.94513 16.1104 10.0061Z" fill="white" fill-opacity="0.05"/>
<path fill-rule="evenodd" clip-rule="evenodd" d="M22.1104 10.0061C22.6593 10.0671 23.0549 10.5615 22.9939 11.1104L20.9939 29.1104C20.9329 29.6593 20.4385 30.0549 19.8896 29.9939C19.3407 29.9329 18.9451 29.4385 19.0061 28.8896L21.0061 10.8896C21.0671 10.3407 21.5615 9.94513 22.1104 10.0061Z" fill="white" fill-opacity="0.05"/>
<path fill-rule="evenodd" clip-rule="evenodd" d="M516 13C516 13.0009 516 13.0052 516.003 13.0153C516.006 13.0264 516.015 13.0485 516.035 13.0814C516.078 13.1506 516.164 13.2545 516.326 13.3823C516.656 13.6425 517.196 13.9206 517.952 14.1726C519.454 14.6732 521.592 15 524 15C526.408 15 528.546 14.6732 530.048 14.1726C530.804 13.9206 531.344 13.6425 531.674 13.3823C531.836 13.2545 531.922 13.1506 531.965 13.0814C531.985 13.0485 531.994 13.0264 531.997 13.0153C532 13.0052 532 13.001 532 13.0001C532 12.9993 532 12.9951 531.997 12.9847C531.994 12.9736 531.985 12.9515 531.965 12.9186C531.922 12.8494 531.836 12.7455 531.674 12.6177C531.344 12.3575 530.804 12.0794 530.048 11.8274C528.546 11.3268 526.408 11 524 11C521.592 11 519.454 11.3268 517.952 11.8274C517.196 12.0794 516.656 12.3575 516.326 12.6177C516.164 12.7455 516.078 12.8494 516.035 12.9186C516.015 12.9515 516.006 12.9736 516.003 12.9847C516 12.9948 516 12.9991 516 13ZM517.32 9.93C519.075 9.3448 521.437 9 524 9C526.563 9 528.925 9.3448 530.68 9.93C531.553 10.2209 532.331 10.5892 532.912 11.0469C533.481 11.4956 534 12.1481 534 13C534 13.8519 533.481 14.5044 532.912 14.9531C532.331 15.4108 531.553 15.7791 530.68 16.07C528.925 16.6552 526.563 17 524 17C521.437 17 519.075 16.6552 517.32 16.07C516.447 15.7791 515.669 15.4108 515.088 14.9531C514.519 14.5044 514 13.8519 514 13C514 12.1481 514.519 11.4956 515.088 11.0469C515.669 10.5892 516.447 10.2209 517.32 9.93Z" fill="white" fill-opacity="0.05"/>
<path fill-rule="evenodd" clip-rule="evenodd" d="M515 19C515.552 19 516 19.4477 516 20C516 20.0019 516 20.007 516.003 20.018C516.007 20.0298 516.015 20.0521 516.036 20.0851C516.078 20.1543 516.163 20.258 516.324 20.3853C516.652 20.6447 517.188 20.9223 517.942 21.174C519.439 21.6738 521.577 22 524 22C526.423 22 528.561 21.6738 530.058 21.174C530.812 20.9223 531.348 20.6447 531.676 20.3853C531.837 20.258 531.922 20.1543 531.964 20.0851C531.985 20.0521 531.993 20.0298 531.997 20.018C532 20.007 532 20.0019 532 20C532 19.4477 532.448 19 533 19C533.552 19 534 19.4477 534 20C534 20.8494 533.487 21.502 532.918 21.9528C532.339 22.4115 531.563 22.7802 530.692 23.071C528.939 23.6562 526.577 24 524 24C521.423 24 519.061 23.6562 517.308 23.071C516.437 22.7802 515.661 22.4115 515.082 21.9528C514.513 21.502 514 20.8494 514 20C514 19.4477 514.448 19 515 19Z" fill="white" fill-opacity="0.05"/>
<path fill-rule="evenodd" clip-rule="evenodd" d="M515 12C515.552 12 516 12.4477 516 13V27C516 27.0019 516 27.007 516.003 27.018C516.007 27.0298 516.015 27.0521 516.036 27.0851C516.078 27.1543 516.163 27.258 516.324 27.3853C516.652 27.6447 517.188 27.9223 517.942 28.174C519.439 28.6738 521.577 29 524 29C526.423 29 528.561 28.6738 530.058 28.174C530.812 27.9223 531.348 27.6447 531.676 27.3853C531.837 27.258 531.922 27.1543 531.964 27.0851C531.985 27.0521 531.993 27.0298 531.997 27.018C532 27.007 532 27.0019 532 27V13.0001C532 12.4478 532.448 12 533 12C533.552 12 534 12.4477 534 13V27C534 27.8494 533.487 28.502 532.918 28.9528C532.339 29.4115 531.563 29.7802 530.692 30.071C528.939 30.6562 526.577 31 524 31C521.423 31 519.061 30.6562 517.308 30.071C516.437 29.7802 515.661 29.4115 515.082 28.9528C514.513 28.502 514 27.8494 514 27V13C514 12.4477 514.448 12 515 12Z" fill="white" fill-opacity="0.05"/>
<path fill-rule="evenodd" clip-rule="evenodd" d="M116.464 57.4645C117.402 56.5268 118.674 56 120 56H128C129.326 56 130.598 56.5268 131.536 57.4645C132.473 58.4021 133 59.6739 133 61V63C133 63.5523 132.552 64 132 64C131.448 64 131 63.5523 131 63V61C131 60.2044 130.684 59.4413 130.121 58.8787C129.559 58.3161 128.796 58 128 58H120C119.204 58 118.441 58.3161 117.879 58.8787C117.316 59.4413 117 60.2044 117 61V63C117 63.5523 116.552 64 116 64C115.448 64 115 63.5523 115 63V61C115 59.6739 115.527 58.4021 116.464 57.4645Z" fill="white" fill-opacity="0.05"/>
<path fill-rule="evenodd" clip-rule="evenodd" d="M124 46C122.343 46 121 47.3431 121 49C121 50.6569 122.343 52 124 52C125.657 52 127 50.6569 127 49C127 47.3431 125.657 46 124 46ZM119 49C119 46.2386 121.239 44 124 44C126.761 44 129 46.2386 129 49C129 51.7614 126.761 54 124 54C121.239 54 119 51.7614 119 49Z" fill="white" fill-opacity="0.05"/>
<path fill-rule="evenodd" clip-rule="evenodd" d="M134.032 56.88C134.17 56.3453 134.715 56.0237 135.25 56.1618C136.323 56.4387 137.273 57.0641 137.952 57.9396C138.63 58.8152 138.999 59.8914 139 60.9993L139 63C139 63.5523 138.552 64 138 64C137.448 64 137 63.5523 137 63L137 61.0007C137 61.0006 137 61.0008 137 61.0007C136.999 60.3361 136.778 59.6902 136.371 59.165C135.964 58.6396 135.394 58.2644 134.75 58.0982C134.215 57.9602 133.894 57.4147 134.032 56.88Z" fill="white" fill-opacity="0.05"/>
<path fill-rule="evenodd" clip-rule="evenodd" d="M130.031 44.882C130.168 44.3469 130.713 44.0243 131.248 44.1613C132.324 44.4366 133.277 45.0621 133.958 45.9391C134.638 46.8162 135.008 47.8948 135.008 49.005C135.008 50.1152 134.638 51.1939 133.958 52.0709C133.277 52.9479 132.324 53.5734 131.248 53.8488C130.713 53.9857 130.168 53.6631 130.031 53.128C129.894 52.593 130.217 52.0482 130.752 51.9113C131.397 51.746 131.969 51.3707 132.378 50.8445C132.786 50.3183 133.008 49.6711 133.008 49.005C133.008 48.3389 132.786 47.6917 132.378 47.1655C131.969 46.6393 131.397 46.264 130.752 46.0988C130.217 45.9618 129.894 45.417 130.031 44.882Z" fill="white" fill-opacity="0.05"/>
<g clip-path="url(#clip3)">
<path fill-rule="evenodd" clip-rule="evenodd" d="M419.992 43.8828C422.404 45.1873 423.887 47.8661 425.038 51.7124C426.19 55.5386 426.409 58.5809 425.097 60.9939C423.787 63.4037 421.111 64.8867 417.288 66.0375C413.462 67.1896 410.419 67.4094 408.006 66.0973C405.596 64.787 404.113 62.1108 402.962 58.2883C401.81 54.4617 401.591 51.4192 402.903 49.0061C404.213 46.5963 406.889 45.1133 410.712 43.9625C414.535 42.8115 417.578 42.5776 419.992 43.8828ZM419.041 45.6422C417.367 44.7374 415.005 44.7585 411.288 45.8775C407.571 46.9967 405.572 48.2837 404.66 49.9614C403.749 51.6358 403.76 53.9983 404.878 57.7117C405.997 61.4292 407.284 63.428 408.961 64.3402C410.636 65.2506 412.998 65.2404 416.712 64.1225C420.429 63.0033 422.428 61.7163 423.34 60.0386C424.251 58.3642 424.24 56.0017 423.122 52.2883L423.122 52.2865C422.002 48.5434 420.715 46.5476 419.041 45.6422Z" fill="white" fill-opacity="0.05"/>
<path fill-rule="evenodd" clip-rule="evenodd" d="M414.245 48.0445C414.767 47.8647 415.336 48.1423 415.516 48.6645L419.096 59.0645C419.275 59.5867 418.998 60.1558 418.475 60.3355C417.953 60.5153 417.384 60.2377 417.204 59.7155L413.624 49.3155C413.445 48.7933 413.722 48.2242 414.245 48.0445Z" fill="white" fill-opacity="0.05"/>
<path fill-rule="evenodd" clip-rule="evenodd" d="M409.525 49.6645C410.047 49.4847 410.616 49.7623 410.796 50.2845L414.376 60.6845C414.555 61.2067 414.278 61.7758 413.755 61.9555C413.233 62.1353 412.664 61.8577 412.484 61.3355L408.904 50.9355C408.725 50.4133 409.002 49.8442 409.525 49.6645Z" fill="white" fill-opacity="0.05"/>
<path fill-rule="evenodd" clip-rule="evenodd" d="M419.336 50.5245C419.515 51.0467 419.238 51.6158 418.715 51.7955L408.315 55.3755C407.793 55.5553 407.224 55.2777 407.044 54.7555C406.865 54.2333 407.142 53.6642 407.665 53.4845L418.065 49.9045C418.587 49.7247 419.156 50.0023 419.336 50.5245Z" fill="white" fill-opacity="0.05"/>
<path fill-rule="evenodd" clip-rule="evenodd" d="M420.956 55.2445C421.135 55.7667 420.858 56.3358 420.335 56.5155L409.935 60.0955C409.413 60.2753 408.844 59.9977 408.664 59.4755C408.485 58.9533 408.762 58.3842 409.285 58.2045L419.685 54.6245C420.207 54.4447 420.776 54.7223 420.956 55.2445Z" fill="white" fill-opacity="0.05"/>
</g>
<g clip-path="url(#clip4)">
<path fill-rule="evenodd" clip-rule="evenodd" d="M556.458 45C556.182 45 555.917 45.1054 555.722 45.2929C555.526 45.4804 555.417 45.7348 555.417 46V54.382L558.076 53.1056C558.22 53.0361 558.38 53 558.542 53H566.875C567.151 53 567.416 52.8946 567.612 52.7071C567.807 52.5196 567.917 52.2652 567.917 52V46C567.917 45.7348 567.807 45.4804 567.612 45.2929C567.416 45.1054 567.151 45 566.875 45H556.458ZM554.249 43.8787C554.835 43.3161 555.63 43 556.458 43H566.875C567.704 43 568.499 43.3161 569.085 43.8787C569.671 44.4413 570 45.2043 570 46V52C570 52.7957 569.671 53.5587 569.085 54.1213C568.499 54.6839 567.704 55 566.875 55H558.788L554.841 56.8944C554.518 57.0494 554.134 57.0329 553.827 56.8507C553.52 56.6684 553.333 56.3466 553.333 56V46C553.333 45.2043 553.663 44.4413 554.249 43.8787Z" fill="white" fill-opacity="0.05"/>
<path fill-rule="evenodd" clip-rule="evenodd" d="M546.957 45.8787C547.543 45.3161 548.338 45 549.167 45H550.729C551.304 45 551.771 45.4477 551.771 46C551.771 46.5523 551.304 47 550.729 47H549.167C548.89 47 548.625 47.1054 548.43 47.2929C548.235 47.4804 548.125 47.7348 548.125 48V64C548.125 64.2652 548.235 64.5196 548.43 64.7071C548.625 64.8946 548.89 65 549.167 65H560.625C560.901 65 561.166 64.8946 561.362 64.7071C561.557 64.5196 561.667 64.2652 561.667 64V58C561.667 57.4477 562.133 57 562.708 57C563.284 57 563.75 57.4477 563.75 58V64C563.75 64.7957 563.421 65.5587 562.835 66.1213C562.249 66.6839 561.454 67 560.625 67H549.167C548.338 67 547.543 66.6839 546.957 66.1213C546.371 65.5587 546.042 64.7957 546.042 64V48C546.042 47.2044 546.371 46.4413 546.957 45.8787Z" fill="white" fill-opacity="0.05"/>
<ellipse cx="555.417" cy="62" rx="1.04167" ry="1" fill="white" fill-opacity="0.05"/>
</g>
<path fill-rule="evenodd" clip-rule="evenodd" d="M737 11C734.239 11 732 13.2386 732 16V17V24H729C727.895 24 727 23.1046 727 22V18C727 16.8954 727.895 16 729 16L730 16C730 12.134 733.134 9 737 9H739C742.866 9 746 12.134 746 16H747C748.105 16 749 16.8954 749 18V22C749 23.1046 748.105 24 747 24H745.874C745.43 25.7252 743.864 27 742 27H740.732C740.387 27.5978 739.74 28 739 28C737.895 28 737 27.1046 737 26C737 24.8954 737.895 24 739 24C739.74 24 740.387 24.4022 740.732 25H742C743.105 25 744 24.1046 744 23V17V16C744 13.2386 741.761 11 739 11H737ZM730 18H729L729 22H730V18ZM737 18.25C737 18.9404 736.44 19.5 735.75 19.5C735.06 19.5 734.5 18.9404 734.5 18.25C734.5 17.5596 735.06 17 735.75 17C736.44 17 737 17.5596 737 18.25ZM740.25 19.5C740.94 19.5 741.5 18.9404 741.5 18.25C741.5 17.5596 740.94 17 740.25 17C739.56 17 739 17.5596 739 18.25C739 18.9404 739.56 19.5 740.25 19.5ZM746 18H747V22H746V18Z" fill="white" fill-opacity="0.05"/>
<g clip-path="url(#clip5)">
<path d="M49.3 64.9C46.7 64.9 44 64.2 41.6 62.8C41.2 62.6 41 62.1 41.1 61.7C41.2 61.3 41.6 61 42 61C43.7 61.1 45.4 60.7 46.9 60C43.2 57.7 42.2 54.5 42.1 52C42 49.1 43 46.7 43.1 46.6C43.2 46.3 43.5 46 43.9 46C44.3 46 44.6 46.1 44.8 46.4C46.5 48.8 49.1 50.3 52 50.5C52 48.9 52.7 47.4 53.9 46.3C56 44.5 59.1 44.5 61.2 46.3C62 46 62.8 45.6 63.5 45.1C63.8 44.9 64.3 44.9 64.6 45.1C64.9 45.3 65.1 45.8 65 46.2C64.7 47.6 64 48.9 63 50C63 50.2 63 50.3 63 50.5C63 56 60.6 60.6 56.3 63C54.2 64.3 51.8 64.9 49.3 64.9ZM46 62.5C49.3 63.3 52.6 62.9 55.4 61.3C59 59.2 61.1 55.2 61.1 50.5C61.1 50.3 61.1 50.1 61 49.9C60.9 49.6 61 49.2 61.3 49C61.5 48.8 61.7 48.5 61.9 48.3C61.7 48.4 61.4 48.5 61.2 48.5C60.8 48.6 60.4 48.5 60.2 48.2C58.9 46.8 56.7 46.6 55.3 47.9C54.4 48.5 54 49.5 54 50.5V51.5C54 52 53.6 52.5 53 52.5C49.7 52.6 46.6 51.3 44.4 49C43.8 51.6 43.6 56.5 49.4 59C49.7 59.2 50 59.5 50 59.9C50 60.3 49.9 60.6 49.6 60.8C48.4 61.6 47.2 62.2 46 62.5Z" fill="white" fill-opacity="0.05"/>
</g>
<path d="M706 66H696C694.3 66 693 64.7 693 63V47C693 45.3 694.3 44 696 44H706C707.7 44 709 45.3 709 47V63C709 64.7 707.7 66 706 66ZM696 46C695.4 46 695 46.4 695 47V63C695 63.6 695.4 64 696 64H706C706.6 64 707 63.6 707 63V47C707 46.4 706.6 46 706 46H696Z" fill="white" fill-opacity="0.05"/>
<path d="M701 62C700.9 62 700.7 62 700.6 61.9C700.5 61.9 700.4 61.8 700.3 61.7C700.1 61.5 700 61.3 700 61C700 60.9 700 60.7 700.1 60.6C700.2 60.5 700.2 60.4 700.3 60.3C700.7 59.9 701.3 59.9 701.7 60.3C701.9 60.5 702 60.8 702 61C702 61.3 701.9 61.5 701.7 61.7C701.5 61.9 701.3 62 701 62Z" fill="white" fill-opacity="0.05"/>
<path fill-rule="evenodd" clip-rule="evenodd" d="M596.553 8.10557C596.834 7.96481 597.166 7.96481 597.447 8.10557L607.447 13.1056C607.786 13.275 608 13.6212 608 14C608 14.3788 607.786 14.725 607.447 14.8944L597.447 19.8944C597.166 20.0352 596.834 20.0352 596.553 19.8944L586.553 14.8944C586.214 14.725 586 14.3788 586 14C586 13.6212 586.214 13.275 586.553 13.1056L596.553 8.10557ZM589.236 14L597 17.882L604.764 14L597 10.118L589.236 14Z" fill="white" fill-opacity="0.05"/>
<path fill-rule="evenodd" clip-rule="evenodd" d="M586.106 23.5528C586.353 23.0588 586.953 22.8586 587.447 23.1056L597 27.882L606.553 23.1056C607.047 22.8586 607.647 23.0588 607.894 23.5528C608.141 24.0468 607.941 24.6474 607.447 24.8944L597.447 29.8944C597.166 30.0352 596.834 30.0352 596.553 29.8944L586.553 24.8944C586.059 24.6474 585.859 24.0468 586.106 23.5528Z" fill="white" fill-opacity="0.05"/>
<path fill-rule="evenodd" clip-rule="evenodd" d="M586.106 18.5528C586.353 18.0588 586.953 17.8586 587.447 18.1056L597 22.882L606.553 18.1056C607.047 17.8586 607.647 18.0588 607.894 18.5528C608.141 19.0468 607.941 19.6474 607.447 19.8944L597.447 24.8944C597.166 25.0352 596.834 25.0352 596.553 24.8944L586.553 19.8944C586.059 19.6474 585.859 19.0468 586.106 18.5528Z" fill="white" fill-opacity="0.05"/>
<path fill-rule="evenodd" clip-rule="evenodd" d="M660.172 10.1716C660.922 9.42143 661.939 9 663 9C664.061 9 665.078 9.42143 665.828 10.1716C666.579 10.9217 667 11.9391 667 13V15H671V13C671 11.9391 671.421 10.9217 672.172 10.1716C672.922 9.42143 673.939 9 675 9C676.061 9 677.078 9.42143 677.828 10.1716C678.579 10.9217 679 11.9391 679 13C679 14.0609 678.579 15.0783 677.828 15.8284C677.078 16.5786 676.061 17 675 17H673V21H675C676.061 21 677.078 21.4214 677.828 22.1716C678.579 22.9217 679 23.9391 679 25C679 26.0609 678.579 27.0783 677.828 27.8284C677.078 28.5786 676.061 29 675 29C673.939 29 672.922 28.5786 672.172 27.8284C671.421 27.0783 671 26.0609 671 25V23H667V25C667 26.0609 666.579 27.0783 665.828 27.8284C665.078 28.5786 664.061 29 663 29C661.939 29 660.922 28.5786 660.172 27.8284C659.421 27.0783 659 26.0609 659 25C659 23.9391 659.421 22.9217 660.172 22.1716C660.922 21.4214 661.939 21 663 21H665V17H663C661.939 17 660.922 16.5786 660.172 15.8284C659.421 15.0783 659 14.0609 659 13C659 11.9391 659.421 10.9217 660.172 10.1716ZM665 15V13C665 12.4696 664.789 11.9609 664.414 11.5858C664.039 11.2107 663.53 11 663 11C662.47 11 661.961 11.2107 661.586 11.5858C661.211 11.9609 661 12.4696 661 13C661 13.5304 661.211 14.0391 661.586 14.4142C661.961 14.7893 662.47 15 663 15H665ZM667 17V21H671V17H667ZM665 23H663C662.47 23 661.961 23.2107 661.586 23.5858C661.211 23.9609 661 24.4696 661 25C661 25.5304 661.211 26.0391 661.586 26.4142C661.961 26.7893 662.47 27 663 27C663.53 27 664.039 26.7893 664.414 26.4142C664.789 26.0391 665 25.5304 665 25V23ZM673 23V25C673 25.5304 673.211 26.0391 673.586 26.4142C673.961 26.7893 674.47 27 675 27C675.53 27 676.039 26.7893 676.414 26.4142C676.789 26.0391 677 25.5304 677 25C677 24.4696 676.789 23.9609 676.414 23.5858C676.039 23.2107 675.53 23 675 23H673ZM673 15H675C675.53 15 676.039 14.7893 676.414 14.4142C676.789 14.0391 677 13.5304 677 13C677 12.4696 676.789 11.9609 676.414 11.5858C676.039 11.2107 675.53 11 675 11C674.47 11 673.961 11.2107 673.586 11.5858C673.211 11.9609 673 12.4696 673 13V15Z" fill="white" fill-opacity="0.05"/>
<g clip-path="url(#clip6)">
<path fill-rule="evenodd" clip-rule="evenodd" d="M487 47C487 47 487 47 487 48L487 49L486.925 49.0001C486.874 49.0002 486.801 49.0004 486.706 49.0009C486.516 49.0018 486.243 49.0036 485.909 49.0071C485.241 49.0143 484.334 49.0286 483.375 49.0571C482.414 49.0856 481.409 49.1282 480.542 49.1914C479.654 49.2562 478.994 49.3376 478.665 49.4242C478.367 49.51 478.096 49.6725 477.879 49.8957C477.668 50.1133 477.516 50.3812 477.438 50.6738C477.138 52.3474 476.992 54.0448 477 55.7451L477 55.7563C476.989 57.4635 477.135 59.1681 477.434 60.8487C477.521 61.1264 477.675 61.3788 477.882 61.5837C478.098 61.7984 478.367 61.9537 478.661 62.0347C478.988 62.1217 479.65 62.2035 480.542 62.2686C481.409 62.3318 482.414 62.3744 483.375 62.4029C484.334 62.4314 485.241 62.4457 485.909 62.4529C486.243 62.4564 486.516 62.4582 486.706 62.4591C486.801 62.4596 486.874 62.4598 486.925 62.4599H487.075C487.126 62.4598 487.199 62.4596 487.294 62.4591C487.484 62.4582 487.758 62.4564 488.091 62.4529C488.759 62.4457 489.666 62.4314 490.625 62.4029C491.586 62.3744 492.591 62.3318 493.458 62.2686C494.346 62.2038 495.006 62.1224 495.335 62.0358C495.633 61.95 495.904 61.7875 496.121 61.5643C496.332 61.3467 496.484 61.0788 496.562 60.7863C496.86 59.1253 497.006 57.4409 497 55.7536L497 55.7437C497.011 54.0306 496.864 52.3201 496.562 50.6338C496.484 50.3412 496.332 50.0733 496.121 49.8557C495.907 49.6351 495.64 49.4737 495.345 49.3872C495.005 49.3072 494.343 49.2335 493.464 49.175C492.596 49.1172 491.589 49.0782 490.628 49.0521C489.668 49.0261 488.76 49.013 488.092 49.0065C487.758 49.0033 487.485 49.0016 487.295 49.0008L487.076 49.0001L487 49L487 48C487 47 487 47 487 47L487.08 47.0001C487.131 47.0002 487.207 47.0004 487.303 47.0008C487.496 47.0017 487.774 47.0033 488.112 47.0066C488.787 47.0132 489.707 47.0264 490.682 47.0529C491.656 47.0793 492.692 47.1191 493.597 47.1794C494.477 47.238 495.311 47.3202 495.837 47.4485C495.849 47.4514 495.861 47.4545 495.872 47.4578C496.512 47.6389 497.093 47.9857 497.556 48.4631C498.02 48.9406 498.349 49.5319 498.51 50.1772L497.54 50.42L498.524 50.2425C498.852 52.0602 499.011 53.9043 499 55.7513C499.006 57.5707 498.847 59.3869 498.524 61.1774C498.52 61.1994 498.515 61.2212 498.51 61.2428C498.349 61.8881 498.02 62.4794 497.556 62.9569C497.093 63.4343 496.512 63.7811 495.872 63.9622L495.858 63.966C495.325 64.1088 494.483 64.1992 493.603 64.2633C492.696 64.3295 491.659 64.3731 490.685 64.4021C489.709 64.4311 488.789 64.4455 488.113 64.4528C487.774 64.4564 487.497 64.4582 487.304 64.4591C487.207 64.4595 487.131 64.4598 487.08 64.4599L487 64.46L486.92 64.4599C486.869 64.4598 486.793 64.4595 486.696 64.4591C486.503 64.4582 486.226 64.4564 485.887 64.4528C485.211 64.4455 484.291 64.4311 483.315 64.4021C482.341 64.3731 481.304 64.3295 480.397 64.2633C479.517 64.1992 478.675 64.1088 478.142 63.966L478.136 63.9646C477.509 63.793 476.937 63.4626 476.475 63.0052C476.013 62.5479 475.676 61.9792 475.498 61.3539C475.489 61.3222 475.482 61.29 475.476 61.2575C475.148 59.44 474.989 57.5961 475 55.7493C474.991 53.9164 475.151 52.0864 475.476 50.2825C475.48 50.2606 475.485 50.2388 475.49 50.2172C475.651 49.5719 475.98 48.9806 476.444 48.5031C476.907 48.0257 477.488 47.6789 478.128 47.4978L478.142 47.494C478.675 47.3512 479.517 47.2608 480.397 47.1967C481.304 47.1305 482.341 47.0869 483.315 47.0579C484.291 47.0289 485.211 47.0145 485.887 47.0072C486.226 47.0036 486.503 47.0018 486.696 47.0009C486.793 47.0005 486.869 47.0002 486.92 47.0001L487 47Z" fill="white" fill-opacity="0.05"/>
<path fill-rule="evenodd" clip-rule="evenodd" d="M484.247 51.6156C484.555 51.4366 484.935 51.4347 485.244 51.6107L490.994 54.8807C491.307 55.0585 491.5 55.3904 491.5 55.75C491.5 56.1096 491.307 56.4415 490.994 56.6193L485.244 59.8893C484.935 60.0653 484.555 60.0634 484.247 59.8844C483.939 59.7053 483.75 59.3761 483.75 59.02V52.48C483.75 52.1239 483.939 51.7947 484.247 51.6156ZM485.75 54.1991V57.3009L488.477 55.75L485.75 54.1991Z" fill="white" fill-opacity="0.05"/>
</g>
<path fill-rule="evenodd" clip-rule="evenodd" d="M81.2929 13.2929C81.6834 12.9024 82.3166 12.9024 82.7071 13.2929L88.7071 19.2929C89.0976 19.6834 89.0976 20.3166 88.7071 20.7071L82.7071 26.7071C82.3166 27.0976 81.6834 27.0976 81.2929 26.7071C80.9024 26.3166 80.9024 25.6834 81.2929 25.2929L86.5858 20L81.2929 14.7071C80.9024 14.3166 80.9024 13.6834 81.2929 13.2929Z" fill="white" fill-opacity="0.05"/>
<path fill-rule="evenodd" clip-rule="evenodd" d="M89 28C89 27.4477 89.4477 27 90 27H98C98.5523 27 99 27.4477 99 28C99 28.5523 98.5523 29 98 29H90C89.4477 29 89 28.5523 89 28Z" fill="white" fill-opacity="0.05"/>
<g clip-path="url(#clip7)">
<path d="M635.74 53H637C638.326 53 639.598 53.5268 640.536 54.4645C641.473 55.4021 642 56.6739 642 58C642 59.3261 641.473 60.5979 640.536 61.5355C639.598 62.4732 638.326 63 637 63H628C626.503 63.0011 625.037 62.5824 623.766 61.7916C622.496 61.0007 621.473 59.8693 620.813 58.526C620.153 57.1826 619.884 55.6812 620.035 54.1924C620.186 52.7035 620.752 51.2868 621.668 50.1034C622.584 48.9199 623.813 48.0171 625.217 47.4976C626.62 46.978 628.141 46.8626 629.607 47.1643C631.073 47.466 632.424 48.1728 633.509 49.2044C634.593 50.236 635.366 51.551 635.74 53Z" stroke="white" stroke-opacity="0.05" stroke-width="2" stroke-linecap="round" stroke-linejoin="round"/>
</g>
<path fill-rule="evenodd" clip-rule="evenodd" d="M777.5 44.2885C775.082 43.7242 772.545 43.9945 770.3 45.0552C768.055 46.116 766.236 47.9049 765.137 50.131C764.038 52.3572 763.724 54.8897 764.247 57.3167C764.769 59.7437 766.098 61.9225 768.016 63.4988C769.934 65.0752 772.329 65.9563 774.811 65.999C777.293 66.0417 779.717 65.2434 781.688 63.7339C782.126 63.3982 782.21 62.7705 781.874 62.332C781.538 61.8935 780.91 61.8103 780.472 62.1461C778.859 63.3811 776.876 64.0342 774.845 63.9993C772.814 63.9644 770.855 63.2434 769.286 61.9537C767.716 60.664 766.629 58.8813 766.202 56.8956C765.774 54.9098 766.031 52.8378 766.93 51.0164C767.829 49.195 769.318 47.7314 771.155 46.8635C772.991 45.9956 775.067 45.7745 777.045 46.2361C779.024 46.6978 780.787 47.815 782.05 49.4061C783.313 50.9973 784 52.9688 784 55.0001V56C784 56.5304 783.789 57.0391 783.414 57.4142C783.039 57.7893 782.53 58 782 58C781.47 58 780.961 57.7893 780.586 57.4142C780.211 57.0391 780 56.5304 780 56V51C780 50.4477 779.552 50 779 50C778.448 50 778 50.4475 778 50.9996C777.164 50.372 776.126 50 775 50C772.239 50 770 52.2386 770 55C770 57.7614 772.239 60 775 60C776.488 60 777.824 59.3499 778.74 58.3183C778.869 58.4989 779.013 58.6696 779.172 58.8284C779.922 59.5786 780.939 60 782 60C783.061 60 784.078 59.5786 784.828 58.8284C785.579 58.0783 786 57.0609 786 56V54.9999C786 52.5173 785.16 50.1077 783.617 48.1629C782.073 46.2182 779.918 44.8527 777.5 44.2885ZM772 55C772 53.3431 773.343 52 775 52C776.657 52 778 53.3431 778 55C778 56.6569 776.657 58 775 58C773.343 58 772 56.6569 772 55Z" fill="white" fill-opacity="0.05"/>
<path fill-rule="evenodd" clip-rule="evenodd" d="M340 46C337.878 46 335.843 46.8429 334.343 48.3431C332.843 49.8434 332 51.8783 332 54V60C332 60.5523 331.552 61 331 61C330.448 61 330 60.5523 330 60V54C330 51.3478 331.054 48.8043 332.929 46.9289C334.804 45.0536 337.348 44 340 44C342.652 44 345.196 45.0536 347.071 46.9289C348.946 48.8043 350 51.3478 350 54V60C350 60.5523 349.552 61 349 61C348.448 61 348 60.5523 348 60V54C348 51.8783 347.157 49.8434 345.657 48.3431C344.157 46.8429 342.122 46 340 46Z" fill="white" fill-opacity="0.05"/>
<path fill-rule="evenodd" clip-rule="evenodd" d="M330 56C330 55.4477 330.448 55 331 55H334C334.796 55 335.559 55.3161 336.121 55.8787C336.684 56.4413 337 57.2044 337 58V61C337 61.7957 336.684 62.5587 336.121 63.1213C335.559 63.6839 334.796 64 334 64H333C332.204 64 331.441 63.6839 330.879 63.1213C330.316 62.5587 330 61.7957 330 61V56ZM332 57V61C332 61.2652 332.105 61.5196 332.293 61.7071C332.48 61.8946 332.735 62 333 62H334C334.265 62 334.52 61.8946 334.707 61.7071C334.895 61.5196 335 61.2652 335 61V58C335 57.7348 334.895 57.4804 334.707 57.2929C334.52 57.1054 334.265 57 334 57H332ZM346 57C345.735 57 345.48 57.1054 345.293 57.2929C345.105 57.4804 345 57.7348 345 58V61C345 61.2652 345.105 61.5196 345.293 61.7071C345.48 61.8946 345.735 62 346 62H347C347.265 62 347.52 61.8946 347.707 61.7071C347.895 61.5196 348 61.2652 348 61V57H346ZM343.879 55.8787C344.441 55.3161 345.204 55 346 55H349C349.552 55 350 55.4477 350 56V61C350 61.7957 349.684 62.5587 349.121 63.1213C348.559 63.6839 347.796 64 347 64H346C345.204 64 344.441 63.6839 343.879 63.1213C343.316 62.5587 343 61.7957 343 61V58C343 57.2043 343.316 56.4413 343.879 55.8787Z" fill="white" fill-opacity="0.05"/>
<path fill-rule="evenodd" clip-rule="evenodd" d="M259 45C258.47 45 257.961 45.2107 257.586 45.5858C257.211 45.9609 257 46.4696 257 47V60C257 60.5304 257.211 61.0391 257.586 61.4142C257.961 61.7893 258.47 62 259 62H267C267.53 62 268.039 61.7893 268.414 61.4142C268.789 61.0391 269 60.5304 269 60V47C269 46.4696 268.789 45.9609 268.414 45.5858C268.039 45.2107 267.53 45 267 45H259ZM259 47H267V60H259V47ZM274 47C274.552 47 275 47.4477 275 48V50H277V48C277 47.4477 277.448 47 278 47C278.552 47 279 47.4477 279 48V50H280C280.552 50 281 50.4477 281 51V54C281 55.3261 280.473 56.5979 279.536 57.5355C278.837 58.2339 277.953 58.7044 277 58.899V67C277 67.5523 276.552 68 276 68H263C262.448 68 262 67.5523 262 67V64C262 63.4477 262.448 63 263 63C263.552 63 264 63.4477 264 64V66H275V58.899C274.047 58.7044 273.163 58.2339 272.464 57.5355C271.527 56.5979 271 55.3261 271 54V51C271 50.4477 271.448 50 272 50H273V48C273 47.4477 273.448 47 274 47ZM278.121 56.1213C277.559 56.6839 276.796 57 276 57C275.204 57 274.441 56.6839 273.879 56.1213C273.316 55.5587 273 54.7956 273 54V52H274H278H279V54C279 54.7956 278.684 55.5587 278.121 56.1213Z" fill="white" fill-opacity="0.05"/>
</g>
<defs>
<clipPath id="clip0">
<rect width="793" height="72" fill="white"/>
</clipPath>
<clipPath id="clip1">
<rect width="24" height="24" fill="white" transform="translate(150 7)"/>
</clipPath>
<clipPath id="clip2">
<rect width="24" height="24" fill="white" transform="translate(439 7)"/>
</clipPath>
<clipPath id="clip3">
<rect width="24" height="24" fill="white" transform="translate(402 43)"/>
</clipPath>
<clipPath id="clip4">
<rect width="25" height="24" fill="white" transform="translate(545 43)"/>
</clipPath>
<clipPath id="clip5">
<rect width="24" height="24" fill="white" transform="translate(41 43)"/>
</clipPath>
<clipPath id="clip6">
<rect width="24" height="24" fill="white" transform="translate(475 44)"/>
</clipPath>
<clipPath id="clip7">
<rect width="24" height="24" fill="white" transform="translate(619 43)"/>
</clipPath>
</defs>
</svg>
