<svg width="589" height="514" viewBox="0 0 589 514" fill="none" xmlns="http://www.w3.org/2000/svg">
<path d="M72.9445 247.347L62.0061 250.49L62.0801 264.535L73.1882 261.343L73.2184 280.365L62.1104 283.555L62.4661 300.828L42.5394 306.553L42.2684 289.254L31.4996 292.348L31.7706 309.647L11.7591 315.395L11.7425 298.024L0.634551 301.214L0.60425 282.194L11.5428 279.051L11.4689 265.008L0.360743 268.198L0.160889 249.225L11.269 246.035L11.1066 228.155L30.8637 222.478L31.1108 240.334L41.8797 237.242L41.8021 219.336L61.6439 213.637L61.6367 231.565L72.7449 228.374L72.9445 247.347ZM31.2258 259.331L31.2997 273.377L42.2383 270.234L42.2491 256.164L31.2258 259.331Z" fill="url(#paint0_linear)"/>
<path d="M244.481 245.375C238.576 254.363 231.281 262.053 222.597 268.445C213.911 274.838 204.356 279.529 193.933 282.517C185.938 284.81 177.912 285.966 169.86 285.984C161.91 286.06 154.14 285.147 146.557 283.25C139.027 281.254 131.834 278.355 124.977 274.553C118.12 270.752 111.847 266.188 106.165 260.86C100.536 255.436 95.6077 249.341 91.38 242.58C87.2069 235.718 83.9743 228.29 81.6819 220.295C79.3895 212.301 78.1947 204.288 78.0974 196.259C78.0786 188.205 79.0286 180.427 80.948 172.92C82.9231 165.314 85.8115 158.082 89.6128 151.225C93.4134 144.365 97.9899 138.134 103.339 132.53C108.742 126.823 114.835 121.895 121.619 117.743C128.457 113.493 135.875 110.221 143.87 107.928C154.294 104.94 164.882 103.855 175.634 104.674C186.366 105.412 196.628 108.069 206.42 112.64L196.978 147.157C190.512 143.243 183.504 140.84 175.955 139.953C168.383 138.985 160.913 139.559 153.545 141.67C146.098 143.807 139.528 147.217 133.832 151.903C128.134 156.592 123.555 162.061 120.087 168.315C116.599 174.488 114.389 181.272 113.455 188.664C112.497 195.98 113.076 203.32 115.19 210.688C117.301 218.057 120.7 224.587 125.389 230.283C130.052 235.901 135.513 240.443 141.764 243.911C148.019 247.376 154.8 249.586 162.116 250.544C169.43 251.499 176.811 250.912 184.258 248.775C191.624 246.664 198.274 243.23 204.205 238.473C210.115 233.641 214.772 227.851 218.183 221.107L244.481 245.375Z" fill="url(#paint1_linear)"/>
<path d="M334.535 165.351L324.86 131.609C323.534 126.983 321.384 122.891 318.412 119.332C315.498 115.674 312.075 112.755 308.14 110.573C304.208 108.392 299.916 107.038 295.266 106.503C290.674 105.869 286.066 106.216 281.443 107.541C276.817 108.867 272.686 111.027 269.049 114.02C265.469 116.914 262.589 120.327 260.407 124.261C258.226 128.193 256.83 132.496 256.22 137.166C255.664 141.738 256.05 146.335 257.375 150.958L267.05 184.701L334.535 165.351ZM387.593 223.04L353.853 232.718L344.176 198.975L276.691 218.325L286.369 252.067L252.744 261.708L223.751 160.599C221.076 151.274 220.333 142.027 221.522 132.866C222.691 123.625 225.415 115.082 229.697 107.239C234.057 99.3721 239.808 92.5047 246.949 86.6418C254.166 80.7555 262.44 76.4738 271.768 73.7994C281.093 71.1249 290.337 70.3824 299.501 71.5722C308.743 72.7392 317.296 75.5032 325.162 79.8631C333.029 84.2231 339.907 90.0129 345.793 97.2326C351.659 104.371 355.927 112.606 358.602 121.934L387.593 223.04Z" fill="url(#paint2_linear)"/>
<path d="M397.497 74.2639L416.847 141.748L450.589 132.073C455.212 130.745 459.317 128.637 462.896 125.743C466.455 122.771 469.326 119.319 471.504 115.387C473.685 111.453 475.053 107.202 475.608 102.631C476.222 97.9606 475.864 93.3136 474.539 88.6875C473.211 84.064 471.063 79.9728 468.091 76.4138C465.177 72.7531 461.751 69.8342 457.819 67.654C453.884 65.4737 449.634 64.1057 445.063 63.5502C440.47 62.9162 435.863 63.2622 431.236 64.5882L397.497 74.2639ZM436.163 209.115L402.421 218.79L354.077 50.1969L421.562 30.8461C427.753 29.0708 433.947 28.1855 440.142 28.191C446.312 28.1176 452.293 28.8626 458.085 30.425C463.932 31.8866 469.49 34.1102 474.758 37.0954C480.081 39.9801 484.91 43.5145 489.249 47.6994C493.667 51.8616 497.479 56.5787 500.685 61.8509C503.973 67.1006 506.504 72.821 508.281 79.0126C510.932 88.2622 511.675 97.5066 510.506 106.748C509.317 115.912 506.543 124.426 502.18 132.292C497.821 140.159 492.031 147.034 484.814 152.923C477.672 158.786 469.479 163.044 460.23 165.698L426.488 175.373L436.163 209.115Z" fill="url(#paint3_linear)"/>
<path d="M576.436 168.892L542.694 178.566L494.35 9.97433L528.092 0.29892L576.436 168.892Z" fill="url(#paint4_linear)"/>
<path d="M179.102 473.126C173.197 482.115 165.902 489.804 157.219 496.197C148.533 502.589 138.978 507.281 128.554 510.268C120.56 512.562 112.534 513.717 104.482 513.736C96.5289 513.811 88.7621 512.898 81.1779 511.004C73.6496 509.005 66.4563 506.106 59.5983 502.305C52.7403 498.503 46.4694 493.94 40.786 488.614C35.1585 483.187 30.2303 477.092 26.0013 470.332C21.8284 463.47 18.5956 456.041 16.3034 448.047C14.011 440.052 12.816 432.039 12.7189 424.011C12.6999 415.956 13.6501 408.178 15.5695 400.671C17.5446 393.066 20.4327 385.833 24.2343 378.976C28.0357 372.116 32.6106 365.886 37.959 360.281C43.3631 354.575 49.4569 349.646 56.24 345.495C63.0792 341.244 70.4961 337.972 78.4907 335.679C88.915 332.691 99.5033 331.606 110.256 332.425C120.987 333.164 131.249 335.82 141.042 340.391L131.599 374.908C125.133 370.994 118.125 368.594 110.577 367.704C103.002 366.736 95.5347 367.31 88.1661 369.421C80.72 371.558 74.149 374.968 68.4526 379.654C62.7562 384.343 58.175 389.812 54.7089 396.066C51.2204 402.24 49.0094 409.023 48.0756 416.415C47.1193 423.731 47.6975 431.071 49.8102 438.44C51.9228 445.808 55.3226 452.339 60.0098 458.035C64.6742 463.652 70.1329 468.195 76.3859 471.662C82.6388 475.127 89.4225 477.337 96.7376 478.295C104.051 479.25 111.433 478.663 118.877 476.526C126.245 474.415 132.896 470.981 138.827 466.225C144.736 461.393 149.394 455.603 152.804 448.858L179.102 473.126Z" fill="url(#paint5_linear)"/>
<path d="M325.522 359.381C327.813 367.376 328.969 375.399 328.987 383.451C329.063 391.404 328.152 399.171 326.256 406.756C324.335 414.263 321.475 421.444 317.674 428.303C313.872 435.16 309.309 441.43 303.983 447.115C298.635 452.72 292.529 457.61 285.669 461.782C278.831 466.032 271.413 469.304 263.418 471.598C255.424 473.888 247.4 475.044 239.346 475.065C231.396 475.138 223.628 474.228 216.043 472.331C208.513 470.335 201.322 467.433 194.462 463.632C187.605 459.83 181.333 455.267 175.65 449.941C170.022 444.514 165.096 438.422 160.866 431.661C156.694 424.799 153.462 417.371 151.168 409.376C148.875 401.381 147.68 393.369 147.583 385.337C147.565 377.286 148.515 369.508 150.435 362.001C152.431 354.473 155.332 347.28 159.134 340.42C162.933 333.563 167.509 327.332 172.858 321.725C178.283 316.1 184.388 311.21 191.172 307.059C198.011 302.809 205.429 299.537 213.423 297.243C221.418 294.952 229.441 293.796 237.493 293.776C245.524 293.679 253.292 294.59 260.799 296.51C268.305 298.428 275.486 301.29 282.345 305.092C289.202 308.893 295.433 313.467 301.038 318.816C306.645 324.165 311.532 330.268 315.707 337.13C319.957 343.969 323.229 351.387 325.522 359.381ZM292.015 368.988C289.902 361.622 286.502 355.089 281.816 349.393C277.106 343.619 271.635 339.037 265.406 335.651C259.23 332.162 252.447 329.949 245.055 329.015C237.739 328.06 230.399 328.637 223.031 330.75C215.584 332.885 209.014 336.298 203.318 340.984C197.622 345.67 193.04 351.141 189.573 357.393C186.084 363.569 183.874 370.353 182.94 377.745C181.985 385.058 182.562 392.401 184.675 399.769C186.789 407.135 190.189 413.668 194.875 419.364C199.54 424.982 204.998 429.524 211.25 432.989C217.504 436.457 224.288 438.667 231.602 439.624C238.915 440.579 246.297 439.99 253.743 437.855C261.109 435.742 267.643 432.342 273.338 427.656C279.113 422.946 283.694 417.475 287.081 411.247C290.549 404.993 292.772 398.248 293.75 391.013C294.705 383.696 294.128 376.357 292.015 368.988Z" fill="url(#paint6_linear)"/>
<path d="M492.114 402.076L456.021 412.424L359.184 320.084L391.005 431.066L357.263 440.744L308.92 272.151L345.016 261.8L441.887 354.259L410.029 243.157L443.771 233.482L492.114 402.076Z" fill="url(#paint7_linear)"/>
<path d="M542.8 387.542L509.058 397.217L460.715 228.624L578.755 194.777L588.43 228.519L504.132 252.691L513.81 286.433L564.363 271.936L574.038 305.679L523.485 320.175L542.8 387.542Z" fill="url(#paint8_linear)"/>
<defs>
<linearGradient id="paint0_linear" x1="588" y1="-24" x2="-2.79859e-05" y2="514" gradientUnits="userSpaceOnUse">
<stop stop-color="#FF6001"/>
<stop offset="1" stop-color="#FF0E5A"/>
</linearGradient>
<linearGradient id="paint1_linear" x1="588" y1="-24" x2="-2.79859e-05" y2="514" gradientUnits="userSpaceOnUse">
<stop stop-color="#FF6001"/>
<stop offset="1" stop-color="#FF0E5A"/>
</linearGradient>
<linearGradient id="paint2_linear" x1="588" y1="-24" x2="-2.79859e-05" y2="514" gradientUnits="userSpaceOnUse">
<stop stop-color="#FF6001"/>
<stop offset="1" stop-color="#FF0E5A"/>
</linearGradient>
<linearGradient id="paint3_linear" x1="588" y1="-24" x2="-2.79859e-05" y2="514" gradientUnits="userSpaceOnUse">
<stop stop-color="#FF6001"/>
<stop offset="1" stop-color="#FF0E5A"/>
</linearGradient>
<linearGradient id="paint4_linear" x1="588" y1="-24" x2="-2.79859e-05" y2="514" gradientUnits="userSpaceOnUse">
<stop stop-color="#FF6001"/>
<stop offset="1" stop-color="#FF0E5A"/>
</linearGradient>
<linearGradient id="paint5_linear" x1="588" y1="-24" x2="-2.79859e-05" y2="514" gradientUnits="userSpaceOnUse">
<stop stop-color="#FF6001"/>
<stop offset="1" stop-color="#FF0E5A"/>
</linearGradient>
<linearGradient id="paint6_linear" x1="588" y1="-24" x2="-2.79859e-05" y2="514" gradientUnits="userSpaceOnUse">
<stop stop-color="#FF6001"/>
<stop offset="1" stop-color="#FF0E5A"/>
</linearGradient>
<linearGradient id="paint7_linear" x1="588" y1="-24" x2="-2.79859e-05" y2="514" gradientUnits="userSpaceOnUse">
<stop stop-color="#FF6001"/>
<stop offset="1" stop-color="#FF0E5A"/>
</linearGradient>
<linearGradient id="paint8_linear" x1="588" y1="-24" x2="-2.79859e-05" y2="514" gradientUnits="userSpaceOnUse">
<stop stop-color="#FF6001"/>
<stop offset="1" stop-color="#FF0E5A"/>
</linearGradient>
</defs>
</svg>
