<?xml version="1.0" encoding="utf-8"?>
<!-- Generator: Adobe Illustrator 19.2.1, SVG Export Plug-In . SVG Version: 6.00 Build 0)  -->
<svg version="1.1" id="Layer_1" xmlns="http://www.w3.org/2000/svg" xmlns:xlink="http://www.w3.org/1999/xlink" x="0px" y="0px"
	 viewBox="0 0 98.7 98.7" style="enable-background:new 0 0 98.7 98.7;" xml:space="preserve">
<style type="text/css">
	.st0{fill-rule:evenodd;clip-rule:evenodd;fill:none;}
</style>
<path class="st0" d="M86.1,0H12.7C5.7,0,0,5.7,0,12.7v73.4c0,7,5.7,12.7,12.7,12.7h73.4c7,0,12.7-5.7,12.7-12.7V12.7
	C98.7,5.7,93,0,86.1,0z M67.5,15.4c0-2.4,2-4.4,4.4-4.4h11.2c2.4,0,4.4,2,4.4,4.4v10.6c0,2.4-2,4.4-4.4,4.4H71.9
	c-2.4,0-4.4-2-4.4-4.4V15.4z M49.5,29.9c11,0,19.8,8.6,19.8,19.2c0,10.6-8.9,19.2-19.8,19.2c-11,0-19.8-8.6-19.8-19.2
	C29.6,38.5,38.5,29.9,49.5,29.9z M87.6,83.5c0,2.2-1.8,3.9-3.9,3.9H14.9c-2.2,0-3.9-1.8-3.9-3.9V41.8H20c-0.8,2.7-1.3,5.5-1.3,8.5
	C18.8,66.6,32.5,80,49.5,80c16.9,0,30.7-13.3,30.7-29.7c0-2.9-0.4-5.8-1.3-8.5h8.7V83.5z"/>
</svg>
