<svg width="348" height="348" viewBox="0 0 348 348" fill="none" xmlns="http://www.w3.org/2000/svg">
<circle cx="174" cy="174" r="174" fill="#F50057"/>
<path d="M92.7334 154.194L86.9208 155.861L86.9601 163.311L92.8629 161.618L92.8789 171.708L86.9762 173.4L87.1652 182.562L76.5763 185.599L76.4323 176.423L70.7098 178.064L70.8538 187.24L60.2198 190.289L60.211 181.075L54.3083 182.767L54.2922 172.678L60.1049 171.011L60.0656 163.562L54.1628 165.254L54.0566 155.19L59.9594 153.498L59.8731 144.014L70.3719 141.003L70.5032 150.474L76.2257 148.834L76.1845 139.336L86.7283 136.313L86.7245 145.823L92.6273 144.13L92.7334 154.194ZM70.5643 160.551L70.6036 168.001L76.4163 166.334L76.422 158.871L70.5643 160.551Z" fill="white"/>
<path d="M158.638 166.164C156.375 169.609 153.579 172.556 150.251 175.006C146.922 177.456 143.26 179.254 139.265 180.399C136.201 181.278 133.125 181.721 130.039 181.728C126.992 181.757 124.014 181.407 121.108 180.68C118.222 179.915 115.465 178.804 112.837 177.347C110.209 175.89 107.805 174.141 105.627 172.099C103.47 170.02 101.581 167.684 99.9607 165.093C98.3613 162.463 97.1224 159.616 96.2438 156.552C95.3652 153.488 94.9073 150.417 94.87 147.34C94.8628 144.253 95.2269 141.272 95.9625 138.395C96.7195 135.48 97.8265 132.708 99.2834 130.08C100.74 127.451 102.494 125.063 104.544 122.915C106.615 120.728 108.95 118.839 111.55 117.248C114.171 115.619 117.014 114.365 120.078 113.486C124.073 112.341 128.131 111.925 132.252 112.239C136.365 112.522 140.298 113.54 144.051 115.292L140.432 128.521C137.954 127.021 135.268 126.1 132.375 125.76C129.473 125.389 126.61 125.609 123.786 126.418C120.932 127.237 118.414 128.544 116.231 130.34C114.047 132.137 112.292 134.233 110.963 136.63C109.626 138.996 108.779 141.596 108.421 144.429C108.054 147.233 108.276 150.046 109.086 152.87C109.895 155.694 111.198 158.197 112.995 160.38C114.782 162.533 116.875 164.274 119.271 165.603C121.668 166.931 124.267 167.778 127.071 168.145C129.874 168.511 132.703 168.286 135.557 167.467C138.38 166.658 140.929 165.342 143.202 163.519C145.467 161.667 147.252 159.448 148.559 156.863L158.638 166.164Z" fill="white"/>
<path d="M193.152 135.494L189.444 122.562C188.936 120.789 188.112 119.221 186.973 117.857C185.856 116.455 184.544 115.336 183.036 114.5C181.529 113.664 179.884 113.145 178.102 112.94C176.342 112.697 174.576 112.83 172.804 113.338C171.031 113.846 169.448 114.674 168.054 115.821C166.682 116.93 165.578 118.238 164.742 119.746C163.906 121.253 163.371 122.902 163.137 124.692C162.924 126.444 163.072 128.206 163.58 129.978L167.288 142.91L193.152 135.494ZM213.487 157.604L200.556 161.313L196.847 148.381L170.983 155.797L174.692 168.729L161.805 172.424L150.693 133.673C149.668 130.099 149.383 126.555 149.839 123.044C150.287 119.502 151.331 116.228 152.972 113.222C154.643 110.207 156.847 107.575 159.584 105.328C162.35 103.072 165.521 101.431 169.096 100.406C172.67 99.381 176.213 99.0964 179.725 99.5524C183.267 99.9997 186.545 101.059 189.56 102.73C192.575 104.401 195.211 106.62 197.467 109.387C199.715 112.123 201.351 115.279 202.376 118.854L213.487 157.604Z" fill="white"/>
<path d="M217.283 100.584L224.699 126.448L237.631 122.74C239.403 122.231 240.976 121.423 242.348 120.314C243.712 119.175 244.812 117.852 245.647 116.345C246.483 114.837 247.007 113.208 247.22 111.456C247.455 109.666 247.318 107.885 246.81 106.112C246.301 104.34 245.478 102.772 244.339 101.408C243.222 100.005 241.909 98.8863 240.402 98.0507C238.894 97.2151 237.265 96.6908 235.513 96.4779C233.753 96.2349 231.987 96.3675 230.214 96.8757L217.283 100.584ZM232.102 152.267L219.17 155.975L200.642 91.3601L226.506 83.9437C228.879 83.2633 231.253 82.924 233.627 82.9261C235.992 82.898 238.284 83.1835 240.504 83.7823C242.745 84.3425 244.875 85.1947 246.894 86.3388C248.934 87.4444 250.785 88.799 252.448 90.4029C254.141 91.9981 255.602 93.806 256.831 95.8266C258.091 97.8386 259.061 100.031 259.742 102.404C260.758 105.949 261.043 109.492 260.595 113.034C260.139 116.546 259.076 119.809 257.404 122.824C255.733 125.839 253.514 128.474 250.748 130.731C248.011 132.978 244.871 134.61 241.326 135.627L228.394 139.335L232.102 152.267Z" fill="white"/>
<path d="M285.863 136.851L272.931 140.559L254.403 75.9444L267.335 72.2362L285.863 136.851Z" fill="white"/>
<path d="M133.581 253.452C131.318 256.897 128.522 259.844 125.194 262.294C121.865 264.744 118.203 266.542 114.208 267.687C111.144 268.566 108.068 269.009 104.982 269.016C101.934 269.045 98.9573 268.695 96.0506 267.969C93.1653 267.203 90.4084 266.092 87.78 264.635C85.1516 263.178 82.7482 261.429 80.57 259.388C78.4132 257.308 76.5244 254.972 74.9036 252.381C73.3043 249.751 72.0653 246.904 71.1868 243.84C70.3082 240.776 69.8502 237.705 69.813 234.628C69.8057 231.541 70.1699 228.56 70.9055 225.683C71.6625 222.768 72.7694 219.996 74.2264 217.368C75.6833 214.739 77.4367 212.351 79.4865 210.203C81.5577 208.016 83.8932 206.127 86.4929 204.536C89.1141 202.907 91.9567 201.653 95.0207 200.774C99.0159 199.629 103.074 199.213 107.195 199.527C111.308 199.81 115.241 200.828 118.994 202.58L115.375 215.809C112.897 214.309 110.211 213.389 107.318 213.048C104.415 212.677 101.553 212.897 98.7289 213.706C95.8751 214.525 93.3567 215.832 91.1735 217.628C88.9903 219.425 87.2345 221.521 85.9061 223.918C84.5691 226.284 83.7217 228.884 83.3638 231.717C82.9973 234.521 83.2189 237.334 84.0286 240.158C84.8383 242.982 86.1413 245.485 87.9377 247.668C89.7254 249.821 91.8175 251.562 94.214 252.891C96.6105 254.219 99.2104 255.066 102.014 255.433C104.817 255.799 107.646 255.574 110.499 254.755C113.323 253.946 115.872 252.63 118.145 250.807C120.41 248.955 122.195 246.736 123.502 244.151L133.581 253.452Z" fill="white"/>
<path d="M189.698 209.858C190.576 212.922 191.019 215.997 191.026 219.083C191.055 222.131 190.706 225.108 189.979 228.015C189.243 230.892 188.147 233.644 186.69 236.273C185.233 238.901 183.484 241.304 181.443 243.483C179.393 245.631 177.053 247.505 174.424 249.104C171.803 250.733 168.96 251.987 165.896 252.866C162.832 253.744 159.757 254.187 156.67 254.195C153.623 254.223 150.646 253.874 147.739 253.147C144.853 252.382 142.097 251.27 139.468 249.813C136.84 248.356 134.436 246.607 132.258 244.566C130.101 242.486 128.213 240.151 126.592 237.56C124.993 234.93 123.754 232.083 122.875 229.019C121.996 225.955 121.538 222.884 121.501 219.806C121.494 216.72 121.858 213.739 122.594 210.862C123.359 207.977 124.471 205.22 125.928 202.591C127.384 199.963 129.138 197.575 131.188 195.426C133.267 193.27 135.607 191.396 138.207 189.805C140.828 188.176 143.671 186.922 146.735 186.043C149.799 185.165 152.874 184.722 155.96 184.714C159.038 184.677 162.015 185.026 164.892 185.762C167.769 186.497 170.521 187.594 173.15 189.051C175.778 190.508 178.166 192.261 180.314 194.311C182.463 196.361 184.336 198.7 185.936 201.33C187.565 203.951 188.819 206.794 189.698 209.858ZM176.856 213.54C176.046 210.717 174.743 208.213 172.947 206.03C171.142 203.817 169.045 202.061 166.658 200.763C164.291 199.426 161.691 198.578 158.858 198.22C156.054 197.854 153.241 198.075 150.417 198.885C147.563 199.703 145.045 201.011 142.862 202.807C140.679 204.603 138.923 206.7 137.594 209.096C136.257 211.463 135.41 214.063 135.052 216.896C134.686 219.699 134.907 222.513 135.717 225.337C136.527 228.16 137.83 230.664 139.626 232.847C141.414 235 143.506 236.741 145.902 238.069C148.299 239.398 150.899 240.245 153.702 240.612C156.505 240.978 159.334 240.752 162.188 239.934C165.011 239.124 167.515 237.821 169.698 236.025C171.911 234.22 173.667 232.123 174.965 229.736C176.294 227.339 177.146 224.754 177.521 221.981C177.887 219.177 177.666 216.364 176.856 213.54Z" fill="white"/>
<path d="M253.546 226.221L239.713 230.187L202.599 194.797L214.795 237.332L201.863 241.041L183.335 176.426L197.169 172.459L234.296 207.895L222.086 165.314L235.018 161.606L253.546 226.221Z" fill="white"/>
<path d="M272.972 220.651L260.04 224.359L241.512 159.744L286.752 146.772L290.46 159.704L258.152 168.968L261.861 181.9L281.236 176.344L284.944 189.276L265.569 194.832L272.972 220.651Z" fill="white"/>
</svg>
